<?xml version="1.0" ?><!DOCTYPE svg  PUBLIC '-//W3C//DTD SVG 1.1//EN'  'http://www.w3.org/Graphics/SVG/1.1/DTD/svg11.dtd'><svg enable-background="new 0 0 85 85" height="85px" id="Layer_1" version="1.1" viewBox="0 0 85 85" width="85px" xml:space="preserve" xmlns="http://www.w3.org/2000/svg" xmlns:xlink="http://www.w3.org/1999/xlink"><g><g><g><path d="M57.527,54.744     l12.156-6.213c2.35-1.262,5.105-0.756,6.242,1.359c1.133,2.115,0.139,4.879-2.211,6.141l-25.223,13.52l-1.334,0.334     l-23.524,0.637c0,0-3.029,0.848-6.668,4.971" fill="none" stroke="#394552" stroke-linejoin="round" stroke-miterlimit="10" stroke-width="2.5"/><path d="M8.606,63.125l10.671-9.82     c5.215-3.518,11.398-1.576,11.398-1.576c2.994,0.787,8.555,0.965,8.555,0.965h9.233c2.75,0,5,1.965,5,4.365s-2.25,4.365-5,4.365     H35.691" fill="none" stroke="#394552" stroke-miterlimit="10" stroke-width="2.5"/></g></g><g><g><g><path d="      M26.388,45.914c-2.654-3.761-4.212-8.351-4.212-13.303c0-6.51,2.695-12.392,7.027-16.591" fill="none" stroke="#394552" stroke-linecap="round" stroke-linejoin="round" stroke-miterlimit="10" stroke-width="2.5"/></g><g><path d="      M35.687,11.587c2.922-1.335,6.169-2.08,9.592-2.08c12.76,0,23.105,10.345,23.105,23.104c0,4.386-1.223,8.487-3.344,11.979" fill="none" stroke="#394552" stroke-linecap="round" stroke-linejoin="round" stroke-miterlimit="10" stroke-width="2.5"/></g></g><line fill="none" stroke="#394552" stroke-linecap="round" stroke-miterlimit="10" stroke-width="2.5" x1="53.199" x2="37.404" y1="21.167" y2="44.09"/><g><circle cx="37.876" cy="24.602" fill="none" r="4.215" stroke="#394552" stroke-linecap="round" stroke-miterlimit="10" stroke-width="2.5"/><path d="M56.939,40.653     c0,2.328-1.889,4.218-4.218,4.218c-2.325,0-4.215-1.89-4.215-4.218c0-2.326,1.89-4.214,4.215-4.214     C55.051,36.438,56.939,38.327,56.939,40.653z" fill="none" stroke="#394552" stroke-linecap="round" stroke-miterlimit="10" stroke-width="2.5"/></g></g></g></svg>