<?xml version="1.0" ?><!DOCTYPE svg  PUBLIC '-//W3C//DTD SVG 1.1//EN'  'http://www.w3.org/Graphics/SVG/1.1/DTD/svg11.dtd'><svg enable-background="new 0 0 85 85" height="85px" id="Layer_1" version="1.1" viewBox="0 0 85 85" width="85px" xml:space="preserve" xmlns="http://www.w3.org/2000/svg" xmlns:xlink="http://www.w3.org/1999/xlink"><g><g><line fill="none" stroke="#394552" stroke-linecap="round" stroke-miterlimit="10" stroke-width="2.5" x1="58.52" x2="47.115" y1="35.335" y2="51.893"/><g><circle cx="47.255" cy="37.617" fill="none" r="3.194" stroke="#394552" stroke-linecap="round" stroke-miterlimit="10" stroke-width="2.5"/><circle cx="58.375" cy="49.611" fill="none" r="3.197" stroke="#394552" stroke-linecap="round" stroke-miterlimit="10" stroke-width="2.5"/></g></g><path d="M46.996,23.183v-3.431   c0-2.828-2.34-5.142-5.168-5.142H12.153" fill="none" stroke="#394552" stroke-linejoin="round" stroke-miterlimit="10" stroke-width="2.5"/><path d="M67.678,57.963V28.287   c0-2.828-2.33-5.142-5.158-5.142H32.852" fill="none" stroke="#394552" stroke-linejoin="round" stroke-miterlimit="10" stroke-width="2.5"/><path d="M12.887,22.598H6.985   v-2.846c0-2.828,2.34-5.142,5.168-5.142s5.167,2.314,5.167,5.142v28.752c0,2.828,2.339,5.143,5.167,5.143s5.183-2.314,5.183-5.143   V28.287c0-2.828,2.354-5.142,5.183-5.142s5.182,2.501,5.182,5.329v36.773c0,2.828,2.353,5.143,5.181,5.143   c2.826,0,5.166-2.314,5.166-5.143v-2.846h29.635v2.846c0,2.828-2.34,5.143-5.166,5.143H43.326" fill="none" stroke="#394552" stroke-linejoin="round" stroke-miterlimit="10" stroke-width="2.5"/><line fill="none" stroke="#394552" stroke-linejoin="round" stroke-miterlimit="10" stroke-width="2.5" x1="22.487" x2="33.51" y1="53.646" y2="53.646"/></g></svg>