<?xml version="1.0" ?><!DOCTYPE svg  PUBLIC '-//W3C//DTD SVG 1.1//EN'  'http://www.w3.org/Graphics/SVG/1.1/DTD/svg11.dtd'><svg enable-background="new 0 0 85 85" height="85px" id="Layer_1" version="1.1" viewBox="0 0 85 85" width="85px" xml:space="preserve" xmlns="http://www.w3.org/2000/svg" xmlns:xlink="http://www.w3.org/1999/xlink"><g><g><line fill="none" stroke="#394552" stroke-linecap="round" stroke-miterlimit="10" stroke-width="2.5" x1="45.804" x2="31.433" y1="28.21" y2="49.066"/><g><circle cx="31.613" cy="31.084" fill="none" r="4.027" stroke="#394552" stroke-linecap="round" stroke-miterlimit="10" stroke-width="2.5"/><path d="M49.65,46.192     c0,2.226-1.805,4.028-4.029,4.028c-2.221,0-4.026-1.803-4.026-4.028c0-2.223,1.806-4.026,4.026-4.026     C47.846,42.166,49.65,43.97,49.65,46.192z" fill="none" stroke="#394552" stroke-linecap="round" stroke-miterlimit="10" stroke-width="2.5"/></g></g><g><g><path d="M54.983,22.29     c9.049,9.048,9.049,23.716,0,32.764c-9.048,9.048-23.715,9.048-32.763-0.001c-9.047-9.045-9.049-23.714,0-32.762     C31.269,13.243,45.938,13.244,54.983,22.29z" fill="none" stroke="#394552" stroke-miterlimit="10" stroke-width="2.5"/><path d="M57.136,52.562l11.62,11.62     c1.143,1.143,1.064,3.092-0.172,4.331c-1.24,1.239-3.189,1.317-4.332,0.174l-8.312-8.312" fill="none" stroke="#394552" stroke-miterlimit="10" stroke-width="2.5"/></g></g></g></svg>