<?xml version="1.0" ?><!DOCTYPE svg  PUBLIC '-//W3C//DTD SVG 1.1//EN'  'http://www.w3.org/Graphics/SVG/1.1/DTD/svg11.dtd'><svg enable-background="new 0 0 85 85" height="85px" id="Layer_1" version="1.1" viewBox="0 0 85 85" width="85px" xml:space="preserve" xmlns="http://www.w3.org/2000/svg" xmlns:xlink="http://www.w3.org/1999/xlink"><g><g><line fill="none" stroke="#394552" stroke-linecap="round" stroke-miterlimit="10" stroke-width="2.5" x1="62.021" x2="45.687" y1="30.646" y2="54.354"/><g><circle cx="45.891" cy="33.913" fill="none" r="4.577" stroke="#394552" stroke-linecap="round" stroke-miterlimit="10" stroke-width="2.5"/><path d="M66.395,51.086     c0,2.531-2.052,4.58-4.579,4.58c-2.525,0-4.578-2.049-4.578-4.58c0-2.525,2.053-4.574,4.578-4.574     C64.343,46.512,66.395,48.561,66.395,51.086z" fill="none" stroke="#394552" stroke-linecap="round" stroke-miterlimit="10" stroke-width="2.5"/></g></g><g><g><path d="M28.825,34.295     c1.244-3.808,3.381-7.388,6.408-10.416c10.283-10.285,26.959-10.284,37.24-0.001c10.285,10.284,10.285,26.959,0,37.243     c-10.285,10.285-26.957,10.283-37.24-0.002c-3.303-3.301-5.545-7.264-6.726-11.459" fill="none" stroke="#394552" stroke-miterlimit="10" stroke-width="2.5"/><path d="M27.659,45.209     c-0.22-2.135-0.179-4.294,0.122-6.422" fill="none" stroke="#394552" stroke-miterlimit="10" stroke-width="2.5"/></g></g><path d="M35.036,38.708" fill="none" stroke="#394552" stroke-linejoin="round" stroke-miterlimit="10" stroke-width="2.5"/><line fill="none" stroke="#394552" stroke-linecap="round" stroke-linejoin="round" stroke-miterlimit="10" stroke-width="2.5" x1="36.111" x2="16.917" y1="49.494" y2="49.494"/><line fill="none" stroke="#394552" stroke-linecap="round" stroke-linejoin="round" stroke-miterlimit="10" stroke-width="2.5" x1="25.806" x2="19.102" y1="56.695" y2="56.695"/><line fill="none" stroke="#394552" stroke-linecap="round" stroke-linejoin="round" stroke-miterlimit="10" stroke-width="2.5" x1="24.892" x2="12.434" y1="28.304" y2="28.304"/><line fill="none" stroke="#394552" stroke-linecap="round" stroke-linejoin="round" stroke-miterlimit="10" stroke-width="2.5" x1="34.731" x2="22.379" y1="38.708" y2="38.708"/><g><line fill="none" stroke="#394552" stroke-linecap="round" stroke-linejoin="round" stroke-miterlimit="10" stroke-width="2.5" x1="14.102" x2="9.378" y1="56.695" y2="56.695"/></g><line fill="none" stroke="#394552" stroke-linecap="round" stroke-linejoin="round" stroke-miterlimit="10" stroke-width="2.5" x1="17.379" x2="12.655" y1="38.708" y2="38.708"/><line fill="none" stroke="#394552" stroke-linecap="round" stroke-linejoin="round" stroke-miterlimit="10" stroke-width="2.5" x1="7.655" x2="4.812" y1="38.708" y2="38.708"/></g></svg>