<?xml version="1.0" ?><!DOCTYPE svg  PUBLIC '-//W3C//DTD SVG 1.1//EN'  'http://www.w3.org/Graphics/SVG/1.1/DTD/svg11.dtd'><svg enable-background="new 0 0 85 85" height="85px" id="Layer_1" version="1.1" viewBox="0 0 85 85" width="85px" xml:space="preserve" xmlns="http://www.w3.org/2000/svg" xmlns:xlink="http://www.w3.org/1999/xlink"><g><g><g><g><path d="      M51.168,38.674c2.111-0.965,4.457-1.502,6.93-1.502c9.215,0,16.688,7.47,16.688,16.687s-7.473,16.688-16.688,16.688      S41.41,63.074,41.41,53.859c0-4.703,1.945-8.951,5.076-11.983" fill="none" stroke="#394552" stroke-linecap="round" stroke-linejoin="round" stroke-miterlimit="10" stroke-width="2.5"/></g></g><line fill="none" stroke="#394552" stroke-linecap="round" stroke-miterlimit="10" stroke-width="2.5" x1="63.803" x2="52.393" y1="45.58" y2="62.139"/><g><circle cx="52.536" cy="47.861" fill="none" r="3.196" stroke="#394552" stroke-linecap="round" stroke-miterlimit="10" stroke-width="2.5"/><path d="M66.855,59.855     c0,1.768-1.432,3.199-3.197,3.199c-1.764,0-3.197-1.432-3.197-3.199c0-1.764,1.434-3.195,3.197-3.195     C65.424,56.66,66.855,58.092,66.855,59.855z" fill="none" stroke="#394552" stroke-linecap="round" stroke-miterlimit="10" stroke-width="2.5"/></g></g><path d="M36.952,49.008H16.093   c-3.234,0-5.879-2.732-5.879-5.965V20.332c0-3.233,2.645-5.878,5.879-5.878h44.071c3.234,0,5.879,2.645,5.879,5.878v13.387" fill="none" stroke="#394552" stroke-miterlimit="10" stroke-width="2.5"/><line fill="none" stroke="#394552" stroke-linejoin="round" stroke-miterlimit="10" stroke-width="2.5" x1="10.472" x2="65.785" y1="22.952" y2="22.952"/><line fill="none" stroke="#394552" stroke-linejoin="round" stroke-miterlimit="10" stroke-width="2.5" x1="10.472" x2="65.785" y1="28.599" y2="28.599"/></g></svg>