<?xml version="1.0" ?><!DOCTYPE svg  PUBLIC '-//W3C//DTD SVG 1.1//EN'  'http://www.w3.org/Graphics/SVG/1.1/DTD/svg11.dtd'><svg enable-background="new 0 0 85 85" height="85px" id="Layer_1" version="1.1" viewBox="0 0 85 85" width="85px" xml:space="preserve" xmlns="http://www.w3.org/2000/svg" xmlns:xlink="http://www.w3.org/1999/xlink"><g><g><path d="    M37.902,48.027c1.971-1.226,4.229-2.057,6.682-2.371c9.141-1.172,17.502,5.291,18.674,14.432    c1.171,9.143-5.292,17.502-14.434,18.674c-9.14,1.171-17.501-5.291-18.673-14.432c-0.598-4.666,0.794-9.126,3.513-12.533" fill="none" stroke="#394552" stroke-linecap="round" stroke-linejoin="round" stroke-miterlimit="10" stroke-width="2.5"/></g><line fill="none" stroke="#394552" stroke-linecap="round" stroke-miterlimit="10" stroke-width="2.5" x1="52.409" x2="41" y1="53.93" y2="70.487"/><circle cx="41.143" cy="56.211" fill="none" r="3.197" stroke="#394552" stroke-linecap="round" stroke-miterlimit="10" stroke-width="2.5"/><path d="M55.463,68.205   c0,1.767-1.433,3.199-3.198,3.199c-1.764,0-3.197-1.433-3.197-3.199c0-1.764,1.434-3.195,3.197-3.195   C54.03,65.01,55.463,66.441,55.463,68.205z" fill="none" stroke="#394552" stroke-linecap="round" stroke-miterlimit="10" stroke-width="2.5"/><path d="M43.023,36.146   c0,3.451-6.044,6.25-13.5,6.25s-13.5-2.799-13.5-6.25" fill="none" stroke="#394552" stroke-linejoin="round" stroke-miterlimit="10" stroke-width="2.5"/><path d="M16.022,43.896   c0,3.354,5.705,6.091,12.868,6.243c0.209,0.005,0.42,0.007,0.632,0.007" fill="none" stroke="#394552" stroke-linejoin="round" stroke-miterlimit="10" stroke-width="2.5"/><path d="M26.517,57.742   c-6.01-0.631-10.48-3.121-10.48-6.097" fill="none" stroke="#394552" stroke-linejoin="round" stroke-miterlimit="10" stroke-width="2.5"/><path d="M29.523,65.707   c-0.932,0-1.842-0.044-2.721-0.127c-6.152-0.582-10.779-3.103-10.779-6.123V34.342" fill="none" stroke="#394552" stroke-linejoin="round" stroke-miterlimit="10" stroke-width="2.5"/><line fill="none" stroke="#394552" stroke-linejoin="round" stroke-miterlimit="10" stroke-width="2.5" x1="43.023" x2="43.023" y1="28.426" y2="42.334"/><ellipse cx="29.523" cy="28.437" fill="none" rx="13.5" ry="6.25" stroke="#394552" stroke-linejoin="round" stroke-miterlimit="10" stroke-width="2.5"/><g><line fill="none" stroke="#394552" stroke-linecap="round" stroke-linejoin="round" stroke-miterlimit="10" stroke-width="2.5" x1="62.352" x2="62.352" y1="31.619" y2="38.343"/><line fill="none" stroke="#394552" stroke-linecap="round" stroke-linejoin="round" stroke-miterlimit="10" stroke-width="2.5" x1="62.352" x2="62.352" y1="43.343" y2="45.474"/><line fill="none" stroke="#394552" stroke-linecap="round" stroke-linejoin="round" stroke-miterlimit="10" stroke-width="2.5" x1="50.812" x2="50.812" y1="36.032" y2="39.875"/><path d="M62.352,26.629v-6.421l5.372,0.002    c0.66-0.001,0.974-0.518,1.101-0.822c0.268-0.652,0.176-1.474-0.217-1.867L57.746,6.667c-0.76-0.756-1.992-0.756-2.744,0.001    L44.19,17.521c-0.419,0.421-0.548,1.229-0.29,1.85c0.227,0.542,0.697,0.84,1.323,0.841l5.589-0.002v10.799" fill="none" stroke="#394552" stroke-linecap="round" stroke-width="2.5"/></g></g></svg>