<?xml version="1.0" ?><!DOCTYPE svg  PUBLIC '-//W3C//DTD SVG 1.1//EN'  'http://www.w3.org/Graphics/SVG/1.1/DTD/svg11.dtd'><svg enable-background="new 0 0 85 85" height="85px" id="Layer_1" version="1.1" viewBox="0 0 85 85" width="85px" xml:space="preserve" xmlns="http://www.w3.org/2000/svg" xmlns:xlink="http://www.w3.org/1999/xlink"><g><g><g><g><path d="      M52.473,16.968c2.11-0.965,4.457-1.502,6.928-1.502c9.217,0,16.688,7.472,16.688,16.688c0,9.217-7.473,16.688-16.688,16.688      c-9.215,0-16.693-7.473-16.693-16.689c0-4.703,1.953-8.951,5.082-11.984" fill="none" stroke="#394552" stroke-linecap="round" stroke-linejoin="round" stroke-miterlimit="10" stroke-width="2.5"/></g></g><line fill="none" stroke="#394552" stroke-linecap="round" stroke-miterlimit="10" stroke-width="2.5" x1="65.104" x2="53.695" y1="23.875" y2="40.432"/><g><circle cx="53.839" cy="26.156" fill="none" r="3.197" stroke="#394552" stroke-linecap="round" stroke-miterlimit="10" stroke-width="2.5"/><circle cx="64.961" cy="38.15" fill="none" r="3.198" stroke="#394552" stroke-linecap="round" stroke-miterlimit="10" stroke-width="2.5"/></g></g><g><g><g><circle cx="23.081" cy="53.457" fill="#394552" r="2.023"/><circle cx="51.398" cy="53.457" fill="#394552" r="2.023"/></g><polyline fill="none" points="65.575,52.057 65.575,69.535      8.91,69.535 8.91,37.38 38.905,37.38    " stroke="#394552" stroke-miterlimit="10" stroke-width="2.5"/><path d="M41.228,43.361H18.916     c0,2.24-1.817,4.057-4.057,4.057v12.08c2.239,0,4.057,1.816,4.057,4.057h36.648c0-2.24,1.816-4.057,4.06-4.057v-6.307" fill="none" stroke="#394552" stroke-miterlimit="10" stroke-width="2.5"/><path d="M42.22,53.457c0,2.959-2.23,5.359-4.979,5.359     c-2.75,0-4.979-2.4-4.979-5.359c0-2.957,2.229-5.355,4.979-5.355C39.989,48.102,42.22,50.5,42.22,53.457z" fill="none" stroke="#394552" stroke-miterlimit="10" stroke-width="2.5"/></g></g></g></svg>