<?xml version="1.0" ?><!DOCTYPE svg  PUBLIC '-//W3C//DTD SVG 1.1//EN'  'http://www.w3.org/Graphics/SVG/1.1/DTD/svg11.dtd'><svg enable-background="new 0 0 85 85" height="85px" id="Layer_1" version="1.1" viewBox="0 0 85 85" width="85px" xml:space="preserve" xmlns="http://www.w3.org/2000/svg" xmlns:xlink="http://www.w3.org/1999/xlink"><g><g><line fill="none" stroke="#394552" stroke-linecap="round" stroke-miterlimit="10" stroke-width="2.5" x1="49.807" x2="35.196" y1="31.899" y2="53.102"/><g><circle cx="35.633" cy="35.076" fill="none" r="3.898" stroke="#394552" stroke-linecap="round" stroke-miterlimit="10" stroke-width="2.5"/><path d="M53.267,49.922     c0,2.154-1.748,3.902-3.902,3.902c-2.15,0-3.897-1.748-3.897-3.902c0-2.152,1.747-3.898,3.897-3.898     C51.519,46.023,53.267,47.77,53.267,49.922z" fill="none" stroke="#394552" stroke-linecap="round" stroke-miterlimit="10" stroke-width="2.5"/></g></g><g><path d="M12.617,45.139" fill="none" stroke="#394552" stroke-miterlimit="10" stroke-width="2.5"/><g><path d="M26.988,16.81     c-8.685,5.264-14.49,14.813-14.49,25.705H7.644l8.815,13.619l8.826-13.619h-5.037c0-12.288,9.966-22.278,22.254-22.278     c7.545,0,14.213,3.756,18.237,9.499" fill="none" stroke="#394552" stroke-linejoin="round" stroke-miterlimit="10" stroke-width="2.5"/><path d="M44.412,12.546     c-0.632-0.04-1.269-0.06-1.91-0.06c-4.386,0-8.553,0.943-12.309,2.638" fill="none" stroke="#394552" stroke-linejoin="round" stroke-miterlimit="10" stroke-width="2.5"/><path d="M56.804,16.107     c-2.62-1.423-5.476-2.467-8.493-3.059" fill="none" stroke="#394552" stroke-linejoin="round" stroke-miterlimit="10" stroke-width="2.5"/><path d="M64.758,22.369     c-1.507-1.666-3.197-3.161-5.04-4.455" fill="none" stroke="#394552" stroke-linejoin="round" stroke-miterlimit="10" stroke-width="2.5"/></g><g><path d="M58.012,68.189     c8.685-5.264,14.49-14.812,14.49-25.705h4.854l-8.815-13.618l-8.826,13.618h5.037c0,12.289-9.966,22.279-22.254,22.279     c-7.545,0-14.213-3.756-18.237-9.5" fill="none" stroke="#394552" stroke-linejoin="round" stroke-miterlimit="10" stroke-width="2.5"/><path d="M40.588,72.453     c0.632,0.039,1.269,0.061,1.91,0.061c4.386,0,8.553-0.943,12.309-2.637" fill="none" stroke="#394552" stroke-linejoin="round" stroke-miterlimit="10" stroke-width="2.5"/><path d="M28.196,68.893     c2.62,1.422,5.476,2.467,8.493,3.059" fill="none" stroke="#394552" stroke-linejoin="round" stroke-miterlimit="10" stroke-width="2.5"/><path d="M20.242,62.629     c1.507,1.666,3.197,3.162,5.04,4.457" fill="none" stroke="#394552" stroke-linejoin="round" stroke-miterlimit="10" stroke-width="2.5"/></g></g></g></svg>