<?xml version="1.0" ?><!DOCTYPE svg  PUBLIC '-//W3C//DTD SVG 1.1//EN'  'http://www.w3.org/Graphics/SVG/1.1/DTD/svg11.dtd'><svg enable-background="new 0 0 85 85" height="85px" id="Layer_1" version="1.1" viewBox="0 0 85 85" width="85px" xml:space="preserve" xmlns="http://www.w3.org/2000/svg" xmlns:xlink="http://www.w3.org/1999/xlink"><g><g><g><path d="     M51.377,39.734c1.971-1.225,4.229-2.057,6.682-2.37c9.141-1.172,17.502,5.291,18.674,14.431     c1.17,9.143-5.293,17.502-14.434,18.674c-9.141,1.171-17.502-5.291-18.674-14.432c-0.598-4.666,0.795-9.126,3.514-12.533" fill="none" stroke="#394552" stroke-linecap="round" stroke-linejoin="round" stroke-miterlimit="10" stroke-width="2.5"/></g></g><line fill="none" stroke="#394552" stroke-linecap="round" stroke-miterlimit="10" stroke-width="2.5" x1="65.883" x2="54.475" y1="45.637" y2="62.194"/><g><circle cx="54.617" cy="47.918" fill="none" r="3.197" stroke="#394552" stroke-linecap="round" stroke-miterlimit="10" stroke-width="2.5"/><path d="M68.938,59.912    c0,1.767-1.434,3.199-3.199,3.199c-1.764,0-3.197-1.433-3.197-3.199c0-1.764,1.434-3.195,3.197-3.195    C67.504,56.717,68.938,58.148,68.938,59.912z" fill="none" stroke="#394552" stroke-linecap="round" stroke-miterlimit="10" stroke-width="2.5"/></g><g><line fill="none" stroke="#394552" stroke-linecap="round" stroke-linejoin="round" stroke-miterlimit="10" stroke-width="2.5" x1="56.455" x2="56.455" y1="37.182" y2="21.048"/><ellipse cx="21.63" cy="36.419" fill="none" rx="13.5" ry="6.25" stroke="#394552" stroke-linejoin="round" stroke-miterlimit="10" stroke-width="2.5"/><path d="M8.13,44.17    c0,3.451,6.044,6.25,13.5,6.25s13.5-2.799,13.5-6.25" fill="none" stroke="#394552" stroke-linejoin="round" stroke-miterlimit="10" stroke-width="2.5"/><path d="M35.13,51.92    c0,3.451-6.044,6.25-13.5,6.25S8.159,55.371,8.159,51.92" fill="none" stroke="#394552" stroke-linejoin="round" stroke-miterlimit="10" stroke-width="2.5"/><line fill="none" stroke="#394552" stroke-linejoin="round" stroke-miterlimit="10" stroke-width="2.5" x1="29.456" x2="29.456" y1="20.465" y2="27.176"/><path d="M35.13,36.523V59.73    c0,3.453-6.044,6.25-13.5,6.25s-13.5-2.797-13.5-6.25V42.805" fill="none" stroke="#394552" stroke-linejoin="round" stroke-miterlimit="10" stroke-width="2.5"/></g><path d="M40.111,57.654   c-1.771-0.176-3.415-0.512-4.854-0.975" fill="none" stroke="#394552" stroke-linejoin="round" stroke-miterlimit="10" stroke-width="2.5"/><path d="M39.49,49.861   c-1.656-0.203-3.188-0.549-4.53-1.006" fill="none" stroke="#394552" stroke-linejoin="round" stroke-miterlimit="10" stroke-width="2.5"/><path d="M42.232,42.336   c-2.642-0.065-5.083-0.481-7.109-1.15" fill="none" stroke="#394552" stroke-linejoin="round" stroke-miterlimit="10" stroke-width="2.5"/><path d="M56.455,28.369   c0,3.452-6.045,6.25-13.5,6.25c-1.318,0-2.591-0.087-3.795-0.25" fill="none" stroke="#394552" stroke-linejoin="round" stroke-miterlimit="10" stroke-width="2.5"/><ellipse cx="42.955" cy="20.644" fill="none" rx="13.5" ry="6.25" stroke="#394552" stroke-linejoin="round" stroke-miterlimit="10" stroke-width="2.5"/></g></svg>