<?xml version="1.0" ?><!DOCTYPE svg  PUBLIC '-//W3C//DTD SVG 1.1//EN'  'http://www.w3.org/Graphics/SVG/1.1/DTD/svg11.dtd'><svg enable-background="new 0 0 85 85" height="85px" id="Layer_1" version="1.1" viewBox="0 0 85 85" width="85px" xml:space="preserve" xmlns="http://www.w3.org/2000/svg" xmlns:xlink="http://www.w3.org/1999/xlink"><g><g><g><g><path d="      M52.506,38.467c2.111-0.965,4.457-1.502,6.929-1.502c9.216,0,16.688,7.472,16.688,16.688c0,9.217-7.473,16.688-16.688,16.688      c-9.215,0-16.688-7.472-16.688-16.688c0-4.703,1.946-8.951,5.076-11.984" fill="none" stroke="#394552" stroke-linecap="round" stroke-linejoin="round" stroke-miterlimit="10" stroke-width="2.5"/></g></g><line fill="none" stroke="#394552" stroke-linecap="round" stroke-miterlimit="10" stroke-width="2.5" x1="65.14" x2="53.73" y1="45.374" y2="61.932"/><g><circle cx="53.874" cy="47.655" fill="none" r="3.197" stroke="#394552" stroke-linecap="round" stroke-miterlimit="10" stroke-width="2.5"/><circle cx="64.996" cy="59.649" fill="none" r="3.198" stroke="#394552" stroke-linecap="round" stroke-miterlimit="10" stroke-width="2.5"/></g></g><g><g><line fill="none" stroke="#394552" stroke-linecap="round" stroke-linejoin="round" stroke-miterlimit="10" stroke-width="2.5" x1="33.924" x2="33.924" y1="15.408" y2="21.608"/><line fill="none" stroke="#394552" stroke-linecap="round" stroke-linejoin="round" stroke-miterlimit="10" stroke-width="2.5" x1="33.925" x2="33.925" y1="57.792" y2="63.992"/></g><g><line fill="none" stroke="#394552" stroke-linecap="round" stroke-linejoin="round" stroke-miterlimit="10" stroke-width="2.5" x1="15.699" x2="9.499" y1="39.701" y2="39.701"/><path d="M40.148,63.962     c-1.99,0.509-4.077,0.779-6.229,0.779c-13.831,0-25.043-11.211-25.043-25.04c0-13.831,11.212-25.042,25.043-25.042     c11.232,0,20.734,7.386,23.914,17.562" fill="none" stroke="#394552" stroke-miterlimit="10" stroke-width="2.5"/></g><polyline fill="none" points="46.9,29.185 33.984,42.099     25.562,34.138   " stroke="#394552" stroke-miterlimit="10" stroke-width="2.5"/></g></g></svg>