<?xml version="1.0" ?><!DOCTYPE svg  PUBLIC '-//W3C//DTD SVG 1.1//EN'  'http://www.w3.org/Graphics/SVG/1.1/DTD/svg11.dtd'><svg enable-background="new 0 0 85 85" height="85px" id="Layer_1" version="1.1" viewBox="0 0 85 85" width="85px" xml:space="preserve" xmlns="http://www.w3.org/2000/svg" xmlns:xlink="http://www.w3.org/1999/xlink"><g><g><path d="M57.537,30.242    c-3.648,0.918-10.797,0.672-19.886-4.848c-9.088-5.52-14.994-12.412-13.181-15.392c1.644-2.703,9.06-1.262,17.208,3.146" fill="none" stroke="#394552" stroke-linecap="round" stroke-miterlimit="10" stroke-width="2.5"/><path d="    M55.191,26.841c1.889-1.89,4.955-1.891,6.848,0c1.891,1.894,1.891,4.958,0,6.849c-1.727,1.727-4.434,1.878-6.33,0.452" fill="none" stroke="#394552" stroke-linecap="round" stroke-linejoin="round" stroke-miterlimit="10" stroke-width="2.5"/><polyline fill="none" points="36.7,25.005     12.462,49.242 39.585,76.363 72.537,43.41 72.262,27.026 61.801,16.566 45.416,16.29 40.178,21.528   " stroke="#394552" stroke-linejoin="round" stroke-miterlimit="10" stroke-width="2.5"/><g><line fill="none" stroke="#394552" stroke-linecap="round" stroke-miterlimit="10" stroke-width="2.5" x1="52.322" x2="28.542" y1="46.207" y2="50.58"/><g><circle cx="40.63" cy="39.514" fill="none" r="3.371" stroke="#394552" stroke-linecap="round" stroke-miterlimit="10" stroke-width="2.5"/><circle cx="40.231" cy="57.271" fill="none" r="3.376" stroke="#394552" stroke-linecap="round" stroke-miterlimit="10" stroke-width="2.5"/></g></g></g></g></svg>