<?xml version="1.0" ?><!DOCTYPE svg  PUBLIC '-//W3C//DTD SVG 1.1//EN'  'http://www.w3.org/Graphics/SVG/1.1/DTD/svg11.dtd'><svg enable-background="new 0 0 85 85" height="85px" id="Layer_1" version="1.1" viewBox="0 0 85 85" width="85px" xml:space="preserve" xmlns="http://www.w3.org/2000/svg" xmlns:xlink="http://www.w3.org/1999/xlink"><g><g><path d="M67.684,58.426    l-6.469,12.073l-6.07-12.502V33.968c0-1.325,1.496-2.41,3.322-2.415l5.891,0.001c1.828,0.001,3.326,1.086,3.325,2.414    L67.684,58.426z" fill="none" stroke="#394552" stroke-linejoin="round" stroke-miterlimit="10" stroke-width="2.5"/><line fill="none" stroke="#394552" stroke-linejoin="round" stroke-miterlimit="10" stroke-width="2.5" x1="67.688" x2="55.193" y1="57.367" y2="57.365"/><line fill="none" stroke="#394552" stroke-linejoin="round" stroke-miterlimit="10" stroke-width="2.5" x1="64.803" x2="57.997" y1="63.213" y2="63.17"/><line fill="none" stroke="#394552" stroke-linejoin="round" stroke-miterlimit="10" stroke-width="2.5" x1="61.568" x2="61.568" y1="57.26" y2="43.656"/><line fill="none" stroke="#394552" stroke-linejoin="round" stroke-miterlimit="10" stroke-width="2.5" x1="55.421" x2="67.406" y1="39.126" y2="39.126"/></g><g><g><g><polyline fill="none" points="      55.969,70.499 17.312,70.499 17.312,25.676 28.49,14.5 60.574,14.5 60.574,26.933     " stroke="#394552" stroke-linejoin="round" stroke-miterlimit="10" stroke-width="2.5"/></g><polyline fill="none" points="30.412,19.903 30.412,27.537      22.77,27.537    " stroke="#394552" stroke-miterlimit="10" stroke-width="2.5"/></g><g><line fill="none" stroke="#394552" stroke-linecap="round" stroke-miterlimit="10" stroke-width="2.5" x1="45.812" x2="31.076" y1="37.478" y2="58.864"/><g><circle cx="31.516" cy="40.683" fill="none" r="3.932" stroke="#394552" stroke-linecap="round" stroke-miterlimit="10" stroke-width="2.5"/><circle cx="45.368" cy="55.657" fill="none" r="3.934" stroke="#394552" stroke-linecap="round" stroke-miterlimit="10" stroke-width="2.5"/></g></g></g></g></svg>