<?xml version="1.0" ?><!DOCTYPE svg  PUBLIC '-//W3C//DTD SVG 1.1//EN'  'http://www.w3.org/Graphics/SVG/1.1/DTD/svg11.dtd'><svg enable-background="new 0 0 85 85" height="85px" id="Layer_1" version="1.1" viewBox="0 0 85 85" width="85px" xml:space="preserve" xmlns="http://www.w3.org/2000/svg" xmlns:xlink="http://www.w3.org/1999/xlink"><g><g><g><polyline fill="none" points="     41.653,31.042 35.858,26.104 15.419,44.404 15.419,67.764 30.576,67.764 30.576,54.473 41.143,54.473 41.143,67.764      56.298,67.764 56.298,58.697    " stroke="#394552" stroke-linejoin="round" stroke-miterlimit="10" stroke-width="2.5"/><polyline fill="none" points="6.404,42.878 15.593,34.831      15.594,21.572 21.986,21.572 21.986,29.266 35.776,17.237 44.889,24.952    " stroke="#394552" stroke-miterlimit="10" stroke-width="2.5"/></g></g><g><g><g><path d="      M54.979,22.986c2.111-0.965,4.457-1.502,6.929-1.502c9.216,0,16.688,7.472,16.688,16.688c0,9.217-7.473,16.688-16.688,16.688      c-9.215,0-16.688-7.471-16.688-16.688c0-4.703,1.946-8.951,5.076-11.984" fill="none" stroke="#394552" stroke-linecap="round" stroke-linejoin="round" stroke-miterlimit="10" stroke-width="2.5"/></g></g><line fill="none" stroke="#394552" stroke-linecap="round" stroke-miterlimit="10" stroke-width="2.5" x1="67.612" x2="56.203" y1="29.893" y2="46.451"/><g><circle cx="56.346" cy="32.175" fill="none" r="3.197" stroke="#394552" stroke-linecap="round" stroke-miterlimit="10" stroke-width="2.5"/><circle cx="67.468" cy="44.17" fill="none" r="3.198" stroke="#394552" stroke-linecap="round" stroke-miterlimit="10" stroke-width="2.5"/></g></g></g></svg>