<?xml version="1.0" ?><!DOCTYPE svg  PUBLIC '-//W3C//DTD SVG 1.1//EN'  'http://www.w3.org/Graphics/SVG/1.1/DTD/svg11.dtd'><svg enable-background="new 0 0 85 85" height="85px" id="Layer_1" version="1.1" viewBox="0 0 85 85" width="85px" xml:space="preserve" xmlns="http://www.w3.org/2000/svg" xmlns:xlink="http://www.w3.org/1999/xlink"><g><g><g><g><path d="      M35.57,11.739c2.111-0.965,4.457-1.502,6.929-1.502c9.216,0,16.688,7.472,16.688,16.688c0,9.217-7.473,16.687-16.688,16.687      c-9.215,0.001-16.688-7.471-16.688-16.687c0-4.703,1.946-8.951,5.076-11.984" fill="none" stroke="#394552" stroke-linecap="round" stroke-linejoin="round" stroke-miterlimit="10" stroke-width="2.5"/></g></g><line fill="none" stroke="#394552" stroke-linecap="round" stroke-miterlimit="10" stroke-width="2.5" x1="48.204" x2="36.795" y1="18.646" y2="35.204"/><g><circle cx="36.938" cy="20.928" fill="none" r="3.197" stroke="#394552" stroke-linecap="round" stroke-miterlimit="10" stroke-width="2.5"/><circle cx="48.06" cy="32.922" fill="none" r="3.198" stroke="#394552" stroke-linecap="round" stroke-miterlimit="10" stroke-width="2.5"/></g></g><g><g><g><path d="M64.843,40.592      V27.615c-0.014-2.154,1.389-3.927,3.328-3.939c1.936-0.01,3.531,1.742,3.545,3.896v25.189l-11.549,15.08      c0,0-1.252,1.459-0.881,6.795" fill="none" stroke="#394552" stroke-linejoin="round" stroke-miterlimit="10" stroke-width="2.5"/><path d="M45.468,74.762l0.014-11.703      c0-4.547,5.303-7.627,5.303-7.627c2.4-1.607,5.133-4.408,5.133-4.408l4.525-4.906c1.865-2.022,4.559-2.6,5.984-1.287      c1.428,1.313,1.068,4.041-0.797,6.062l-6.361,6.891" fill="none" stroke="#394552" stroke-miterlimit="10" stroke-width="2.5"/></g><g><path d="M20.158,40.592      l-0.002-12.977c0.014-2.154-1.389-3.927-3.328-3.939c-1.936-0.01-3.531,1.742-3.545,3.896l0.002,25.189l11.547,15.08      c0,0,1.252,1.459,0.881,6.795" fill="none" stroke="#394552" stroke-linejoin="round" stroke-miterlimit="10" stroke-width="2.5"/><path d="M39.532,74.762l-0.014-11.703      c0-4.547-5.304-7.627-5.304-7.627c-2.4-1.607-5.131-4.408-5.131-4.408l-4.527-4.906c-1.863-2.022-4.557-2.6-5.984-1.287      c-1.426,1.313-1.066,4.041,0.799,6.062l6.361,6.891" fill="none" stroke="#394552" stroke-miterlimit="10" stroke-width="2.5"/></g></g></g></g></svg>