<?xml version="1.0" ?><!DOCTYPE svg  PUBLIC '-//W3C//DTD SVG 1.1//EN'  'http://www.w3.org/Graphics/SVG/1.1/DTD/svg11.dtd'><svg enable-background="new 0 0 85 85" height="85px" id="Layer_1" version="1.1" viewBox="0 0 85 85" width="85px" xml:space="preserve" xmlns="http://www.w3.org/2000/svg" xmlns:xlink="http://www.w3.org/1999/xlink"><g><g><path d="    M35.481,47.426c1.971-1.225,4.229-2.057,6.682-2.371c9.142-1.172,17.503,5.291,18.675,14.432    c1.17,9.143-5.293,17.502-14.434,18.674c-9.141,1.172-17.502-5.291-18.674-14.432c-0.598-4.666,0.794-9.125,3.513-12.533" fill="none" stroke="#394552" stroke-linecap="round" stroke-linejoin="round" stroke-miterlimit="10" stroke-width="2.5"/></g><line fill="none" stroke="#394552" stroke-linecap="round" stroke-miterlimit="10" stroke-width="2.5" x1="49.988" x2="38.579" y1="53.328" y2="69.887"/><circle cx="38.722" cy="55.609" fill="none" r="3.197" stroke="#394552" stroke-linecap="round" stroke-miterlimit="10" stroke-width="2.5"/><path d="M53.043,67.604   c0,1.768-1.434,3.199-3.199,3.199c-1.764,0-3.197-1.432-3.197-3.199c0-1.764,1.434-3.195,3.197-3.195   C51.609,64.408,53.043,65.84,53.043,67.604z" fill="none" stroke="#394552" stroke-linecap="round" stroke-miterlimit="10" stroke-width="2.5"/><path d="M40.602,35.545   c0,3.451-6.044,6.25-13.5,6.25s-13.5-2.799-13.5-6.25" fill="none" stroke="#394552" stroke-linejoin="round" stroke-miterlimit="10" stroke-width="2.5"/><path d="M13.601,43.295   c0,3.354,5.705,6.09,12.868,6.242c0.209,0.006,0.42,0.008,0.632,0.008" fill="none" stroke="#394552" stroke-linejoin="round" stroke-miterlimit="10" stroke-width="2.5"/><path d="M24.095,57.141   c-6.01-0.631-10.48-3.121-10.48-6.096" fill="none" stroke="#394552" stroke-linejoin="round" stroke-miterlimit="10" stroke-width="2.5"/><path d="M27.102,65.105   c-0.932,0-1.842-0.043-2.721-0.127c-6.152-0.582-10.779-3.102-10.779-6.123V33.742" fill="none" stroke="#394552" stroke-linejoin="round" stroke-miterlimit="10" stroke-width="2.5"/><line fill="none" stroke="#394552" stroke-linejoin="round" stroke-miterlimit="10" stroke-width="2.5" x1="40.602" x2="40.602" y1="27.825" y2="41.733"/><ellipse cx="27.102" cy="27.836" fill="none" rx="13.5" ry="6.25" stroke="#394552" stroke-linejoin="round" stroke-miterlimit="10" stroke-width="2.5"/><g><line fill="none" stroke="#394552" stroke-linecap="round" stroke-linejoin="round" stroke-miterlimit="10" stroke-width="2.5" x1="52.816" x2="52.816" y1="19.156" y2="13.833"/><line fill="none" stroke="#394552" stroke-linecap="round" stroke-linejoin="round" stroke-miterlimit="10" stroke-width="2.5" x1="52.816" x2="52.816" y1="8.833" y2="6.703"/><line fill="none" stroke="#394552" stroke-linecap="round" stroke-linejoin="round" stroke-miterlimit="10" stroke-width="2.5" x1="64.355" x2="64.355" y1="15.544" y2="11.7"/><path d="M52.816,24.146v5.62l-5.373-0.002    c-0.66,0.001-0.973,0.518-1.1,0.822c-0.268,0.652-0.176,1.474,0.217,1.867l10.861,10.853c0.76,0.756,1.992,0.756,2.744-0.002    l10.811-10.851c0.42-0.421,0.549-1.229,0.291-1.85c-0.227-0.542-0.697-0.84-1.324-0.841l-5.588,0.002v-9.198" fill="none" stroke="#394552" stroke-linecap="round" stroke-width="2.5"/></g></g></svg>