<?xml version="1.0" ?><!DOCTYPE svg  PUBLIC '-//W3C//DTD SVG 1.1//EN'  'http://www.w3.org/Graphics/SVG/1.1/DTD/svg11.dtd'><svg enable-background="new 0 0 85 85" height="85px" id="Layer_1" version="1.1" viewBox="0 0 85 85" width="85px" xml:space="preserve" xmlns="http://www.w3.org/2000/svg" xmlns:xlink="http://www.w3.org/1999/xlink"><g><g><g><path d="     M34.537,18.55c-2.887,0.524-5.969,1.577-9.162,3.389c0,0-8.833,3.822-6.965,16.051c0,0,0.378,3.42-0.704,5.017l-5.851,6.877     c0,0-0.777,2.045,1.56,2.24l3.565,0.734c0,0,1.49,2.908,1.639,5.145c0.15,2.238-0.372,4.996-0.372,4.996s-1.267,3.355,0.723,4.83     c0.392,0.098,1.853,1.756,12.269-0.484c0,0,1.193,1.096,1.831,6.537" fill="none" stroke="#394552" stroke-linecap="round" stroke-linejoin="round" stroke-miterlimit="10" stroke-width="2.5"/><path d="     M55.559,73.965c-0.462-2.697-1.318-7.703-1.056-11.977c0,0,1.284-5.787,3.856-10.203" fill="none" stroke="#394552" stroke-linecap="round" stroke-linejoin="round" stroke-miterlimit="10" stroke-width="2.5"/><line fill="none" stroke="#394552" stroke-linecap="round" stroke-linejoin="round" stroke-miterlimit="10" stroke-width="2.5" x1="19.068" x2="23.543" y1="58.152" y2="58.227"/></g></g><g><g><path d="     M47.883,12.648c2.269-1.036,4.79-1.614,7.447-1.614c9.906,0,17.938,8.031,17.938,17.938c0,9.907-8.032,17.937-17.938,17.937     c-9.905,0-17.938-8.03-17.938-17.937c0-5.055,2.092-9.621,5.456-12.882" fill="none" stroke="#394552" stroke-linecap="round" stroke-linejoin="round" stroke-miterlimit="10" stroke-width="2.5"/></g></g><line fill="none" stroke="#394552" stroke-linecap="round" stroke-miterlimit="10" stroke-width="2.5" x1="61.479" x2="49.216" y1="20.087" y2="37.885"/><g><circle cx="49.582" cy="22.754" fill="none" r="3.272" stroke="#394552" stroke-linecap="round" stroke-miterlimit="10" stroke-width="2.5"/><circle cx="61.109" cy="35.216" fill="none" r="3.273" stroke="#394552" stroke-linecap="round" stroke-miterlimit="10" stroke-width="2.5"/></g></g></svg>