<?xml version="1.0" ?><!DOCTYPE svg  PUBLIC '-//W3C//DTD SVG 1.1//EN'  'http://www.w3.org/Graphics/SVG/1.1/DTD/svg11.dtd'><svg enable-background="new 0 0 85 85" height="85px" id="Layer_1" version="1.1" viewBox="0 0 85 85" width="85px" xml:space="preserve" xmlns="http://www.w3.org/2000/svg" xmlns:xlink="http://www.w3.org/1999/xlink"><g><g><g><g><path d="      M54.461,13.776c2.111-0.965,4.457-1.502,6.93-1.502c9.215,0,16.688,7.472,16.688,16.688c0,9.217-7.474,16.687-16.688,16.687      c-9.215,0.002-16.688-7.471-16.688-16.687c0-4.703,1.945-8.951,5.076-11.984" fill="none" stroke="#394552" stroke-linecap="round" stroke-linejoin="round" stroke-miterlimit="10" stroke-width="2.5"/></g></g><line fill="none" stroke="#394552" stroke-linecap="round" stroke-miterlimit="10" stroke-width="2.5" x1="67.096" x2="55.686" y1="20.684" y2="37.241"/><g><circle cx="55.829" cy="22.965" fill="none" r="3.196" stroke="#394552" stroke-linecap="round" stroke-miterlimit="10" stroke-width="2.5"/><circle cx="66.951" cy="34.959" fill="none" r="3.197" stroke="#394552" stroke-linecap="round" stroke-miterlimit="10" stroke-width="2.5"/></g></g><g><g><g><g><path d="M41.184,20.963       h-2.711c-1.412,0-2.824,0.134-4.166,0.338c0,0-3.957-5.973-8.686-5.973v8.854c-3.795,2.099-6.896,5.135-9,8.729       c0,0-0.146,0.187-0.42,0.35c-0.223,0.132-3.959,1.532-8.185,0.077c-3.469-1.192,2.416,18.867,2.416,18.867l5.248-0.001       c2.352,4.876,6.572,8.95,11.83,11.305c0.025,0.011,0.139,0.066,0.139,0.066v7.112c0,1.094,0.895,2.035,1.988,2.035h4.348       c1.094,0,1.988-0.941,1.988-2.035v-4.975c0.809,0.073,1.668,0.111,2.5,0.111h3.836c0.832,0,1.722-0.038,2.533-0.111v4.975       c0,1.094,0.895,2.035,1.988,2.035h4.35c1.092,0,1.986-0.941,1.986-2.035v-7.156c6.176-2.748,10.953-7.747,12.957-13.792" fill="none" stroke="#394552" stroke-linejoin="round" stroke-miterlimit="10" stroke-width="2.5"/><circle cx="26.551" cy="33.033" fill="#394552" r="2.023"/></g></g></g></g></g></svg>