<?xml version="1.0" ?><!DOCTYPE svg  PUBLIC '-//W3C//DTD SVG 1.1//EN'  'http://www.w3.org/Graphics/SVG/1.1/DTD/svg11.dtd'><svg enable-background="new 0 0 85 85" height="85px" id="Layer_1" version="1.1" viewBox="0 0 85 85" width="85px" xml:space="preserve" xmlns="http://www.w3.org/2000/svg" xmlns:xlink="http://www.w3.org/1999/xlink"><g><g><g><line fill="none" stroke="#394552" stroke-linecap="round" stroke-linejoin="round" stroke-miterlimit="10" stroke-width="2.5" x1="29.271" x2="29.271" y1="34.12" y2="37.963"/><path d="M40.811,27.897v-8l5.371,0.002     c0.66-0.001,0.975-0.518,1.102-0.822c0.268-0.652,0.176-1.474-0.217-1.867L36.205,6.356c-0.76-0.756-1.992-0.756-2.744,0.001     L22.649,17.21c-0.419,0.421-0.548,1.229-0.29,1.85c0.227,0.542,0.697,0.84,1.323,0.841l5.589-0.002v9.198" fill="none" stroke="#394552" stroke-linecap="round" stroke-width="2.5"/></g></g><g><g><line fill="none" stroke="#394552" stroke-linecap="round" stroke-linejoin="round" stroke-miterlimit="10" stroke-width="2.5" x1="61.199" x2="61.199" y1="58.688" y2="61.551"/><line fill="none" stroke="#394552" stroke-linecap="round" stroke-linejoin="round" stroke-miterlimit="10" stroke-width="2.5" x1="45.695" x2="45.695" y1="64.506" y2="67.119"/><line fill="none" stroke="#394552" stroke-linecap="round" stroke-linejoin="round" stroke-miterlimit="10" stroke-width="2.5" x1="45.695" x2="45.695" y1="54.854" y2="59.537"/><path d="M61.199,53.9V42.547l7.219,0.002     c0.887-0.001,1.307-0.695,1.479-1.105c0.359-0.876,0.236-1.98-0.291-2.509L55.01,24.353c-1.02-1.016-2.676-1.016-3.686,0.001     L36.798,38.936c-0.563,0.565-0.736,1.652-0.39,2.485c0.305,0.729,0.938,1.128,1.778,1.13l7.509-0.003v7.706" fill="none" stroke="#394552" stroke-linecap="round" stroke-width="2.5"/></g></g><g><line fill="none" stroke="#394552" stroke-linecap="round" stroke-miterlimit="10" stroke-width="2.5" x1="19.161" x2="35.083" y1="70.115" y2="47.008"/><g><path d="M30.422,66.93     c0-2.463,1.998-4.465,4.46-4.465c2.465,0,4.462,2.002,4.462,4.465c0,2.465-1.997,4.465-4.462,4.465     C32.42,71.395,30.422,69.395,30.422,66.93z" fill="none" stroke="#394552" stroke-linecap="round" stroke-miterlimit="10" stroke-width="2.5"/><path d="M14.899,50.191     c0-2.465,2-4.463,4.463-4.463c2.461,0,4.462,1.998,4.462,4.463c0,2.463-2,4.461-4.462,4.461     C16.899,54.652,14.899,52.654,14.899,50.191z" fill="none" stroke="#394552" stroke-linecap="round" stroke-miterlimit="10" stroke-width="2.5"/></g></g><g><line fill="none" stroke="#394552" stroke-linecap="round" stroke-linejoin="round" stroke-miterlimit="10" stroke-width="2.5" x1="53.164" x2="53.164" y1="47.896" y2="60.799"/><line fill="none" stroke="#394552" stroke-linecap="round" stroke-linejoin="round" stroke-miterlimit="10" stroke-width="2.5" x1="53.164" x2="53.164" y1="65.77" y2="72.197"/><line fill="none" stroke="#394552" stroke-linecap="round" stroke-linejoin="round" stroke-miterlimit="10" stroke-width="2.5" x1="53.164" x2="53.164" y1="77.168" y2="79.211"/></g></g></svg>