<?xml version="1.0" ?><!DOCTYPE svg  PUBLIC '-//W3C//DTD SVG 1.1//EN'  'http://www.w3.org/Graphics/SVG/1.1/DTD/svg11.dtd'><svg enable-background="new 0 0 85 85" height="85px" id="Layer_1" version="1.1" viewBox="0 0 85 85" width="85px" xml:space="preserve" xmlns="http://www.w3.org/2000/svg" xmlns:xlink="http://www.w3.org/1999/xlink"><g><polyline fill="none" points="41.335,70.498    12.245,70.498 12.245,25.676 23.423,14.501 55.507,14.501 55.507,28.835  " stroke="#394552" stroke-linejoin="round" stroke-miterlimit="10" stroke-width="2.5"/><polyline fill="none" points="25.345,19.904 25.345,27.538    17.702,27.538  " stroke="#394552" stroke-miterlimit="10" stroke-width="2.5"/><line fill="none" stroke="#394552" stroke-linecap="round" stroke-miterlimit="10" stroke-width="2.5" x1="36.664" x2="21.928" y1="38.179" y2="59.564"/><circle cx="22.368" cy="41.384" fill="none" r="3.932" stroke="#394552" stroke-linecap="round" stroke-miterlimit="10" stroke-width="2.5"/><path d="M40.153,56.357   c0,2.172-1.763,3.936-3.935,3.936c-2.17,0-3.933-1.764-3.933-3.936c0-2.17,1.763-3.932,3.933-3.932   C38.391,52.426,40.153,54.188,40.153,56.357z" fill="none" stroke="#394552" stroke-linecap="round" stroke-miterlimit="10" stroke-width="2.5"/><g><g><path d="M48.381,70.498     c-1.136,0-2.063-0.953-2.063-2.09V35.814c0-1.135,0.928-2.065,2.063-2.065h22.31c1.136,0,2.063,0.93,2.063,2.065v32.594     c0,1.137-0.928,2.09-2.063,2.09H48.381z" fill="none" stroke="#394552" stroke-linejoin="round" stroke-miterlimit="10" stroke-width="2.5"/><line fill="none" stroke="#394552" stroke-miterlimit="10" stroke-width="2.5" x1="50.689" x2="72.7" y1="45.855" y2="45.855"/><line fill="none" stroke="#394552" stroke-miterlimit="10" stroke-width="2.5" x1="55.146" x2="55.146" y1="45.982" y2="70.334"/><line fill="none" stroke="#394552" stroke-miterlimit="10" stroke-width="2.5" x1="63.972" x2="63.972" y1="45.957" y2="70.301"/><line fill="none" stroke="#394552" stroke-miterlimit="10" stroke-width="2.5" x1="50.689" x2="72.7" y1="54.043" y2="54.043"/><line fill="none" stroke="#394552" stroke-miterlimit="10" stroke-width="2.5" x1="50.689" x2="63.81" y1="62.232" y2="62.232"/></g></g></g></svg>