<?xml version="1.0" ?><!DOCTYPE svg  PUBLIC '-//W3C//DTD SVG 1.1//EN'  'http://www.w3.org/Graphics/SVG/1.1/DTD/svg11.dtd'><svg enable-background="new 0 0 85 85" height="85px" id="Layer_1" version="1.1" viewBox="0 0 85 85" width="85px" xml:space="preserve" xmlns="http://www.w3.org/2000/svg" xmlns:xlink="http://www.w3.org/1999/xlink"><g><g><g><g><path d="      M36.258,33.752c-2.041-2.768-3.248-6.19-3.248-9.894c0-4.703,1.946-8.951,5.076-11.984" fill="none" stroke="#394552" stroke-linecap="round" stroke-linejoin="round" stroke-miterlimit="10" stroke-width="2.5"/></g><g><path d="      M42.769,8.673c2.111-0.965,4.458-1.502,6.929-1.502c9.216,0,16.688,7.472,16.688,16.688c0,3.932-1.361,7.546-3.637,10.398" fill="none" stroke="#394552" stroke-linecap="round" stroke-linejoin="round" stroke-miterlimit="10" stroke-width="2.5"/></g></g><line fill="none" stroke="#394552" stroke-linecap="round" stroke-miterlimit="10" stroke-width="2.5" x1="55.402" x2="43.993" y1="15.58" y2="32.138"/><g><circle cx="44.137" cy="17.862" fill="none" r="3.197" stroke="#394552" stroke-linecap="round" stroke-miterlimit="10" stroke-width="2.5"/><circle cx="55.258" cy="29.856" fill="none" r="3.198" stroke="#394552" stroke-linecap="round" stroke-miterlimit="10" stroke-width="2.5"/></g></g><g><g><path d="M65.189,66.445v6.449     c0,2.713-2.221,4.934-4.936,4.934H20.591c-2.714,0-4.935-2.221-4.935-4.934V35.477" fill="none" stroke="#394552" stroke-linejoin="round" stroke-miterlimit="10" stroke-width="2.5"/></g><circle cx="49.997" cy="58.172" fill="#394552" r="2.02"/><g><path d="     M47.57,66.232c-2.715,0-4.936-2.222-4.936-4.937v-6.25c0-2.715,2.221-4.935,4.936-4.935h21.773V66.23H47.57V66.232z" fill="none" stroke="#394552" stroke-linecap="round" stroke-linejoin="round" stroke-miterlimit="10" stroke-width="2.5"/></g><path d="M30.533,32.328H18.558    c-1.629,0-2.901,1.454-2.901,3.148c0,1.697,1.272,3.019,2.901,3.019h41.697c2.716,0,4.937,2.24,4.937,4.954v2.793" fill="none" stroke="#394552" stroke-linejoin="round" stroke-miterlimit="10" stroke-width="2.5"/></g></g></svg>