<?xml version="1.0" ?><!DOCTYPE svg  PUBLIC '-//W3C//DTD SVG 1.1//EN'  'http://www.w3.org/Graphics/SVG/1.1/DTD/svg11.dtd'><svg enable-background="new 0 0 85 85" height="85px" id="Layer_1" version="1.1" viewBox="0 0 85 85" width="85px" xml:space="preserve" xmlns="http://www.w3.org/2000/svg" xmlns:xlink="http://www.w3.org/1999/xlink"><g><g><g><g><path d="      M52.254,40.819c2.205-0.722,4.598-0.991,7.053-0.714c9.158,1.035,15.744,9.301,14.709,18.457      c-1.037,9.158-9.301,15.742-18.459,14.707c-9.156-1.035-15.741-9.299-14.706-18.457c0.528-4.674,2.938-8.676,6.389-11.338" fill="none" stroke="#394552" stroke-linecap="round" stroke-linejoin="round" stroke-miterlimit="10" stroke-width="2.5"/></g></g><line fill="none" stroke="#394552" stroke-linecap="round" stroke-miterlimit="10" stroke-width="2.5" x1="63.137" x2="51.729" y1="48.408" y2="64.967"/><g><circle cx="51.871" cy="50.691" fill="none" r="3.197" stroke="#394552" stroke-linecap="round" stroke-miterlimit="10" stroke-width="2.5"/><circle cx="62.993" cy="62.686" fill="none" r="3.198" stroke="#394552" stroke-linecap="round" stroke-miterlimit="10" stroke-width="2.5"/></g></g><polyline fill="none" points="32.487,62.932 32.487,11.624    43.291,11.624 43.291,40.852  " stroke="#394552" stroke-miterlimit="10" stroke-width="2.5"/><polyline fill="none" points="21.682,62.932 21.682,22.624    28.131,22.624  " stroke="#394552" stroke-miterlimit="10" stroke-width="2.5"/><polyline fill="none" points="17.329,35.958 10.877,35.958    10.877,62.932 37.278,62.932  " stroke="#394552" stroke-miterlimit="10" stroke-width="2.5"/><path d="M21.682,62.932" fill="none" stroke="#394552" stroke-miterlimit="10" stroke-width="2.5"/><polyline fill="none" points="47.658,27.457 54.096,27.457    54.096,36.401  " stroke="#394552" stroke-miterlimit="10" stroke-width="2.5"/></g></svg>