<?xml version="1.0" ?><!DOCTYPE svg  PUBLIC '-//W3C//DTD SVG 1.1//EN'  'http://www.w3.org/Graphics/SVG/1.1/DTD/svg11.dtd'><svg enable-background="new 0 0 85 85" height="85px" id="Layer_1" version="1.1" viewBox="0 0 85 85" width="85px" xml:space="preserve" xmlns="http://www.w3.org/2000/svg" xmlns:xlink="http://www.w3.org/1999/xlink"><g><g><path d="    M55.479,40.869c1.766-1.508,3.873-2.668,6.25-3.347c8.861-2.531,18.1,2.601,20.631,11.462c2.531,8.863-2.604,18.098-11.465,20.629    c-8.859,2.531-18.098-2.6-20.629-11.463c-1.291-4.521-0.586-9.141,1.59-12.916" fill="none" stroke="#394552" stroke-linecap="round" stroke-linejoin="round" stroke-miterlimit="10" stroke-width="2.5"/></g><line fill="none" stroke="#394552" stroke-linecap="round" stroke-miterlimit="10" stroke-width="2.5" x1="72.018" x2="60.607" y1="45.289" y2="61.846"/><circle cx="60.751" cy="47.57" fill="none" r="3.196" stroke="#394552" stroke-linecap="round" stroke-miterlimit="10" stroke-width="2.5"/><path d="M75.07,59.564   c0,1.766-1.432,3.199-3.197,3.199c-1.764,0-3.197-1.434-3.197-3.199c0-1.764,1.434-3.195,3.197-3.195   C73.639,56.369,75.07,57.801,75.07,59.564z" fill="none" stroke="#394552" stroke-linecap="round" stroke-miterlimit="10" stroke-width="2.5"/><g><g><g><line fill="none" stroke="#394552" stroke-linejoin="round" stroke-miterlimit="10" stroke-width="2.5" x1="21.178" x2="21.178" y1="30.459" y2="53.828"/><line fill="none" stroke="#394552" stroke-linejoin="round" stroke-miterlimit="10" stroke-width="2.5" x1="32.246" x2="32.246" y1="30.459" y2="53.828"/><line fill="none" stroke="#394552" stroke-linejoin="round" stroke-miterlimit="10" stroke-width="2.5" x1="43.314" x2="43.314" y1="30.459" y2="53.828"/></g><line fill="none" stroke="#394552" stroke-linejoin="round" stroke-miterlimit="10" stroke-width="2.5" x1="54.385" x2="54.385" y1="30.459" y2="36.033"/></g><line fill="none" stroke="#394552" stroke-linecap="round" stroke-linejoin="round" stroke-miterlimit="10" stroke-width="2.5" x1="47.102" x2="1.995" y1="64.346" y2="64.346"/><polygon fill="none" points="    15.604,30.098 59.984,30.098 59.984,25.3 37.801,14.741 15.604,25.282   " stroke="#394552" stroke-linecap="round" stroke-linejoin="round" stroke-miterlimit="10" stroke-width="2.5"/><line fill="none" stroke="#394552" stroke-linecap="round" stroke-linejoin="round" stroke-miterlimit="10" stroke-width="2.5" x1="44.715" x2="5.714" y1="58.209" y2="58.209"/><g><g><line fill="none" stroke="#394552" stroke-linejoin="round" stroke-miterlimit="10" stroke-width="2.5" x1="10.92" x2="10.92" y1="45.131" y2="53.828"/><polyline fill="none" points="      16.584,38.968 6.837,38.968 6.837,44.631 16.584,44.631     " stroke="#394552" stroke-linejoin="round" stroke-miterlimit="10" stroke-width="2.5"/></g></g></g></g></svg>