<?xml version="1.0" ?><!DOCTYPE svg  PUBLIC '-//W3C//DTD SVG 1.1//EN'  'http://www.w3.org/Graphics/SVG/1.1/DTD/svg11.dtd'><svg enable-background="new 0 0 85 85" height="85px" id="Layer_1" version="1.1" viewBox="0 0 85 85" width="85px" xml:space="preserve" xmlns="http://www.w3.org/2000/svg" xmlns:xlink="http://www.w3.org/1999/xlink"><g><g><line fill="none" stroke="#394552" stroke-linecap="round" stroke-miterlimit="10" stroke-width="2.5" x1="49.032" x2="35.966" y1="43.866" y2="62.829"/><g><circle cx="36.131" cy="46.479" fill="none" r="3.661" stroke="#394552" stroke-linecap="round" stroke-miterlimit="10" stroke-width="2.5"/><path d="M52.53,60.215     c0,2.023-1.643,3.664-3.664,3.664c-2.02,0-3.66-1.641-3.66-3.664c0-2.021,1.641-3.66,3.66-3.66     C50.888,56.555,52.53,58.194,52.53,60.215z" fill="none" stroke="#394552" stroke-linecap="round" stroke-miterlimit="10" stroke-width="2.5"/></g></g><g><g><polyline fill="none" points="     33.296,28.553 25.132,14.119 34.737,17.21    " stroke="#394552" stroke-linejoin="round" stroke-miterlimit="10" stroke-width="2.5"/><polyline fill="none" points="     38.671,21.544 42.534,8.444 46.87,19.47 59.401,15.351 48.874,27.183 41.165,27.205    " stroke="#394552" stroke-linecap="round" stroke-linejoin="round" stroke-miterlimit="10" stroke-width="2.5"/><path d="     M20.633,59.719V46.597c0-8.37,5.325-15.238,12.663-18.044" fill="none" stroke="#394552" stroke-linecap="round" stroke-linejoin="round" stroke-miterlimit="10" stroke-width="2.5"/><path d="     M44.366,27.205c11,0,20,8.392,20,19.392v19.183c0,0,4.445,6.491,2.035,10.777H18.6c-2.41-4.286,2.033-10.777,2.033-10.777" fill="none" stroke="#394552" stroke-linecap="round" stroke-linejoin="round" stroke-miterlimit="10" stroke-width="2.5"/></g></g></g></svg>