<?xml version="1.0" ?><!DOCTYPE svg  PUBLIC '-//W3C//DTD SVG 1.1//EN'  'http://www.w3.org/Graphics/SVG/1.1/DTD/svg11.dtd'><svg enable-background="new 0 0 85 85" height="85px" id="Layer_1" version="1.1" viewBox="0 0 85 85" width="85px" xml:space="preserve" xmlns="http://www.w3.org/2000/svg" xmlns:xlink="http://www.w3.org/1999/xlink"><g><g><g><line fill="none" stroke="#394552" stroke-linecap="round" stroke-linejoin="round" stroke-miterlimit="10" stroke-width="2.5" x1="55.729" x2="55.729" y1="50.881" y2="47.037"/><path d="M44.189,57.104v8l-5.372-0.002     c-0.66,0-0.974,0.518-1.101,0.822c-0.268,0.652-0.176,1.473,0.217,1.867l10.861,10.854c0.76,0.756,1.992,0.756,2.744-0.002     l10.812-10.852c0.418-0.422,0.547-1.23,0.289-1.85c-0.227-0.543-0.697-0.84-1.322-0.842l-5.59,0.002v-9.197" fill="none" stroke="#394552" stroke-linecap="round" stroke-width="2.5"/></g></g><g><g><line fill="none" stroke="#394552" stroke-linecap="round" stroke-linejoin="round" stroke-miterlimit="10" stroke-width="2.5" x1="23.801" x2="23.801" y1="26.313" y2="23.45"/><line fill="none" stroke="#394552" stroke-linecap="round" stroke-linejoin="round" stroke-miterlimit="10" stroke-width="2.5" x1="39.304" x2="39.304" y1="20.495" y2="17.88"/><line fill="none" stroke="#394552" stroke-linecap="round" stroke-linejoin="round" stroke-miterlimit="10" stroke-width="2.5" x1="39.304" x2="39.304" y1="30.147" y2="25.462"/><path d="M23.801,31.101v11.352l-7.218-0.002     c-0.887,0.002-1.308,0.696-1.479,1.104c-0.359,0.877-0.236,1.98,0.292,2.51l14.594,14.584c1.02,1.016,2.676,1.016,3.686-0.002     l14.527-14.582c0.563-0.564,0.736-1.652,0.39-2.484c-0.305-0.729-0.938-1.129-1.777-1.131l-7.51,0.004v-7.706" fill="none" stroke="#394552" stroke-linecap="round" stroke-width="2.5"/></g></g><g><line fill="none" stroke="#394552" stroke-linecap="round" stroke-miterlimit="10" stroke-width="2.5" x1="65.84" x2="49.918" y1="14.886" y2="37.992"/><g><circle cx="50.117" cy="18.07" fill="none" r="4.461" stroke="#394552" stroke-linecap="round" stroke-miterlimit="10" stroke-width="2.5"/><path d="M70.102,34.808     c0,2.465-2,4.463-4.463,4.463c-2.462,0-4.463-1.998-4.463-4.463c0-2.462,2.001-4.46,4.463-4.46     C68.102,30.348,70.102,32.346,70.102,34.808z" fill="none" stroke="#394552" stroke-linecap="round" stroke-miterlimit="10" stroke-width="2.5"/></g></g><g><line fill="none" stroke="#394552" stroke-linecap="round" stroke-linejoin="round" stroke-miterlimit="10" stroke-width="2.5" x1="31.835" x2="31.835" y1="37.103" y2="24.202"/><line fill="none" stroke="#394552" stroke-linecap="round" stroke-linejoin="round" stroke-miterlimit="10" stroke-width="2.5" x1="31.835" x2="31.835" y1="19.231" y2="12.803"/><line fill="none" stroke="#394552" stroke-linecap="round" stroke-linejoin="round" stroke-miterlimit="10" stroke-width="2.5" x1="31.835" x2="31.835" y1="7.833" y2="5.79"/></g></g></svg>