<?xml version="1.0" ?><!DOCTYPE svg  PUBLIC '-//W3C//DTD SVG 1.1//EN'  'http://www.w3.org/Graphics/SVG/1.1/DTD/svg11.dtd'><svg enable-background="new 0 0 85 85" height="85px" id="Layer_1" version="1.1" viewBox="0 0 85 85" width="85px" xml:space="preserve" xmlns="http://www.w3.org/2000/svg" xmlns:xlink="http://www.w3.org/1999/xlink"><g><g><g><g><path d="      M57.018,13.057c2.111-0.965,4.457-1.502,6.929-1.502c9.216,0,16.688,7.472,16.688,16.688c0,9.216-7.473,16.686-16.688,16.686      c-9.215,0.002-16.688-7.47-16.688-16.686c0-4.703,1.946-8.951,5.076-11.984" fill="none" stroke="#394552" stroke-linecap="round" stroke-linejoin="round" stroke-miterlimit="10" stroke-width="2.5"/></g></g><line fill="none" stroke="#394552" stroke-linecap="round" stroke-miterlimit="10" stroke-width="2.5" x1="69.651" x2="58.242" y1="19.963" y2="36.521"/><g><circle cx="58.385" cy="22.245" fill="none" r="3.197" stroke="#394552" stroke-linecap="round" stroke-miterlimit="10" stroke-width="2.5"/><circle cx="69.507" cy="34.239" fill="none" r="3.198" stroke="#394552" stroke-linecap="round" stroke-miterlimit="10" stroke-width="2.5"/></g></g><g><g><line fill="none" stroke="#394552" stroke-miterlimit="10" stroke-width="2.5" x1="39.342" x2="39.342" y1="29.141" y2="51.387"/><line fill="none" stroke="#394552" stroke-linecap="round" stroke-linejoin="bevel" stroke-miterlimit="10" stroke-width="2.5" x1="49.792" x2="49.063" y1="44.684" y2="49.797"/><line fill="none" stroke="#394552" stroke-linecap="round" stroke-linejoin="bevel" stroke-miterlimit="10" stroke-width="2.5" x1="17.969" x2="45.219" y1="39.849" y2="39.849"/><line fill="none" stroke="#394552" stroke-miterlimit="10" stroke-width="2.5" x1="26.721" x2="30.189" y1="29.077" y2="52.762"/><line fill="none" stroke="#394552" stroke-linecap="round" stroke-linejoin="round" stroke-miterlimit="10" stroke-width="2.5" x1="42.455" x2="14.613" y1="28.824" y2="28.824"/><path d="M60.062,60.697H21.638     c-2.489,0-2.874-5.52,1.001-6.373l34.756-5.709" fill="none" stroke="#394552" stroke-linejoin="round" stroke-miterlimit="10" stroke-width="2.5"/><polyline fill="none" points="     20.334,49.127 11.529,20.953 4.364,20.953    " stroke="#394552" stroke-linecap="round" stroke-linejoin="round" stroke-miterlimit="10" stroke-width="2.5"/><g><circle cx="25.701" cy="69.645" fill="none" r="3.8" stroke="#394552" stroke-linecap="round" stroke-linejoin="round" stroke-miterlimit="10" stroke-width="2.5"/><circle cx="53.685" cy="69.645" fill="none" r="3.801" stroke="#394552" stroke-linecap="round" stroke-linejoin="round" stroke-miterlimit="10" stroke-width="2.5"/></g></g></g></g></svg>