<?xml version="1.0" ?><!DOCTYPE svg  PUBLIC '-//W3C//DTD SVG 1.1//EN'  'http://www.w3.org/Graphics/SVG/1.1/DTD/svg11.dtd'><svg enable-background="new 0 0 85 85" height="85px" id="Layer_1" version="1.1" viewBox="0 0 85 85" width="85px" xml:space="preserve" xmlns="http://www.w3.org/2000/svg" xmlns:xlink="http://www.w3.org/1999/xlink"><g><g><g><g><path d="      M52.954,12.763c2.111-0.965,4.457-1.502,6.929-1.502c9.216,0,16.688,7.472,16.688,16.688c0,9.216-7.473,16.688-16.688,16.688      c-9.215,0-16.688-7.473-16.688-16.689c0-4.703,1.946-8.951,5.076-11.984" fill="none" stroke="#394552" stroke-linecap="round" stroke-linejoin="round" stroke-miterlimit="10" stroke-width="2.5"/></g></g><line fill="none" stroke="#394552" stroke-linecap="round" stroke-miterlimit="10" stroke-width="2.5" x1="65.588" x2="54.179" y1="19.669" y2="36.227"/><g><circle cx="54.322" cy="21.951" fill="none" r="3.197" stroke="#394552" stroke-linecap="round" stroke-miterlimit="10" stroke-width="2.5"/><circle cx="65.444" cy="33.945" fill="none" r="3.198" stroke="#394552" stroke-linecap="round" stroke-miterlimit="10" stroke-width="2.5"/></g></g><line fill="none" stroke="#394552" stroke-linejoin="round" stroke-miterlimit="10" stroke-width="2.5" x1="29.681" x2="52.076" y1="60.213" y2="60.213"/><path d="   M13.792,37.814c0,0-0.452,0-2.193,0c-2.848,0-3.171,4.465-3.171,4.465l8.07,0.711" fill="none" stroke="#394552" stroke-linecap="round" stroke-linejoin="round" stroke-miterlimit="10" stroke-width="2.5"/><g><path d="M26.263,70.324v2.381    c0,0.57-0.466,1.035-1.037,1.035H15.214c-0.57,0-1.035-0.465-1.035-1.035v-6.145" fill="none" stroke="#394552" stroke-miterlimit="10" stroke-width="2.5"/><path d="M55.492,70.324v2.381    c0,0.57,0.467,1.035,1.037,1.035h10.014c0.569,0,1.035-0.465,1.035-1.035v-6.145" fill="none" stroke="#394552" stroke-miterlimit="10" stroke-width="2.5"/></g><g><path d="M45.398,43.906H23.968    c0.001,0-1.311,0.072-2.95-0.672" fill="none" stroke="#394552" stroke-linejoin="round" stroke-miterlimit="10" stroke-width="2.5"/><path d="    M68.6,47.537c1.148,1.662,1.78,3.975,1.78,5.316v10.605c0,1.564-1.315,2.998-3.165,2.998H14.541c-1.85,0-3.165-1.434-3.165-2.998    V52.854c0-1.637,0.939-4.715,2.606-6.299c0,0,3.268-3.911,3.539-4.874c0,0,2.971-8.381,3.425-9.272c0,0,1.244-2.437,4.222-2.437    c0.126,0,6.054,0,13.13,0" fill="none" stroke="#394552" stroke-linecap="round" stroke-linejoin="round" stroke-miterlimit="10" stroke-width="2.5"/></g><g><path d="M17.235,51.305    c1.688,1.438,3.875,1.938,5.25,1.938c1.812,0,5.024,0,5.024,0" fill="none" stroke="#394552" stroke-miterlimit="10" stroke-width="2.5"/><path d="M54.248,53.242c0,0,3.211,0,5.023,0    c1.375,0,3.562-0.5,5.25-1.938" fill="none" stroke="#394552" stroke-miterlimit="10" stroke-width="2.5"/></g></g></svg>