<?xml version="1.0" ?><!DOCTYPE svg  PUBLIC '-//W3C//DTD SVG 1.1//EN'  'http://www.w3.org/Graphics/SVG/1.1/DTD/svg11.dtd'><svg enable-background="new 0 0 85 85" height="85px" id="Layer_1" version="1.1" viewBox="0 0 85 85" width="85px" xml:space="preserve" xmlns="http://www.w3.org/2000/svg" xmlns:xlink="http://www.w3.org/1999/xlink"><g><g><line fill="none" stroke="#394552" stroke-linecap="round" stroke-miterlimit="10" stroke-width="2.5" x1="48.653" x2="36.347" y1="33.57" y2="51.432"/><g><circle cx="36.5" cy="36.031" fill="none" r="3.448" stroke="#394552" stroke-linecap="round" stroke-miterlimit="10" stroke-width="2.5"/><path d="M51.946,48.969     c0,1.906-1.547,3.451-3.449,3.451s-3.449-1.545-3.449-3.451c0-1.902,1.547-3.447,3.449-3.447S51.946,47.066,51.946,48.969z" fill="none" stroke="#394552" stroke-linecap="round" stroke-miterlimit="10" stroke-width="2.5"/></g></g><g><path d="    M31.939,27.243c2.996-2.079,6.637-3.298,10.561-3.298c10.247,0,18.552,8.307,18.552,18.553c0,10.245-8.305,18.551-18.552,18.551    c-10.246,0-18.551-8.307-18.551-18.551c0-3.843,1.167-7.413,3.168-10.374" fill="none" stroke="#394552" stroke-linecap="round" stroke-linejoin="round" stroke-miterlimit="10" stroke-width="2.5"/><path d="    M73.856,47v-8.974l-6.592-1.103c-0.646-2.877-1.777-5.569-3.309-7.985l3.881-5.471l-6.326-6.326l-5.477,3.883    c-2.414-1.524-5.102-2.652-7.975-3.294l-1.087-6.611h-8.947l-1.087,6.613c-2.87,0.642-5.552,1.775-7.964,3.298l-5.484-3.889    l-6.325,6.325l3.886,5.478c-1.523,2.406-2.662,5.078-3.309,7.94l-6.599,1.142V47l6.596,1.082c0.646,2.875,1.778,5.564,3.307,7.979    l-3.882,5.473l6.326,6.326l5.48-3.887c2.412,1.523,5.098,2.65,7.968,3.291l1.087,6.617h8.949l1.087-6.617    c2.871-0.641,5.555-1.768,7.967-3.291l5.482,3.887l6.324-6.324l-3.883-5.475c1.523-2.402,2.652-5.078,3.299-7.938L73.856,47z" fill="none" stroke="#394552" stroke-linecap="round" stroke-linejoin="round" stroke-miterlimit="10" stroke-width="2.5"/></g></g></svg>