<?xml version="1.0" ?><!DOCTYPE svg  PUBLIC '-//W3C//DTD SVG 1.1//EN'  'http://www.w3.org/Graphics/SVG/1.1/DTD/svg11.dtd'><svg enable-background="new 0 0 85 85" height="85px" id="Layer_1" version="1.1" viewBox="0 0 85 85" width="85px" xml:space="preserve" xmlns="http://www.w3.org/2000/svg" xmlns:xlink="http://www.w3.org/1999/xlink"><g><g><g><line fill="none" stroke="#394552" stroke-linecap="round" stroke-miterlimit="10" stroke-width="2.5" x1="49.375" x2="35.625" y1="32.521" y2="52.478"/><g><circle cx="35.797" cy="35.271" fill="none" r="3.853" stroke="#394552" stroke-linecap="round" stroke-miterlimit="10" stroke-width="2.5"/><path d="M53.057,49.728      c0,2.13-1.727,3.854-3.855,3.854c-2.125,0-3.854-1.725-3.854-3.854c0-2.126,1.729-3.853,3.854-3.853      C51.33,45.875,53.057,47.602,53.057,49.728z" fill="none" stroke="#394552" stroke-linecap="round" stroke-miterlimit="10" stroke-width="2.5"/></g></g></g><g><path d="M18.019,37.497    c1.003-4.934,3.461-9.339,6.906-12.75" fill="none" stroke="#394552" stroke-linejoin="round" stroke-miterlimit="10" stroke-width="2.5"/><path d="M24.813,60.143    c-4.51-4.518-7.297-10.754-7.297-17.641" fill="none" stroke="#394552" stroke-linejoin="round" stroke-miterlimit="10" stroke-width="2.5"/><path d="M42.495,67.477    c-5.077,0-9.799-1.516-13.742-4.117" fill="none" stroke="#394552" stroke-linejoin="round" stroke-miterlimit="10" stroke-width="2.5"/><path d="M60.15,60.177    c-3.389,3.382-7.744,5.796-12.619,6.792" fill="none" stroke="#394552" stroke-linejoin="round" stroke-miterlimit="10" stroke-width="2.5"/><path d="M66.971,47.555    c-0.646,3.148-1.887,6.082-3.598,8.676" fill="none" stroke="#394552" stroke-linejoin="round" stroke-miterlimit="10" stroke-width="2.5"/><path d="M63.424,28.847    c2.566,3.924,4.059,8.615,4.059,13.655" fill="none" stroke="#394552" stroke-linejoin="round" stroke-miterlimit="10" stroke-width="2.5"/><path d="M47.531,18.031    c4.873,0.996,9.227,3.409,12.615,6.79" fill="none" stroke="#394552" stroke-linejoin="round" stroke-miterlimit="10" stroke-width="2.5"/><path d="M28.732,21.654    c3.946-2.61,8.678-4.13,13.762-4.13" fill="none" stroke="#394552" stroke-linejoin="round" stroke-miterlimit="10" stroke-width="2.5"/><g><g><g><g><line fill="none" stroke="#394552" stroke-linecap="round" stroke-linejoin="round" stroke-miterlimit="10" stroke-width="2.5" x1="42.487" x2="42.489" y1="77.457" y2="63.148"/></g></g><polyline fill="none" points="      37.94,72.959 42.508,77.527 47.059,72.979     " stroke="#394552" stroke-linecap="round" stroke-linejoin="round" stroke-miterlimit="10" stroke-width="2.5"/></g><g><g><g><line fill="none" stroke="#394552" stroke-linecap="round" stroke-linejoin="round" stroke-miterlimit="10" stroke-width="2.5" x1="42.512" x2="42.512" y1="7.542" y2="21.851"/></g></g><polyline fill="none" points="      47.059,12.042 42.491,7.472 37.94,12.023     " stroke="#394552" stroke-linecap="round" stroke-linejoin="round" stroke-miterlimit="10" stroke-width="2.5"/></g></g><g><g><g><g><line fill="none" stroke="#394552" stroke-linecap="round" stroke-linejoin="round" stroke-miterlimit="10" stroke-width="2.5" x1="7.543" x2="21.852" y1="42.486" y2="42.488"/></g></g><polyline fill="none" points="      12.041,37.94 7.473,42.508 12.021,47.059     " stroke="#394552" stroke-linecap="round" stroke-linejoin="round" stroke-miterlimit="10" stroke-width="2.5"/></g><g><g><g><line fill="none" stroke="#394552" stroke-linecap="round" stroke-linejoin="round" stroke-miterlimit="10" stroke-width="2.5" x1="77.457" x2="63.148" y1="42.512" y2="42.512"/></g></g><polyline fill="none" points="      72.957,47.059 77.527,42.49 72.977,37.94     " stroke="#394552" stroke-linecap="round" stroke-linejoin="round" stroke-miterlimit="10" stroke-width="2.5"/></g></g><g><g><g><g><line fill="none" stroke="#394552" stroke-linecap="round" stroke-linejoin="round" stroke-miterlimit="10" stroke-width="2.5" x1="17.772" x2="27.891" y1="67.209" y2="57.092"/></g></g><polyline fill="none" points="      17.738,60.813 17.738,67.273 24.173,67.275     " stroke="#394552" stroke-linecap="round" stroke-linejoin="round" stroke-miterlimit="10" stroke-width="2.5"/></g><g><g><g><line fill="none" stroke="#394552" stroke-linecap="round" stroke-linejoin="round" stroke-miterlimit="10" stroke-width="2.5" x1="67.227" x2="57.109" y1="17.791" y2="27.908"/></g></g><polyline fill="none" points="      67.26,24.188 67.26,17.725 60.826,17.725     " stroke="#394552" stroke-linecap="round" stroke-linejoin="round" stroke-miterlimit="10" stroke-width="2.5"/></g></g><g><g><g><g><line fill="none" stroke="#394552" stroke-linecap="round" stroke-linejoin="round" stroke-miterlimit="10" stroke-width="2.5" x1="67.209" x2="57.092" y1="67.227" y2="57.108"/></g></g><polyline fill="none" points="      60.812,67.262 67.273,67.262 67.275,60.827     " stroke="#394552" stroke-linecap="round" stroke-linejoin="round" stroke-miterlimit="10" stroke-width="2.5"/></g><g><g><g><line fill="none" stroke="#394552" stroke-linecap="round" stroke-linejoin="round" stroke-miterlimit="10" stroke-width="2.5" x1="17.791" x2="27.908" y1="17.773" y2="27.89"/></g></g><polyline fill="none" points="      24.188,17.739 17.725,17.738 17.726,24.173     " stroke="#394552" stroke-linecap="round" stroke-linejoin="round" stroke-miterlimit="10" stroke-width="2.5"/></g></g></g></g></svg>