<?xml version="1.0" ?><!DOCTYPE svg  PUBLIC '-//W3C//DTD SVG 1.1//EN'  'http://www.w3.org/Graphics/SVG/1.1/DTD/svg11.dtd'><svg enable-background="new 0 0 85 85" height="85px" id="Layer_1" version="1.1" viewBox="0 0 85 85" width="85px" xml:space="preserve" xmlns="http://www.w3.org/2000/svg" xmlns:xlink="http://www.w3.org/1999/xlink"><g><g><line fill="none" stroke="#394552" stroke-linecap="round" stroke-miterlimit="10" stroke-width="2.5" x1="49.349" x2="35.665" y1="29.468" y2="49.327"/><circle cx="35.837" cy="32.205" fill="none" r="3.834" stroke="#394552" stroke-linecap="round" stroke-miterlimit="10" stroke-width="2.5"/><path d="M53.013,46.59    c0,2.119-1.721,3.836-3.838,3.836c-2.115,0-3.834-1.717-3.834-3.836c0-2.116,1.719-3.833,3.834-3.833    C51.292,42.757,53.013,44.474,53.013,46.59z" fill="none" stroke="#394552" stroke-linecap="round" stroke-miterlimit="10" stroke-width="2.5"/></g><g><g><g><path d="M13.136,55.215V23.55      c0-2.358,1.931-4.287,4.286-4.287h50.165c2.359,0,4.289,1.929,4.289,4.287v31.665" fill="none" stroke="#394552" stroke-linejoin="round" stroke-miterlimit="10" stroke-width="2.5"/><path d="M73.319,65.736      c4.15,0,5.4-5.798,5.4-5.798H6.281c0,0,1.255,5.798,5.414,5.798H73.319z" fill="none" stroke="#394552" stroke-linejoin="round" stroke-miterlimit="10" stroke-width="2.5"/></g></g></g></g></svg>