<?xml version="1.0" ?><!DOCTYPE svg  PUBLIC '-//W3C//DTD SVG 1.1//EN'  'http://www.w3.org/Graphics/SVG/1.1/DTD/svg11.dtd'><svg enable-background="new 0 0 85 85" height="85px" id="Layer_1" version="1.1" viewBox="0 0 85 85" width="85px" xml:space="preserve" xmlns="http://www.w3.org/2000/svg" xmlns:xlink="http://www.w3.org/1999/xlink"><g><g><rect fill="none" height="7.694" stroke="#394553" stroke-linejoin="round" stroke-miterlimit="10" stroke-width="2.5" width="15.746" x="45.414" y="13.664"/><line fill="none" stroke="#394553" stroke-linejoin="round" stroke-miterlimit="10" stroke-width="2.5" x1="53.287" x2="53.287" y1="21.598" y2="26.054"/><g><rect fill="none" height="13.07" stroke="#394553" stroke-linejoin="round" stroke-miterlimit="10" stroke-width="2.5" width="60.938" x="12.03" y="58.266"/></g><line fill="none" stroke="#394553" stroke-miterlimit="10" stroke-width="2.5" x1="49.094" x2="35.907" y1="64.801" y2="64.801"/><g><polyline fill="none" points="     22.565,26.562 18.464,26.562 18.464,40.963 14.451,53.496    " stroke="#394553" stroke-linejoin="round" stroke-miterlimit="10" stroke-width="2.5"/><polyline fill="none" points="     70.549,53.496 66.537,40.963 66.537,26.562 41.979,26.562    " stroke="#394553" stroke-linejoin="round" stroke-miterlimit="10" stroke-width="2.5"/></g><rect fill="none" height="5.519" stroke="#394553" stroke-miterlimit="10" stroke-width="2.5" width="13.875" x="46.363" y="32.565"/><line fill="none" stroke="#394553" stroke-miterlimit="10" stroke-width="2.5" x1="41.373" x2="23.185" y1="45.279" y2="45.279"/><polyline fill="none" points="26.694,45.328 26.694,21.393     37.86,21.393 37.86,45.328   " stroke="#394553" stroke-miterlimit="10" stroke-width="2.5"/></g><g><rect fill="#394553" height="0.859" stroke="#394553" stroke-miterlimit="10" stroke-width="2.5" width="0.859" x="46.436" y="44.824"/><rect fill="#394553" height="0.859" stroke="#394553" stroke-miterlimit="10" stroke-width="2.5" width="0.859" x="52.871" y="44.824"/><rect fill="#394553" height="0.859" stroke="#394553" stroke-miterlimit="10" stroke-width="2.5" width="0.861" x="59.309" y="44.824"/></g><g><rect fill="#394553" height="0.859" stroke="#394553" stroke-miterlimit="10" stroke-width="2.5" width="0.859" x="46.436" y="50.965"/><rect fill="#394553" height="0.859" stroke="#394553" stroke-miterlimit="10" stroke-width="2.5" width="0.859" x="52.871" y="50.965"/><rect fill="#394553" height="0.859" stroke="#394553" stroke-miterlimit="10" stroke-width="2.5" width="0.861" x="59.309" y="50.965"/></g></g></svg>