<?xml version="1.0" ?><!DOCTYPE svg  PUBLIC '-//W3C//DTD SVG 1.1//EN'  'http://www.w3.org/Graphics/SVG/1.1/DTD/svg11.dtd'><svg enable-background="new 0 0 85 85" height="85px" id="Layer_1" version="1.1" viewBox="0 0 85 85" width="85px" xml:space="preserve" xmlns="http://www.w3.org/2000/svg" xmlns:xlink="http://www.w3.org/1999/xlink"><g><polyline fill="none" points="26.965,47.227 26.965,9.539    58.035,9.539 58.035,48.232  " stroke="#394553" stroke-miterlimit="10" stroke-width="2.5"/><g><circle cx="42.5" cy="24.108" fill="#394553" r="1.997"/><circle cx="42.5" cy="48.887" fill="#394553" r="1.997"/></g><path d="M52.258,52.318V19.211   c-2.166,0-3.924-1.756-3.924-3.92h-11.67c0,2.164-1.756,3.92-3.922,3.92v32.835" fill="none" stroke="#394553" stroke-miterlimit="10" stroke-width="2.5"/><path d="M42.5,51.536" fill="none" stroke="#394553" stroke-miterlimit="10" stroke-width="2.5"/><g><path d="    M59.908,67.786c0,0-15.209-11.786-15.871-12.334c-0.66-0.546-2.016-0.517-2.808,0.096c-0.979,0.754-16.137,12.237-16.137,12.237" fill="none" stroke="#394553" stroke-linecap="round" stroke-linejoin="round" stroke-miterlimit="10" stroke-width="2.5"/></g><g><g><line fill="none" stroke="#394553" stroke-linecap="round" stroke-linejoin="round" stroke-miterlimit="10" stroke-width="2.5" x1="38.617" x2="22.3" y1="56.949" y2="43.846"/></g><g><line fill="none" stroke="#394553" stroke-linecap="round" stroke-linejoin="round" stroke-miterlimit="10" stroke-width="2.5" x1="62.701" x2="46.381" y1="43.846" y2="56.949"/></g></g><path d="M21.966,35.649   l-5.138,3.937v32.99c0,1.582,1.319,2.885,2.929,2.885h45.485c1.609,0,2.93-1.303,2.93-2.885v-32.99l-9.639-7.49" fill="none" stroke="#394553" stroke-linejoin="round" stroke-miterlimit="10" stroke-width="2.5"/><path d="M42.5,41.31c-2.857,0-5.176-2.157-5.176-4.812   c0-2.657,2.319-4.811,5.176-4.811c2.861,0,5.178,2.153,5.178,4.811C47.678,39.152,45.361,41.31,42.5,41.31z" fill="none" stroke="#394553" stroke-miterlimit="10" stroke-width="2.5"/><path d="M42.5,35.437" fill="none" stroke="#394553" stroke-linejoin="round" stroke-miterlimit="10" stroke-width="2.5"/></g></svg>