<?xml version="1.0" ?><!DOCTYPE svg  PUBLIC '-//W3C//DTD SVG 1.1//EN'  'http://www.w3.org/Graphics/SVG/1.1/DTD/svg11.dtd'><svg enable-background="new 0 0 85 85" height="85px" id="Layer_1" version="1.1" viewBox="0 0 85 85" width="85px" xml:space="preserve" xmlns="http://www.w3.org/2000/svg" xmlns:xlink="http://www.w3.org/1999/xlink"><g><g><g><circle cx="57.221" cy="45.018" fill="#394553" r="2"/><polyline fill="none" points="35.634,29.777 70.736,29.777      70.736,60.465 53.407,60.465    " stroke="#394553" stroke-miterlimit="10" stroke-width="2.5"/><polyline fill="none" points="35.634,24.807 75.831,24.807      75.831,56.543    " stroke="#394553" stroke-miterlimit="10" stroke-width="2.5"/><path d="M53.407,54.758h7.776     c0-2.139,1.734-3.873,3.873-3.873V39.356c-2.139,0-3.873-1.733-3.873-3.873h-25.55" fill="none" stroke="#394553" stroke-miterlimit="10" stroke-width="2.5"/><path d="M39.161,46.777     c-0.143-0.486-0.221-1.006-0.221-1.543c0-2.824,2.129-5.113,4.751-5.113c2.625,0,4.756,2.289,4.756,5.113     c0,1.217-0.396,2.334-1.057,3.213" fill="none" stroke="#394553" stroke-miterlimit="10" stroke-width="2.5"/></g></g><ellipse cx="20.327" cy="16.543" fill="none" rx="11.158" ry="5.164" stroke="#394553" stroke-linejoin="round" stroke-miterlimit="10" stroke-width="2.5"/><path d="M9.169,29.481   c0,2.854,4.996,5.166,11.158,5.166c6.162,0,11.158-2.312,11.158-5.166" fill="none" stroke="#394553" stroke-linejoin="round" stroke-miterlimit="10" stroke-width="2.5"/><path d="M9.169,23.034   c0,2.852,4.996,5.165,11.158,5.165c6.162,0,11.158-2.313,11.158-5.165" fill="none" stroke="#394553" stroke-linejoin="round" stroke-miterlimit="10" stroke-width="2.5"/><path d="M9.169,42.377   c0,2.854,4.996,5.166,11.158,5.166c6.162,0,11.158-2.312,11.158-5.166" fill="none" stroke="#394553" stroke-linejoin="round" stroke-miterlimit="10" stroke-width="2.5"/><path d="M9.169,48.826   c0,2.852,4.996,5.164,11.158,5.164c1.014,0,1.996-0.062,2.93-0.18" fill="none" stroke="#394553" stroke-linejoin="round" stroke-miterlimit="10" stroke-width="2.5"/><line fill="none" stroke="#394553" stroke-linejoin="round" stroke-miterlimit="10" stroke-width="2.5" x1="31.485" x2="31.485" y1="48.086" y2="16.543"/><path d="M9.169,21.997v39.726   c0,2.853,4.996,5.164,11.158,5.164c0.992,0,1.955-0.059,2.871-0.172" fill="none" stroke="#394553" stroke-linejoin="round" stroke-miterlimit="10" stroke-width="2.5"/><path d="M31.485,35.93   c0,2.852-4.996,5.164-11.158,5.164c-6.162,0-11.158-2.312-11.158-5.164" fill="none" stroke="#394553" stroke-linejoin="round" stroke-miterlimit="10" stroke-width="2.5"/><path d="M9.169,55.273   c0,2.854,4.996,5.166,11.158,5.166c0.92,0,1.814-0.054,2.67-0.148" fill="none" stroke="#394553" stroke-linejoin="round" stroke-miterlimit="10" stroke-width="2.5"/><g><ellipse cx="38.172" cy="55.535" fill="none" rx="11.157" ry="5.166" stroke="#394553" stroke-linejoin="round" stroke-miterlimit="10" stroke-width="2.5"/><path d="M27.013,61.119v7.338    c0,2.852,4.996,5.166,11.158,5.166c6.16,0,11.158-2.314,11.158-5.166V55.518" fill="none" stroke="#394553" stroke-linejoin="round" stroke-miterlimit="10" stroke-width="2.5"/><path d="M27.013,62.01    c0,2.852,4.996,5.164,11.158,5.164c6.16,0,11.158-2.312,11.158-5.164" fill="none" stroke="#394553" stroke-linejoin="round" stroke-miterlimit="10" stroke-width="2.5"/></g></g></svg>