<?xml version="1.0" ?><!DOCTYPE svg  PUBLIC '-//W3C//DTD SVG 1.1//EN'  'http://www.w3.org/Graphics/SVG/1.1/DTD/svg11.dtd'><svg enable-background="new 0 0 85 85" height="85px" id="Layer_1" version="1.1" viewBox="0 0 85 85" width="85px" xml:space="preserve" xmlns="http://www.w3.org/2000/svg" xmlns:xlink="http://www.w3.org/1999/xlink"><g><g><line fill="none" stroke="#394553" stroke-linecap="round" stroke-linejoin="round" stroke-miterlimit="10" stroke-width="2.5" x1="51.523" x2="66.262" y1="62.918" y2="62.918"/><line fill="none" stroke="#394553" stroke-linecap="round" stroke-linejoin="round" stroke-miterlimit="10" stroke-width="2.5" x1="51.523" x2="66.262" y1="69.178" y2="69.178"/><g><line fill="none" stroke="#394553" stroke-linecap="round" stroke-miterlimit="10" stroke-width="2.5" x1="58.893" x2="51.016" y1="62.193" y2="50.771"/><line fill="none" stroke="#394553" stroke-linecap="round" stroke-miterlimit="10" stroke-width="2.5" x1="58.891" x2="66.766" y1="62.193" y2="50.771"/></g><line fill="none" stroke="#394553" stroke-linecap="round" stroke-linejoin="round" stroke-miterlimit="10" stroke-width="2.5" x1="58.891" x2="58.891" y1="77.756" y2="62.234"/></g><g><g><path d="M36.003,56.166     c-0.029-5.426-5.863-5.822-8.545-4.475l-0.576,0.344c-3.047,1.803-4.064,5.771-2.262,8.82l0.49,0.861     c4.002,6.021-4.232,15.773-4.232,15.773c5.061-4.309,10.764-0.875,10.764-0.875c4.75,2.16,6.744-0.83,6.744-0.83" fill="none" stroke="#394553" stroke-linecap="round" stroke-linejoin="round" stroke-width="2.5"/></g><line fill="none" stroke="#394553" stroke-linecap="round" stroke-linejoin="round" stroke-width="2.5" x1="20.796" x2="31.692" y1="65.146" y2="65.146"/></g><g><path d="M51.584,29.309    c0,3.235,3.281,5.857,7.324,5.857c4.045,0,7.32-2.622,7.32-5.857c0-3.236-3.906-4.653-7.338-6.15    c-3.43-1.497-7.338-2.916-7.338-6.149c0-3.237,3.279-5.859,7.32-5.859c4.045,0,7.324,2.622,7.324,5.859" fill="none" stroke="#394553" stroke-linecap="round" stroke-miterlimit="10" stroke-width="2.5"/><line fill="none" stroke="#394553" stroke-linecap="round" stroke-miterlimit="10" stroke-width="2.5" x1="58.873" x2="58.873" y1="11.124" y2="7.244"/><line fill="none" stroke="#394553" stroke-linecap="round" stroke-miterlimit="10" stroke-width="2.5" x1="58.873" x2="58.873" y1="39.076" y2="35.198"/></g><g><g><g><line fill="none" stroke="#394553" stroke-linecap="round" stroke-linejoin="round" stroke-miterlimit="10" stroke-width="2.5" x1="18.233" x2="31.331" y1="20.03" y2="20.03"/><line fill="none" stroke="#394553" stroke-linecap="round" stroke-linejoin="round" stroke-miterlimit="10" stroke-width="2.5" x1="18.233" x2="31.331" y1="26.288" y2="26.288"/></g></g><path d="    M39.972,31.631c-1.746,3.263-4.719,5.421-8.078,5.421c-5.344,0-9.717-5.466-9.717-12.146v-3.493    c0-6.682,4.373-12.149,9.717-12.149c2.939,0,5.584,1.653,7.367,4.252" fill="none" stroke="#394553" stroke-linecap="round" stroke-linejoin="round" stroke-miterlimit="10" stroke-width="2.5"/></g></g></svg>