<?xml version="1.0" ?><!DOCTYPE svg  PUBLIC '-//W3C//DTD SVG 1.1//EN'  'http://www.w3.org/Graphics/SVG/1.1/DTD/svg11.dtd'><svg enable-background="new 0 0 85 85" height="85px" id="Layer_1" version="1.1" viewBox="0 0 85 85" width="85px" xml:space="preserve" xmlns="http://www.w3.org/2000/svg" xmlns:xlink="http://www.w3.org/1999/xlink"><g><g><g><path d="M48.233,33.955     c-0.025-5.032-5.44-5.404-7.928-4.15l-0.534,0.318c-2.827,1.672-3.771,5.355-2.099,8.184l0.455,0.798     c3.712,5.589-3.927,14.638-3.927,14.638c4.694-3.998,9.986-0.812,9.986-0.812c4.408,2.006,6.258-0.768,6.258-0.768" fill="none" stroke="#394553" stroke-linecap="round" stroke-linejoin="round" stroke-width="2.5"/></g><line fill="none" stroke="#394553" stroke-linecap="round" stroke-linejoin="round" stroke-width="2.5" x1="34.124" x2="44.235" y1="42.287" y2="42.287"/></g><g><path d="M72.743,42.502    c0,16.697-13.537,30.232-30.249,30.232c-16.698,0-30.236-13.535-30.236-30.232c0-16.7,13.538-30.237,30.236-30.237    C59.206,12.265,72.743,25.802,72.743,42.502z" fill="none" stroke="#394553" stroke-linejoin="round" stroke-miterlimit="10" stroke-width="2.5"/><path d="    M42.496,19.824c12.533,0,22.688,10.152,22.688,22.678c0,12.521-10.154,22.674-22.688,22.674    c-12.525,0-22.677-10.152-22.677-22.674c0-7.26,3.41-13.722,8.716-17.874" fill="none" stroke="#394553" stroke-linecap="round" stroke-linejoin="round" stroke-miterlimit="10" stroke-width="2.5"/></g></g></svg>