<?xml version="1.0" ?><!DOCTYPE svg  PUBLIC '-//W3C//DTD SVG 1.1//EN'  'http://www.w3.org/Graphics/SVG/1.1/DTD/svg11.dtd'><svg enable-background="new 0 0 85 85" height="85px" id="Layer_1" version="1.1" viewBox="0 0 85 85" width="85px" xml:space="preserve" xmlns="http://www.w3.org/2000/svg" xmlns:xlink="http://www.w3.org/1999/xlink"><g><path d="M22.607,64.988   c4.367,3.732,10.004,6.021,16.172,6.129c0.153,0.004,0.305,0.012,0.457,0.012c14.139,0,25.598-11.461,25.598-25.598H38.779V18.627" fill="none" stroke="#394553" stroke-miterlimit="10" stroke-width="2.5"/><path d="M33.778,20.523   c-11.515,2.5-20.139,12.744-20.139,25.008c0,6.055,2.103,11.617,5.616,16l19.523-16" fill="none" stroke="#394553" stroke-miterlimit="10" stroke-width="2.5"/><g><path d="M47.471,13.871    C47.611,13.869,47.33,13.871,47.471,13.871L47.471,13.871z" fill="none" stroke="#394553" stroke-miterlimit="10" stroke-width="2.5"/><path d="M71.361,37.545    c0-13.078-11.023-23.674-24.102-23.674v23.674H71.361z" fill="none" stroke="#394553" stroke-miterlimit="10" stroke-width="2.5"/></g><line fill="none" stroke="#394553" stroke-miterlimit="10" stroke-width="2.5" x1="18.413" x2="38.609" y1="30.801" y2="30.801"/><line fill="none" stroke="#394553" stroke-miterlimit="10" stroke-width="2.5" x1="14.351" x2="38.609" y1="40.213" y2="40.213"/><line fill="none" stroke="#394553" stroke-miterlimit="10" stroke-width="2.5" x1="14.063" x2="33.375" y1="49.627" y2="49.627"/></g></svg>