<?xml version="1.0" ?><!DOCTYPE svg  PUBLIC '-//W3C//DTD SVG 1.1//EN'  'http://www.w3.org/Graphics/SVG/1.1/DTD/svg11.dtd'><svg enable-background="new 0 0 85 85" height="85px" id="Layer_1" version="1.1" viewBox="0 0 85 85" width="85px" xml:space="preserve" xmlns="http://www.w3.org/2000/svg" xmlns:xlink="http://www.w3.org/1999/xlink"><g><g><g><g><path d="M57.527,54.745      l12.156-6.213c2.35-1.262,5.105-0.756,6.242,1.359c1.133,2.115,0.139,4.879-2.211,6.141l-25.223,13.52l-1.334,0.334      l-23.524,0.636c0,0-3.029,0.849-6.668,4.971" fill="none" stroke="#394553" stroke-linejoin="round" stroke-miterlimit="10" stroke-width="2.5"/><path d="M8.606,63.126l10.671-9.821      c5.215-3.517,11.398-1.576,11.398-1.576c2.994,0.788,8.555,0.966,8.555,0.966h9.233c2.75,0,5,1.964,5,4.364      c0,2.401-2.25,4.365-5,4.365H35.691" fill="none" stroke="#394553" stroke-miterlimit="10" stroke-width="2.5"/></g></g></g><g><g><path d="M39.841,37.393     c0,2.84,2.475,5.137,5.524,5.137c3.055,0,5.527-2.297,5.527-5.137c0-2.836-2.949-4.08-5.539-5.395     c-2.588-1.312-5.537-2.555-5.537-5.391c0-2.84,2.471-5.139,5.527-5.139c3.053,0,5.525,2.299,5.525,5.139" fill="none" stroke="#394553" stroke-linecap="round" stroke-miterlimit="10" stroke-width="2.5"/><line fill="none" stroke="#394553" stroke-linecap="round" stroke-miterlimit="10" stroke-width="2.5" x1="45.344" x2="45.344" y1="21.443" y2="17.998"/><line fill="none" stroke="#394553" stroke-linecap="round" stroke-miterlimit="10" stroke-width="2.5" x1="45.344" x2="45.344" y1="46.002" y2="42.557"/></g></g><g><g><g><path d="      M26.462,45.913c-2.654-3.76-4.213-8.35-4.213-13.303c0-6.51,2.695-12.393,7.027-16.592" fill="none" stroke="#394553" stroke-linecap="round" stroke-linejoin="round" stroke-miterlimit="10" stroke-width="2.5"/></g><g><path d="      M35.761,11.587c2.922-1.336,6.169-2.08,9.592-2.08c12.76,0,23.105,10.345,23.105,23.104c0,4.387-1.221,8.487-3.344,11.98" fill="none" stroke="#394553" stroke-linecap="round" stroke-linejoin="round" stroke-miterlimit="10" stroke-width="2.5"/></g></g></g></g></svg>