<?xml version="1.0" ?><!DOCTYPE svg  PUBLIC '-//W3C//DTD SVG 1.1//EN'  'http://www.w3.org/Graphics/SVG/1.1/DTD/svg11.dtd'><svg enable-background="new 0 0 85 85" height="85px" id="Layer_1" version="1.1" viewBox="0 0 85 85" width="85px" xml:space="preserve" xmlns="http://www.w3.org/2000/svg" xmlns:xlink="http://www.w3.org/1999/xlink"><g><g><g><g><line fill="none" stroke="#394553" stroke-linecap="round" stroke-linejoin="round" stroke-miterlimit="10" stroke-width="2.5" x1="33.812" x2="33.812" y1="15.35" y2="21.549"/><line fill="none" stroke="#394553" stroke-linecap="round" stroke-linejoin="round" stroke-miterlimit="10" stroke-width="2.5" x1="33.814" x2="33.814" y1="57.734" y2="63.934"/></g><g><line fill="none" stroke="#394553" stroke-linecap="round" stroke-linejoin="round" stroke-miterlimit="10" stroke-width="2.5" x1="15.588" x2="9.389" y1="39.643" y2="39.643"/><path d="M40.037,63.902      c-1.99,0.51-4.076,0.781-6.229,0.781c-13.83,0-25.043-11.211-25.043-25.041c0-13.831,11.213-25.043,25.043-25.043      c11.232,0,20.734,7.387,23.914,17.563" fill="none" stroke="#394553" stroke-miterlimit="10" stroke-width="2.5"/></g><polyline fill="none" points="46.789,29.125 33.873,42.041      25.451,34.08    " stroke="#394553" stroke-miterlimit="10" stroke-width="2.5"/></g></g><g><g><path d="M55.01,57.928     c0,2.281,1.988,4.127,4.439,4.127c2.455,0,4.441-1.846,4.441-4.127c0-2.279-2.371-3.279-4.451-4.334s-4.449-2.055-4.449-4.334     c0-2.281,1.986-4.129,4.441-4.129c2.453,0,4.439,1.848,4.439,4.129" fill="none" stroke="#394553" stroke-linecap="round" stroke-miterlimit="10" stroke-width="2.5"/><line fill="none" stroke="#394553" stroke-linecap="round" stroke-miterlimit="10" stroke-width="2.5" x1="59.432" x2="59.432" y1="45.111" y2="42.342"/><line fill="none" stroke="#394553" stroke-linecap="round" stroke-miterlimit="10" stroke-width="2.5" x1="59.432" x2="59.432" y1="64.846" y2="62.078"/></g></g><g><path d="    M48.492,40.78c1.779-1.52,3.902-2.689,6.299-3.375c8.932-2.551,18.24,2.622,20.793,11.552c2.551,8.932-2.625,18.242-11.555,20.791    c-8.932,2.553-18.24-2.621-20.791-11.551c-1.301-4.559-0.592-9.215,1.602-13.021" fill="none" stroke="#394553" stroke-linecap="round" stroke-linejoin="round" stroke-miterlimit="10" stroke-width="2.5"/></g></g></svg>