<?xml version="1.0" ?><!DOCTYPE svg  PUBLIC '-//W3C//DTD SVG 1.1//EN'  'http://www.w3.org/Graphics/SVG/1.1/DTD/svg11.dtd'><svg enable-background="new 0 0 85 85" height="85px" id="Layer_1" version="1.1" viewBox="0 0 85 85" width="85px" xml:space="preserve" xmlns="http://www.w3.org/2000/svg" xmlns:xlink="http://www.w3.org/1999/xlink"><g><g><g><g><g><path d="M39.539,29.902       c0,2.362,2.059,4.274,4.594,4.274c2.543,0,4.6-1.912,4.6-4.274c0-2.358-2.453-3.393-4.611-4.486       c-2.15-1.092-4.602-2.124-4.602-4.485s2.055-4.273,4.594-4.273c2.541,0,4.598,1.912,4.598,4.273" fill="none" stroke="#394553" stroke-linecap="round" stroke-miterlimit="10" stroke-width="2.5"/><line fill="none" stroke="#394553" stroke-linecap="round" stroke-miterlimit="10" stroke-width="2.5" x1="44.113" x2="44.113" y1="16.635" y2="13.501"/><line fill="none" stroke="#394553" stroke-linecap="round" stroke-miterlimit="10" stroke-width="2.5" x1="44.113" x2="44.113" y1="37.338" y2="34.201"/></g></g></g><g><path d="     M32.575,11.03c1.864-1.502,4.054-2.665,6.502-3.361c9.776-2.797,19.97,2.865,22.761,12.638     c2.787,9.78-2.875,19.966-12.648,22.757c-9.775,2.796-19.965-2.868-22.757-12.642c-1.358-4.769-0.71-9.631,1.445-13.689" fill="none" stroke="#394553" stroke-linecap="round" stroke-linejoin="round" stroke-miterlimit="10" stroke-width="2.5"/></g></g><path d="M50.088,58.576   c-1.588-3.182,2.598-8.271,7.719-9.433c6.611-1.494,11.117,0.414,11.117,0.414s-1.822,5.008-6.65,8.867   C58.172,61.702,51.496,61.403,50.088,58.576z" fill="none" stroke="#394553" stroke-miterlimit="10" stroke-width="2.5"/><line fill="none" stroke="#394553" stroke-linejoin="round" stroke-miterlimit="10" stroke-width="2.5" x1="44.135" x2="44.135" y1="78.046" y2="43.307"/><g><g><path d="M38.021,63.533     c1.586-3.335-3.003-9.623-8.979-11.029c-7.037-1.658-12.965,0.283-12.965,0.283s1.499,5.524,7.65,10.528     c2.941,2.391,7.005,3.372,10.102,2.891" fill="none" stroke="#394553" stroke-linejoin="round" stroke-miterlimit="10" stroke-width="2.5"/></g><path d="M26.251,57.367    c0,0,13.334,5.132,17.999,11.466" fill="none" stroke="#394553" stroke-linejoin="round" stroke-miterlimit="10" stroke-width="2.5"/></g></g></svg>