<?xml version="1.0" ?><!DOCTYPE svg  PUBLIC '-//W3C//DTD SVG 1.1//EN'  'http://www.w3.org/Graphics/SVG/1.1/DTD/svg11.dtd'><svg enable-background="new 0 0 85 85" height="85px" id="Layer_1" version="1.1" viewBox="0 0 85 85" width="85px" xml:space="preserve" xmlns="http://www.w3.org/2000/svg" xmlns:xlink="http://www.w3.org/1999/xlink"><g><g><g><path d="M39.034,68.991     c0,1.78,1.553,3.222,3.464,3.222c1.916,0,3.469-1.441,3.469-3.222c0-1.779-1.852-2.559-3.477-3.383     c-1.622-0.823-3.47-1.601-3.47-3.382c0-1.779,1.549-3.223,3.464-3.223c1.914,0,3.465,1.443,3.465,3.223" fill="none" stroke="#394553" stroke-linecap="round" stroke-miterlimit="10" stroke-width="2.5"/><line fill="none" stroke="#394553" stroke-linecap="round" stroke-miterlimit="10" stroke-width="2.5" x1="42.484" x2="42.484" y1="58.988" y2="56.626"/><line fill="none" stroke="#394553" stroke-linecap="round" stroke-miterlimit="10" stroke-width="2.5" x1="42.484" x2="42.484" y1="74.596" y2="72.23"/></g><g><path d="     M33.785,54.764c1.406-1.134,3.055-2.01,4.902-2.535c7.37-2.107,15.053,2.16,17.159,9.527c2.102,7.373-2.168,15.053-9.537,17.157     c-7.369,2.107-15.049-2.163-17.155-9.531c-1.024-3.595-0.536-7.261,1.089-10.32" fill="none" stroke="#394553" stroke-linecap="round" stroke-linejoin="round" stroke-miterlimit="10" stroke-width="2.5"/></g></g><g><path d="M53.387,31.023    C57.068,13.938,42.531,5.553,42.531,5.553" fill="none" stroke="#394553" stroke-linejoin="round" stroke-miterlimit="10" stroke-width="2.5"/><line fill="none" stroke="#394553" stroke-linecap="round" stroke-linejoin="round" stroke-miterlimit="10" stroke-width="2.5" x1="46.438" x2="53.156" y1="46.999" y2="32.403"/><line fill="none" stroke="#394553" stroke-linecap="round" stroke-linejoin="round" stroke-miterlimit="10" stroke-width="2.5" x1="52.039" x2="71.057" y1="49.213" y2="32.281"/><line fill="none" stroke="#394553" stroke-linecap="round" stroke-linejoin="round" stroke-miterlimit="10" stroke-width="2.5" x1="38.513" x2="31.792" y1="46.999" y2="32.141"/><line fill="none" stroke="#394553" stroke-linecap="round" stroke-linejoin="round" stroke-miterlimit="10" stroke-width="2.5" x1="32.911" x2="17.232" y1="49.213" y2="35.448"/></g><path d="   M42.5,58.043" fill="none" stroke="#394553" stroke-linecap="round" stroke-linejoin="round" stroke-miterlimit="10" stroke-width="2.5"/><path d="   M37.979,10.021c-3.902,3.962-8.806,10.963-6.187,22.119c0,0,2.03-4.488,10.708-4.49c8.678,0.002,10.729,4.566,10.729,4.566   c8.482-9.779,17.902,0,17.902,0c0-14.729-12.885-26.668-28.66-26.668h-0.035c-15.777,0-28.567,11.938-28.567,26.668   c0,0,5.814-6.036,12.419-3.884" fill="none" stroke="#394553" stroke-linecap="round" stroke-linejoin="round" stroke-miterlimit="10" stroke-width="2.5"/></g></svg>