<?xml version="1.0" ?><!DOCTYPE svg  PUBLIC '-//W3C//DTD SVG 1.1//EN'  'http://www.w3.org/Graphics/SVG/1.1/DTD/svg11.dtd'><svg enable-background="new 0 0 85 85" height="85px" id="Layer_1" version="1.1" viewBox="0 0 85 85" width="85px" xml:space="preserve" xmlns="http://www.w3.org/2000/svg" xmlns:xlink="http://www.w3.org/1999/xlink"><g><g><g><line fill="none" stroke="#394553" stroke-linecap="round" stroke-linejoin="round" stroke-miterlimit="10" stroke-width="2.5" x1="28.913" x2="45.77" y1="39.354" y2="39.354"/><line fill="none" stroke="#394553" stroke-linecap="round" stroke-linejoin="round" stroke-miterlimit="10" stroke-width="2.5" x1="28.913" x2="43.363" y1="44.65" y2="44.65"/></g><path d="M52.109,32.016    c-1.934-1.315-4.266-2.086-6.781-2.086c-6.671,0-12.075,5.404-12.075,12.073c0,6.667,5.404,12.074,12.075,12.074    c2.516,0,4.848-0.773,6.781-2.088" fill="none" stroke="#394553" stroke-linecap="round" stroke-miterlimit="10" stroke-width="2.5"/></g><g><path d="M72.744,42.5    c0,16.697-13.537,30.234-30.25,30.234c-16.696,0-30.237-13.537-30.237-30.234c0-16.699,13.541-30.235,30.237-30.235    C59.207,12.266,72.744,25.802,72.744,42.5z" fill="none" stroke="#394553" stroke-linejoin="round" stroke-miterlimit="10" stroke-width="2.5"/><path d="    M42.496,19.823c12.534,0,22.688,10.152,22.688,22.677c0,12.523-10.154,22.675-22.688,22.675    c-12.524,0-22.676-10.152-22.676-22.675c0-7.26,3.412-13.723,8.717-17.872" fill="none" stroke="#394553" stroke-linecap="round" stroke-linejoin="round" stroke-miterlimit="10" stroke-width="2.5"/></g></g></svg>