<?xml version="1.0" ?><!DOCTYPE svg  PUBLIC '-//W3C//DTD SVG 1.1//EN'  'http://www.w3.org/Graphics/SVG/1.1/DTD/svg11.dtd'><svg enable-background="new 0 0 85 85" height="85px" id="Layer_1" version="1.1" viewBox="0 0 85 85" width="85px" xml:space="preserve" xmlns="http://www.w3.org/2000/svg" xmlns:xlink="http://www.w3.org/1999/xlink"><g><g><g><path d="     M49.154,44.418c2.076-1.289,4.455-2.166,7.039-2.496c9.631-1.234,18.439,5.572,19.674,15.205S70.293,75.566,60.66,76.801     c-9.629,1.234-18.439-5.574-19.673-15.205c-0.629-4.916,0.837-9.615,3.702-13.205" fill="none" stroke="#394553" stroke-linecap="round" stroke-linejoin="round" stroke-miterlimit="10" stroke-width="2.5"/></g></g><path d="M50.307,64.387" fill="none" stroke="#394553" stroke-linecap="round" stroke-miterlimit="10" stroke-width="2.5"/><path d="M60.471,49.635" fill="none" stroke="#394553" stroke-linecap="round" stroke-miterlimit="10" stroke-width="2.5"/><path d="M37.312,60.342   c-1.578-0.156-2.843-0.455-4.124-0.869" fill="none" stroke="#394553" stroke-linejoin="round" stroke-miterlimit="10" stroke-width="2.5"/><path d="M37.759,53.398   c-1.476-0.18-3.641-0.488-4.837-0.895" fill="none" stroke="#394553" stroke-linejoin="round" stroke-miterlimit="10" stroke-width="2.5"/><path d="M40.203,46.695   c-2.354-0.059-5.33-0.428-7.135-1.025" fill="none" stroke="#394553" stroke-linejoin="round" stroke-miterlimit="10" stroke-width="2.5"/><g><path d="M53.584,62.885    c0,2.043,2.15,3.699,4.805,3.699s4.803-1.656,4.803-3.699s-2.562-2.936-4.812-3.881c-2.252-0.947-4.816-1.84-4.816-3.883    s2.15-3.697,4.805-3.697s4.805,1.654,4.805,3.697" fill="none" stroke="#394553" stroke-linecap="round" stroke-miterlimit="10" stroke-width="2.5"/><line fill="none" stroke="#394553" stroke-miterlimit="10" stroke-width="2.5" x1="58.367" x2="58.367" y1="51.406" y2="47.963"/><line fill="none" stroke="#394553" stroke-miterlimit="10" stroke-width="2.5" x1="58.367" x2="58.367" y1="70.219" y2="66.604"/></g><g><ellipse cx="39.993" cy="13.62" fill="none" rx="12.019" ry="5.564" stroke="#394553" stroke-linejoin="round" stroke-miterlimit="10" stroke-width="2.5"/><path d="M27.975,20.52    c0,3.072,5.38,5.564,12.02,5.564c6.637,0,12.018-2.492,12.018-5.564" fill="none" stroke="#394553" stroke-linejoin="round" stroke-miterlimit="10" stroke-width="2.5"/><path d="M52.012,27.42    c0,3.071-5.381,5.564-12.018,5.564c-6.64,0-12.02-2.493-12.02-5.564" fill="none" stroke="#394553" stroke-linejoin="round" stroke-miterlimit="10" stroke-width="2.5"/><path d="    M52.012,34.321c0,3.071-5.381,5.564-12.018,5.564c-0.898,0-1.775-0.047-2.617-0.133" fill="none" stroke="#394553" stroke-linecap="round" stroke-linejoin="round" stroke-miterlimit="10" stroke-width="2.5"/><line fill="none" stroke="#394553" stroke-linecap="round" stroke-linejoin="round" stroke-miterlimit="10" stroke-width="2.5" x1="52.012" x2="52.012" y1="42.293" y2="13.838"/><ellipse cx="21.007" cy="41.895" fill="none" rx="12.02" ry="5.564" stroke="#394553" stroke-linejoin="round" stroke-miterlimit="10" stroke-width="2.5"/><path d="M8.987,48.795    c0,3.072,5.382,5.564,12.02,5.564s12.02-2.492,12.02-5.564" fill="none" stroke="#394553" stroke-linejoin="round" stroke-miterlimit="10" stroke-width="2.5"/><path d="M33.026,55.695    c0,3.072-5.382,5.564-12.02,5.564S9.014,58.768,9.014,55.695" fill="none" stroke="#394553" stroke-linejoin="round" stroke-miterlimit="10" stroke-width="2.5"/><line fill="none" stroke="#394553" stroke-linejoin="round" stroke-miterlimit="10" stroke-width="2.5" x1="27.975" x2="27.975" y1="19.414" y2="33.266"/><path d="M33.026,41.988V62.65    c0,3.072-5.382,5.564-12.02,5.564s-12.02-2.492-12.02-5.564V47.779" fill="none" stroke="#394553" stroke-linejoin="round" stroke-miterlimit="10" stroke-width="2.5"/></g></g></svg>