<?xml version="1.0" ?><!DOCTYPE svg  PUBLIC '-//W3C//DTD SVG 1.1//EN'  'http://www.w3.org/Graphics/SVG/1.1/DTD/svg11.dtd'><svg enable-background="new 0 0 85 85" height="85px" id="Layer_1" version="1.1" viewBox="0 0 85 85" width="85px" xml:space="preserve" xmlns="http://www.w3.org/2000/svg" xmlns:xlink="http://www.w3.org/1999/xlink"><g><g><ellipse cx="58.8" cy="45.444" fill="none" rx="10.994" ry="5.089" stroke="#394553" stroke-linejoin="round" stroke-miterlimit="10" stroke-width="2.5"/><path d="M47.807,51.756    c0,2.812,4.922,5.089,10.993,5.089c6.072,0,10.994-2.277,10.994-5.089" fill="none" stroke="#394553" stroke-linejoin="round" stroke-miterlimit="10" stroke-width="2.5"/><path d="M69.794,58.066    c0,2.811-4.922,5.09-10.994,5.09c-6.071,0-10.969-2.279-10.969-5.09" fill="none" stroke="#394553" stroke-linejoin="round" stroke-miterlimit="10" stroke-width="2.5"/><path d="M69.794,45.529v18.899    c0,2.811-4.922,5.09-10.994,5.09c-6.071,0-10.993-2.279-10.993-5.09V45.424" fill="none" stroke="#394553" stroke-linejoin="round" stroke-miterlimit="10" stroke-width="2.5"/></g><g><g><path d="M43.844,64.95H17.986     c-1.528,0-2.779-1.285-2.779-2.813V18.26c0-1.528,1.251-2.778,2.779-2.778h30.031c1.529,0,2.778,1.25,2.778,2.778v19.254" fill="none" stroke="#394553" stroke-linejoin="round" stroke-miterlimit="10" stroke-width="2.5"/><line fill="none" stroke="#394553" stroke-miterlimit="10" stroke-width="2.5" x1="19.798" x2="50.724" y1="31.777" y2="31.777"/><line fill="none" stroke="#394553" stroke-miterlimit="10" stroke-width="2.5" x1="27.092" x2="27.092" y1="31.948" y2="64.728"/><line fill="none" stroke="#394553" stroke-miterlimit="10" stroke-width="2.5" x1="38.973" x2="38.973" y1="31.915" y2="64.685"/><line fill="none" stroke="#394553" stroke-miterlimit="10" stroke-width="2.5" x1="37.345" x2="37.345" y1="20.831" y2="26.764"/><line fill="none" stroke="#394553" stroke-miterlimit="10" stroke-width="2.5" x1="43.956" x2="43.956" y1="20.831" y2="26.764"/><line fill="none" stroke="#394553" stroke-miterlimit="10" stroke-width="2.5" x1="19.798" x2="44.229" y1="42.799" y2="42.799"/><line fill="none" stroke="#394553" stroke-miterlimit="10" stroke-width="2.5" x1="19.798" x2="38.755" y1="53.821" y2="53.821"/></g></g></g></svg>