<?xml version="1.0" ?><!DOCTYPE svg  PUBLIC '-//W3C//DTD SVG 1.1//EN'  'http://www.w3.org/Graphics/SVG/1.1/DTD/svg11.dtd'><svg enable-background="new 0 0 85 85" height="85px" id="Layer_1" version="1.1" viewBox="0 0 85 85" width="85px" xml:space="preserve" xmlns="http://www.w3.org/2000/svg" xmlns:xlink="http://www.w3.org/1999/xlink"><g><g><g><g><path d="M44.244,66.074      c0,2.164,1.888,3.918,4.212,3.918c2.33,0,4.216-1.754,4.216-3.918s-2.249-3.109-4.227-4.113c-1.973-1-4.219-1.947-4.219-4.111      c0-2.166,1.884-3.918,4.212-3.918s4.215,1.752,4.215,3.918" fill="none" stroke="#394553" stroke-linecap="round" stroke-miterlimit="10" stroke-width="2.5"/><line fill="none" stroke="#394553" stroke-linecap="round" stroke-miterlimit="10" stroke-width="2.5" x1="48.438" x2="48.438" y1="53.912" y2="51.039"/><line fill="none" stroke="#394553" stroke-linecap="round" stroke-miterlimit="10" stroke-width="2.5" x1="48.438" x2="48.438" y1="72.891" y2="70.014"/></g></g><g><g><path d="M60.795,42.139      c1.753,0,3.188,1.457,3.188,3.24v0.75c0,1.779-1.435,3.238-3.188,3.238h-5.312c-1.752,0-3.189-1.459-3.189-3.238v-0.75      c0-1.783,1.438-3.24,3.189-3.24H60.795z" fill="none" stroke="#394553" stroke-miterlimit="10" stroke-width="2.5"/><path d="M62.768,34.911      c1.753,0,3.187,1.459,3.187,3.238v0.75c0,1.781-1.434,3.24-3.187,3.24h-7.285c-1.752,0-3.189-1.459-3.189-3.24v-0.75      c0-1.779,1.438-3.238,3.189-3.238H62.768z" fill="none" stroke="#394553" stroke-miterlimit="10" stroke-width="2.5"/><path d="M53.954,20.453h6.877      c1.754,0,3.188,1.459,3.188,3.241v0.75c0,1.781-1.435,3.24-3.188,3.24h-6.678" fill="none" stroke="#394553" stroke-miterlimit="10" stroke-width="2.5"/><path d="M54.601,27.684h9.635      c1.754,0,3.188,1.455,3.188,3.238v0.748c0,1.783-1.435,3.24-3.188,3.24h-9.635" fill="none" stroke="#394553" stroke-miterlimit="10" stroke-width="2.5"/><path d="M40.256,33.966      c0,0,6.597-2.276,6.597-9.181" fill="none" stroke="#394553" stroke-linecap="round" stroke-miterlimit="10" stroke-width="2.5"/><path d="      M24.701,43.879h3.99c0,0,2.606,2.809,5.924,4.07" fill="none" stroke="#394553" stroke-linecap="round" stroke-linejoin="round" stroke-miterlimit="10" stroke-width="2.5"/><path d="      M46.865,21.987v6.998c0,5.311,6.76,5.312,6.76,5.312s0-13.609,0-15.051c0-2.429-1.672-3.794-1.672-3.794      c-6.07-1.671-10.938,0.384-10.938,0.384c-1.974,0.605-9.4,6.514-9.4,6.514c-1.52,1.291-3.037,1.52-3.037,1.52" fill="none" stroke="#394553" stroke-linecap="round" stroke-linejoin="round" stroke-miterlimit="10" stroke-width="2.5"/></g></g><path d="M42.47,37.559    c-0.841,2.413-3.312,7.167-10.567,13.779c-5.036,4.59-5.588,10.541-5.588,14.893c0,7.096,4.833,14.67,21.858,14.67    s21.858-7.574,21.858-14.67c0-4.102-0.484-9.627-4.761-14.09" fill="none" stroke="#394553" stroke-miterlimit="10" stroke-width="2.5"/><path d="M42.946,11.177    c0,0-1.379-4.304-5.127-7.077h11.914l-1.019,5.45" fill="none" stroke="#394553" stroke-linejoin="round" stroke-miterlimit="10" stroke-width="2.5"/><path d="M53.372,7.193h9.419    c0,0-6.868,4.757-6.868,12.257" fill="none" stroke="#394553" stroke-linejoin="round" stroke-miterlimit="10" stroke-width="2.5"/></g><polyline fill="none" points="14.968,20.14    23.49,20.14 23.49,48.016 14.968,48.016  " stroke="#394553" stroke-linejoin="round" stroke-miterlimit="10" stroke-width="2.5"/></g></svg>