<?xml version="1.0" ?><!DOCTYPE svg  PUBLIC '-//W3C//DTD SVG 1.1//EN'  'http://www.w3.org/Graphics/SVG/1.1/DTD/svg11.dtd'><svg enable-background="new 0 0 85 85" height="85px" id="Layer_1" version="1.1" viewBox="0 0 85 85" width="85px" xml:space="preserve" xmlns="http://www.w3.org/2000/svg" xmlns:xlink="http://www.w3.org/1999/xlink"><g><g><g><polyline fill="none" points="     32.236,62.037 32.236,68.801 23.228,68.801 23.228,65.725    " stroke="#394553" stroke-linejoin="round" stroke-miterlimit="10" stroke-width="2.5"/><polyline fill="none" points="     64.861,62.037 64.861,68.801 55.854,68.801 55.854,65.725    " stroke="#394553" stroke-linejoin="round" stroke-miterlimit="10" stroke-width="2.5"/></g><path d="M14.968,26.089v-4.891c0-2.75,2.25-5,5-5h48.153    c2.75,0,5,2.25,5,5v35.885c0,2.75-2.25,5-5,5H19.968c-2.75,0-5-2.25-5-5v-9.213" fill="none" stroke="#394553" stroke-miterlimit="10" stroke-width="2.5"/><path d="M14.968,43.49V30.37" fill="none" stroke="#394553" stroke-miterlimit="10" stroke-width="2.5"/></g><line fill="none" stroke="#394553" stroke-linecap="round" stroke-miterlimit="10" stroke-width="2.5" x1="66.382" x2="66.382" y1="29.141" y2="49.141"/><g><circle cx="44.045" cy="39.142" fill="none" r="10" stroke="#394553" stroke-linecap="round" stroke-miterlimit="10" stroke-width="2.5"/><path d="M44.045,34.142    c2.762,0,5,2.238,5,5c0,2.762-2.238,5-5,5s-5-2.238-5-5" fill="none" stroke="#394553" stroke-linecap="round" stroke-miterlimit="10" stroke-width="2.5"/><g><line fill="none" stroke="#394553" stroke-miterlimit="10" stroke-width="2.5" x1="44.045" x2="44.045" y1="29.017" y2="24.267"/><line fill="none" stroke="#394553" stroke-miterlimit="10" stroke-width="2.5" x1="44.045" x2="44.045" y1="54.018" y2="49.268"/></g><g><line fill="none" stroke="#394553" stroke-miterlimit="10" stroke-width="2.5" x1="36.885" x2="33.526" y1="31.982" y2="28.624"/><line fill="none" stroke="#394553" stroke-miterlimit="10" stroke-width="2.5" x1="54.562" x2="51.204" y1="49.66" y2="46.301"/></g><g><line fill="none" stroke="#394553" stroke-miterlimit="10" stroke-width="2.5" x1="54.17" x2="58.92" y1="39.142" y2="39.142"/><line fill="none" stroke="#394553" stroke-miterlimit="10" stroke-width="2.5" x1="29.17" x2="33.92" y1="39.142" y2="39.142"/></g><g><line fill="none" stroke="#394553" stroke-miterlimit="10" stroke-width="2.5" x1="51.204" x2="54.563" y1="31.982" y2="28.624"/><line fill="none" stroke="#394553" stroke-miterlimit="10" stroke-width="2.5" x1="33.526" x2="36.886" y1="49.66" y2="46.301"/></g></g><g><line fill="none" stroke="#394553" stroke-linecap="round" stroke-miterlimit="10" stroke-width="2.5" x1="11.879" x2="20.379" y1="30.492" y2="30.492"/><line fill="none" stroke="#394553" stroke-linecap="round" stroke-miterlimit="10" stroke-width="2.5" x1="11.879" x2="20.379" y1="47.791" y2="47.791"/></g></g></svg>