<?xml version="1.0" ?><!DOCTYPE svg  PUBLIC '-//W3C//DTD SVG 1.1//EN'  'http://www.w3.org/Graphics/SVG/1.1/DTD/svg11.dtd'><svg enable-background="new 0 0 85 85" height="85px" id="Layer_1" version="1.1" viewBox="0 0 85 85" width="85px" xml:space="preserve" xmlns="http://www.w3.org/2000/svg" xmlns:xlink="http://www.w3.org/1999/xlink"><g><g><path d="M61.828,16.244v39.915    c0,2.773-2.27,5.043-5.043,5.043H42.171" fill="none" stroke="#394553" stroke-linejoin="round" stroke-miterlimit="10" stroke-width="2.5"/><path d="M28.533,46.43V16.244" fill="none" stroke="#394553" stroke-linejoin="round" stroke-miterlimit="10" stroke-width="2.5"/><line fill="none" stroke="#394553" stroke-linecap="round" stroke-linejoin="round" stroke-miterlimit="10" stroke-width="2.5" x1="52.746" x2="52.746" y1="16.244" y2="61.051"/></g><path d="M23.198,59.305   L34.916,46.73c2.003-2.066,5.13-2.479,6.953-0.908c1.823,1.568,1.993,4.803,0.381,7.188L27.526,74.838" fill="none" stroke="#394553" stroke-linejoin="round" stroke-miterlimit="10" stroke-width="2.5"/><path d="M28.948,37.367c0,0-15.101,12.856-15.445,14.874   c-0.283,1.641,0.274,16.699,0.493,22.553" fill="none" stroke="#394553" stroke-miterlimit="10" stroke-width="2.5"/><path d="M24.428,21.564h-2.516   c-1.718,0-3.125-1.408-3.125-3.125v-5.152c0-1.719,1.407-3.125,3.125-3.125h46.537c1.719,0,3.127,1.406,3.127,3.125v5.152   c0,1.717-1.408,3.125-3.127,3.125h-2.211" fill="none" stroke="#394553" stroke-miterlimit="10" stroke-width="2.5"/><line fill="none" stroke="#394553" stroke-linecap="round" stroke-miterlimit="10" stroke-width="2.5" x1="24.399" x2="65.963" y1="15.863" y2="15.863"/></g></svg>