<?xml version="1.0" ?><!DOCTYPE svg  PUBLIC '-//W3C//DTD SVG 1.1//EN'  'http://www.w3.org/Graphics/SVG/1.1/DTD/svg11.dtd'><svg enable-background="new 0 0 85 85" height="85px" id="Layer_1" version="1.1" viewBox="0 0 85 85" width="85px" xml:space="preserve" xmlns="http://www.w3.org/2000/svg" xmlns:xlink="http://www.w3.org/1999/xlink"><g><g><polyline fill="none" points="    33.296,28.551 25.132,14.118 34.737,17.209   " stroke="#394553" stroke-linejoin="round" stroke-miterlimit="10" stroke-width="2.5"/><polyline fill="none" points="    38.67,21.543 42.534,8.444 46.869,19.469 59.4,15.35 48.873,27.182 41.165,27.204   " stroke="#394553" stroke-linecap="round" stroke-linejoin="round" stroke-miterlimit="10" stroke-width="2.5"/><path d="    M20.633,59.719V46.596c0-8.371,5.325-15.238,12.663-18.044" fill="none" stroke="#394553" stroke-linecap="round" stroke-linejoin="round" stroke-miterlimit="10" stroke-width="2.5"/><path d="    M44.365,27.204c11,0,20,8.393,20,19.392v19.184c0,0,4.445,6.49,2.035,10.777H18.599c-2.41-4.287,2.034-10.777,2.034-10.777" fill="none" stroke="#394553" stroke-linecap="round" stroke-linejoin="round" stroke-miterlimit="10" stroke-width="2.5"/></g><g><path d="M37.517,57.512    c0,2.564,2.236,4.643,4.993,4.643c2.759,0,4.994-2.078,4.994-4.643s-2.666-3.689-5.005-4.875    c-2.339-1.189-5.003-2.311-5.003-4.875s2.234-4.645,4.993-4.645c2.757,0,4.992,2.08,4.992,4.645" fill="none" stroke="#394553" stroke-linecap="round" stroke-miterlimit="10" stroke-width="2.5"/><line fill="none" stroke="#394553" stroke-linecap="round" stroke-miterlimit="10" stroke-width="2.5" x1="42.489" x2="42.489" y1="43.096" y2="40.02"/><line fill="none" stroke="#394553" stroke-linecap="round" stroke-miterlimit="10" stroke-width="2.5" x1="42.489" x2="42.489" y1="65.254" y2="62.178"/></g></g></svg>