<?xml version="1.0" ?><!DOCTYPE svg  PUBLIC '-//W3C//DTD SVG 1.1//EN'  'http://www.w3.org/Graphics/SVG/1.1/DTD/svg11.dtd'><svg enable-background="new 0 0 85 85" height="85px" id="Layer_1" version="1.1" viewBox="0 0 85 85" width="85px" xml:space="preserve" xmlns="http://www.w3.org/2000/svg" xmlns:xlink="http://www.w3.org/1999/xlink"><g><g><g><path d="M37.325,68.198     c-2.61,0-4.747-2.205-4.747-4.818V45.035c0-2.61,2.137-4.747,4.747-4.747h35.599c2.612,0,4.748,2.137,4.748,4.747V63.38     c0,2.613-2.136,4.818-4.748,4.818H37.325z" fill="none" stroke="#394553" stroke-miterlimit="10" stroke-width="2.5"/><line fill="none" stroke="#394553" stroke-linejoin="round" stroke-miterlimit="10" stroke-width="2.5" x1="38.333" x2="61.081" y1="61.156" y2="61.156"/><line fill="none" stroke="#394553" stroke-linejoin="round" stroke-miterlimit="10" stroke-width="2.5" x1="38.333" x2="53.359" y1="55.087" y2="55.087"/></g><circle cx="66.145" cy="50.632" fill="none" r="4.578" stroke="#394553" stroke-linecap="round" stroke-linejoin="round" stroke-miterlimit="10" stroke-width="2.5"/></g><path d="M8.587,25.126" fill="none" stroke="#394553" stroke-linejoin="round" stroke-miterlimit="10" stroke-width="2.5"/><g><g><g><path d="M22.61,32.146c-1.104,0-2.001,0.897-2.001,2s0.897,2,2.001,2c1.102,0,1.999-0.897,1.999-2      S23.712,32.146,22.61,32.146z" fill="#394553"/><circle cx="53.318" cy="34.146" fill="#394553" r="2"/></g><polyline fill="none" points="28.172,51.668 7.328,51.668      7.328,16.802 68.777,16.802 68.777,35.723    " stroke="#394553" stroke-miterlimit="10" stroke-width="2.5"/><path d="M62.325,35.723v-8.036     c-2.431,0-4.401-1.97-4.401-4.399H18.182c0,2.43-1.971,4.399-4.398,4.399v13.098c2.428,0,4.398,1.971,4.398,4.4h9.99" fill="none" stroke="#394553" stroke-miterlimit="10" stroke-width="2.5"/><path d="M33.207,36.8     c-0.354-0.772-0.554-1.643-0.554-2.564c0-3.207,2.418-5.809,5.399-5.809c2.981,0,5.4,2.602,5.4,5.809     c0,0.535-0.067,1.055-0.193,1.547" fill="none" stroke="#394553" stroke-miterlimit="10" stroke-width="2.5"/></g></g></g></svg>