<?xml version="1.0" ?><!DOCTYPE svg  PUBLIC '-//W3C//DTD SVG 1.1//EN'  'http://www.w3.org/Graphics/SVG/1.1/DTD/svg11.dtd'><svg enable-background="new 0 0 85 85" height="85px" id="Layer_1" version="1.1" viewBox="0 0 85 85" width="85px" xml:space="preserve" xmlns="http://www.w3.org/2000/svg" xmlns:xlink="http://www.w3.org/1999/xlink"><g><g><g><circle cx="31.85" cy="42.5" fill="#394553" r="1.936"/><circle cx="53.15" cy="42.499" fill="#394553" r="1.936"/></g><g><rect fill="none" height="24.669" stroke="#394553" stroke-miterlimit="10" stroke-width="2.5" width="43.479" x="20.762" y="30.165"/></g><path d="M47.328,42.498c0,3.725-2.16,6.746-4.829,6.746    c-2.666,0-4.828-3.021-4.828-6.746c0-3.723,2.162-6.742,4.828-6.742C45.168,35.756,47.328,38.775,47.328,42.498z" fill="none" stroke="#394553" stroke-miterlimit="10" stroke-width="2.5"/></g><g><g><path d="M39.575,10.378" fill="none" stroke="#394553" stroke-miterlimit="10" stroke-width="2.5"/><path d="M69.084,26.371     c-5.709-9.423-15.688-15.047-26.69-15.047h-1.075V4.458l-12.33,8.248l12.33,8.256V15.7" fill="none" stroke="#394553" stroke-linejoin="round" stroke-miterlimit="10" stroke-width="2.5"/><path d="M15.915,58.629     c5.71,9.421,15.688,15.046,26.692,15.046h1.075v6.866l12.33-8.248l-12.33-8.256v5.261" fill="none" stroke="#394553" stroke-linejoin="round" stroke-miterlimit="10" stroke-width="2.5"/><path d="M11.489,40.537     c-0.041,0.658-0.062,1.32-0.062,1.986c0,4.452,0.921,8.75,2.738,12.778" fill="none" stroke="#394553" stroke-linejoin="round" stroke-miterlimit="10" stroke-width="2.5"/><path d="M15.187,27.676     c-1.503,2.765-2.571,5.73-3.176,8.814" fill="none" stroke="#394553" stroke-linejoin="round" stroke-miterlimit="10" stroke-width="2.5"/><path d="M21.688,19.414     c-1.733,1.57-3.29,3.331-4.625,5.235" fill="none" stroke="#394553" stroke-linejoin="round" stroke-miterlimit="10" stroke-width="2.5"/><path d="M73.512,44.461     c0.039-0.656,0.062-1.318,0.062-1.984c0-4.451-0.922-8.751-2.738-12.779" fill="none" stroke="#394553" stroke-linejoin="round" stroke-miterlimit="10" stroke-width="2.5"/><path d="M69.814,57.324     c1.502-2.766,2.569-5.731,3.176-8.815" fill="none" stroke="#394553" stroke-linejoin="round" stroke-miterlimit="10" stroke-width="2.5"/><path d="M63.311,65.585     c1.734-1.569,3.291-3.331,4.627-5.235" fill="none" stroke="#394553" stroke-linejoin="round" stroke-miterlimit="10" stroke-width="2.5"/></g></g><path d="M48.705,49.992h6.9   c0-1.982,1.608-3.592,3.592-3.592v-7.803c-1.982,0-3.592-1.608-3.592-3.592h-6.9" fill="none" stroke="#394553" stroke-miterlimit="10" stroke-width="2.5"/><path d="M36.436,35.006h-7.04   c0,1.983-1.608,3.592-3.592,3.592V46.4c1.983,0,3.592,1.608,3.592,3.592h7.04" fill="none" stroke="#394553" stroke-miterlimit="10" stroke-width="2.5"/></g></svg>