<?xml version="1.0" ?><!DOCTYPE svg  PUBLIC '-//W3C//DTD SVG 1.1//EN'  'http://www.w3.org/Graphics/SVG/1.1/DTD/svg11.dtd'><svg enable-background="new 0 0 85 85" height="85px" id="Layer_1" version="1.1" viewBox="0 0 85 85" width="85px" xml:space="preserve" xmlns="http://www.w3.org/2000/svg" xmlns:xlink="http://www.w3.org/1999/xlink"><g><g><g><circle cx="23.45" cy="16.472" fill="none" r="5.413" stroke="#394553" stroke-miterlimit="10" stroke-width="2.5"/><path d="M16.374,52.762     c-3.955,0-5.314-3.234-5.314-7.188V34.097c0-3.953,3.234-7.188,7.187-7.188h10.409c3.954,0,7.19,3.235,7.19,7.188v11.477     c0,3.953-1.362,7.188-5.316,7.188" fill="none" stroke="#394553" stroke-miterlimit="10" stroke-width="2.5"/><g><line fill="none" stroke="#394553" stroke-miterlimit="10" stroke-width="2.5" x1="30.594" x2="30.594" y1="36.271" y2="73.943"/><line fill="none" stroke="#394553" stroke-miterlimit="10" stroke-width="2.5" x1="23.451" x2="23.451" y1="53.076" y2="73.943"/><line fill="none" stroke="#394553" stroke-miterlimit="10" stroke-width="2.5" x1="16.312" x2="16.312" y1="36.271" y2="73.943"/></g></g></g><g><g><g><path d="M60.027,54.955c-1.106,0-2.006,0.9-2.006,2.008c0,1.108,0.899,2.01,2.006,2.01      c1.109,0,2.012-0.901,2.012-2.01C62.039,55.855,61.137,54.955,60.027,54.955z" fill="#394553"/><polyline fill="none" points="40.384,41.188 73.939,41.188       73.939,72.742 35.409,72.742     " stroke="#394553" stroke-miterlimit="10" stroke-width="2.5"/><path d="M35.409,66.873h28.708      c0-2.199,1.783-3.982,3.982-3.982V51.037c-2.199,0-3.982-1.783-3.982-3.982H40.384" fill="none" stroke="#394553" stroke-miterlimit="10" stroke-width="2.5"/><ellipse cx="46.134" cy="56.963" fill="none" rx="4.886" ry="5.256" stroke="#394553" stroke-miterlimit="10" stroke-width="2.5"/></g></g></g></g></svg>