<?xml version="1.0" ?><!DOCTYPE svg  PUBLIC '-//W3C//DTD SVG 1.1//EN'  'http://www.w3.org/Graphics/SVG/1.1/DTD/svg11.dtd'><svg enable-background="new 0 0 85 85" height="85px" id="Layer_1" version="1.1" viewBox="0 0 85 85" width="85px" xml:space="preserve" xmlns="http://www.w3.org/2000/svg" xmlns:xlink="http://www.w3.org/1999/xlink"><g><g><g><path d="M37.774,47.123     c0,2.434,2.121,4.402,4.735,4.402c2.618,0,4.739-1.969,4.739-4.402c0-2.432-2.529-3.498-4.749-4.625     c-2.219-1.125-4.746-2.19-4.746-4.621c0-2.435,2.118-4.405,4.736-4.405s4.737,1.971,4.737,4.405" fill="none" stroke="#394553" stroke-linecap="round" stroke-miterlimit="10" stroke-width="2.5"/><line fill="none" stroke="#394553" stroke-linecap="round" stroke-miterlimit="10" stroke-width="2.5" x1="42.49" x2="42.49" y1="33.451" y2="30.498"/><line fill="none" stroke="#394553" stroke-linecap="round" stroke-miterlimit="10" stroke-width="2.5" x1="42.49" x2="42.49" y1="54.502" y2="51.549"/></g></g><g><g><g><path d="      M31.938,27.243c2.996-2.079,6.637-3.298,10.561-3.298c10.249,0,18.553,8.307,18.553,18.551c0,10.246-8.305,18.552-18.553,18.552      c-10.247,0-18.551-8.307-18.551-18.552c0-3.841,1.168-7.411,3.168-10.372" fill="none" stroke="#394553" stroke-linecap="round" stroke-linejoin="round" stroke-miterlimit="10" stroke-width="2.5"/><path d="      M19.957,27.402l1.093,1.542c-1.523,2.405-2.662,5.078-3.309,7.94l-6.598,1.142v8.972l6.596,1.084      c0.645,2.875,1.777,5.562,3.307,7.977l-3.883,5.475l6.326,6.326l5.48-3.887c2.412,1.523,5.098,2.648,7.969,3.291l1.086,6.617      h8.95l1.088-6.617c2.871-0.643,5.555-1.768,7.967-3.291l5.482,3.887l6.324-6.326l-3.883-5.473      c1.523-2.402,2.652-5.08,3.299-7.938l6.605-1.125v-8.972l-6.592-1.103c-0.646-2.877-1.777-5.569-3.309-7.985l3.881-5.472      l-6.326-6.325l-5.477,3.883c-2.414-1.524-5.102-2.651-7.975-3.294l-1.088-6.611h-8.948" fill="none" stroke="#394553" stroke-linecap="round" stroke-linejoin="round" stroke-miterlimit="10" stroke-width="2.5"/><path d="      M37.21,16.077l-0.271,1.655c-2.871,0.643-5.553,1.775-7.965,3.299l-5.484-3.89l-6.324,6.325" fill="none" stroke="#394553" stroke-linecap="round" stroke-linejoin="round" stroke-miterlimit="10" stroke-width="2.5"/></g></g></g></g></svg>