<?xml version="1.0" ?><!DOCTYPE svg  PUBLIC '-//W3C//DTD SVG 1.1//EN'  'http://www.w3.org/Graphics/SVG/1.1/DTD/svg11.dtd'><svg enable-background="new 0 0 85 85" height="85px" id="Layer_1" version="1.1" viewBox="0 0 85 85" width="85px" xml:space="preserve" xmlns="http://www.w3.org/2000/svg" xmlns:xlink="http://www.w3.org/1999/xlink"><g><circle cx="29.121" cy="33.753" fill="#394553" r="2.028"/><g><g><g><line fill="none" stroke="#394553" stroke-linecap="round" stroke-linejoin="round" stroke-miterlimit="10" stroke-width="2.5" x1="68.666" x2="75.592" y1="36.164" y2="32.802"/><path d="M60.473,26.464      c5.801,4.141,9.539,10.549,9.539,17.706c0,8.865-5.787,16.58-14.072,20.268v7.203c0,1.103-0.899,2-2,2h-4.377      c-1.1,0-2-0.897-2-2v-5.006c-0.815,0.074-1.713,0.111-2.551,0.111H41.15c-0.836,0-1.7-0.037-2.517-0.111v5.006      c0,1.103-0.898,2-2,2h-4.377c-1.1,0-2-0.897-2-2v-7.158c0,0-0.113-0.057-0.139-0.065c-5.293-2.369-9.539-6.472-11.906-11.377      l-5.281,0.002c0,0-5.902-20.19-2.426-18.991c4.248,1.465,8.008,0.057,8.23-0.078c0.275-0.164,0.422-0.35,0.422-0.35      c2.117-3.619,5.258-6.645,9.078-8.756l0.053-0.061l-0.119-8.881c4.762,0,8.729,6.008,8.729,6.008l0.123,0.002      c1.35-0.205,2.711-0.34,4.13-0.34h2.729" fill="none" stroke="#394553" stroke-linejoin="round" stroke-miterlimit="10" stroke-width="2.5"/></g><circle cx="54.135" cy="17.692" fill="none" r="6.333" stroke="#394553" stroke-linejoin="round" stroke-miterlimit="10" stroke-width="2.5"/></g><path d="    M41.309,29.421c0,0,5.824-1.396,10.617,0.643" fill="none" stroke="#394553" stroke-linecap="round" stroke-linejoin="round" stroke-miterlimit="10" stroke-width="2.5"/></g></g></svg>