<?xml version="1.0" ?><!DOCTYPE svg  PUBLIC '-//W3C//DTD SVG 1.1//EN'  'http://www.w3.org/Graphics/SVG/1.1/DTD/svg11.dtd'><svg enable-background="new 0 0 85 85" height="85px" id="Layer_1" version="1.1" viewBox="0 0 85 85" width="85px" xml:space="preserve" xmlns="http://www.w3.org/2000/svg" xmlns:xlink="http://www.w3.org/1999/xlink"><g><g><g><path d="M60.809,61.694     c0,1.867,1.629,3.379,3.635,3.379c2.01,0,3.637-1.512,3.637-3.379s-1.939-2.684-3.645-3.549c-1.701-0.863-3.641-1.68-3.641-3.548     c0-1.865,1.625-3.38,3.635-3.38c2.008,0,3.633,1.515,3.633,3.38" fill="none" stroke="#394553" stroke-linecap="round" stroke-miterlimit="10" stroke-width="2.5"/><line fill="none" stroke="#394553" stroke-linecap="round" stroke-miterlimit="10" stroke-width="2.5" x1="64.43" x2="64.43" y1="51.202" y2="48.726"/><line fill="none" stroke="#394553" stroke-linecap="round" stroke-miterlimit="10" stroke-width="2.5" x1="64.43" x2="64.43" y1="67.572" y2="65.091"/></g></g><circle clip-rule="evenodd" cx="64.435" cy="58.146" fill="none" fill-rule="evenodd" r="14.558" stroke="#394553" stroke-linecap="round" stroke-linejoin="round" stroke-miterlimit="10" stroke-width="2.5"/><g><path d="M25.2,19.546v-4.172    c0-1.705,1.371-3.079,3.05-3.079h13.473c1.678,0,3.051,1.374,3.051,3.079v4.172" fill="none" stroke="#394553" stroke-linejoin="round" stroke-miterlimit="10" stroke-width="2.5"/><path d="    M63.965,30.423c0,7.509-11.438,12.645-25.42,12.645h-7.117c-13.981,0-25.42-5.136-25.42-12.645v-6.355h57.957V30.423z" fill="none" stroke="#394553" stroke-linecap="round" stroke-linejoin="round" stroke-miterlimit="10" stroke-width="2.5"/><polyline fill="none" points="    45.734,64.485 6.008,64.485 6.008,41.731   " stroke="#394553" stroke-linejoin="round" stroke-miterlimit="10" stroke-width="2.5"/><polyline fill="none" points="44.779,58.501 12.479,58.501     12.479,52.452   " stroke="#394553" stroke-miterlimit="10" stroke-width="2.5"/><line fill="none" stroke="#394553" stroke-linecap="round" stroke-linejoin="round" stroke-miterlimit="10" stroke-width="2.5" x1="31.216" x2="38.757" y1="35.562" y2="35.562"/></g></g></svg>