<?xml version="1.0" ?><!DOCTYPE svg  PUBLIC '-//W3C//DTD SVG 1.1//EN'  'http://www.w3.org/Graphics/SVG/1.1/DTD/svg11.dtd'><svg enable-background="new 0 0 85 85" height="85px" id="Layer_1" version="1.1" viewBox="0 0 85 85" width="85px" xml:space="preserve" xmlns="http://www.w3.org/2000/svg" xmlns:xlink="http://www.w3.org/1999/xlink"><g><g><g><path d="M60.801,63.385     c0,1.781,1.555,3.223,3.465,3.223c1.918,0,3.469-1.441,3.469-3.223c0-1.779-1.85-2.559-3.477-3.383     c-1.621-0.822-3.471-1.6-3.471-3.381c0-1.779,1.551-3.223,3.465-3.223s3.465,1.443,3.465,3.223" fill="none" stroke="#394553" stroke-linecap="round" stroke-miterlimit="10" stroke-width="2.5"/><line fill="none" stroke="#394553" stroke-linecap="round" stroke-miterlimit="10" stroke-width="2.5" x1="64.252" x2="64.252" y1="53.383" y2="51.02"/><line fill="none" stroke="#394553" stroke-linecap="round" stroke-miterlimit="10" stroke-width="2.5" x1="64.252" x2="64.252" y1="68.99" y2="66.625"/></g><g><path d="     M55.553,49.158c1.406-1.135,3.055-2.01,4.902-2.535c7.369-2.107,15.053,2.16,17.158,9.527c2.104,7.373-2.168,15.053-9.537,17.156     c-7.367,2.107-15.049-2.162-17.154-9.531c-1.023-3.594-0.535-7.26,1.09-10.32" fill="none" stroke="#394553" stroke-linecap="round" stroke-linejoin="round" stroke-miterlimit="10" stroke-width="2.5"/></g></g><path d="   M63.668,52.236" fill="none" stroke="#394553" stroke-linecap="round" stroke-linejoin="round" stroke-miterlimit="10" stroke-width="2.5"/><g><g><line fill="none" stroke="#394553" stroke-miterlimit="10" stroke-width="2.5" x1="47.434" x2="6.85" y1="67.096" y2="67.096"/></g></g><polyline fill="none" points="43.473,62.658    43.473,21.898 53.566,21.898 53.566,45.014  " stroke="#394553" stroke-linejoin="round" stroke-miterlimit="10" stroke-width="2.5"/><polyline fill="none" points="27.289,62.658    27.289,11.155 37.382,11.155 37.382,62.658  " stroke="#394553" stroke-linejoin="round" stroke-miterlimit="10" stroke-width="2.5"/><polyline fill="none" points="11.103,62.658    11.103,34.898 21.197,34.898 21.197,62.658  " stroke="#394553" stroke-linejoin="round" stroke-miterlimit="10" stroke-width="2.5"/></g></svg>