<?xml version="1.0" ?><!DOCTYPE svg  PUBLIC '-//W3C//DTD SVG 1.1//EN'  'http://www.w3.org/Graphics/SVG/1.1/DTD/svg11.dtd'><svg enable-background="new 0 0 85 85" height="85px" id="Layer_1" version="1.1" viewBox="0 0 85 85" width="85px" xml:space="preserve" xmlns="http://www.w3.org/2000/svg" xmlns:xlink="http://www.w3.org/1999/xlink"><g><g><g><path d="M38.057,37.031     c0,2.29,1.996,4.144,4.455,4.144c2.463,0,4.457-1.854,4.457-4.144c0-2.288-2.379-3.29-4.467-4.35     c-2.088-1.059-4.465-2.061-4.465-4.349c0-2.289,1.992-4.145,4.457-4.145c2.461,0,4.455,1.855,4.455,4.145" fill="none" stroke="#394553" stroke-linecap="round" stroke-miterlimit="10" stroke-width="2.5"/><line fill="none" stroke="#394553" stroke-linecap="round" stroke-miterlimit="10" stroke-width="2.5" x1="42.494" x2="42.494" y1="24.168" y2="21.389"/><line fill="none" stroke="#394553" stroke-linecap="round" stroke-miterlimit="10" stroke-width="2.5" x1="42.494" x2="42.494" y1="43.977" y2="41.196"/></g></g><g><g><g><polyline fill="none" points="32.752,13.184 32.752,23.792       26.923,23.792     " stroke="#394553" stroke-miterlimit="10" stroke-width="2.5"/></g><path d="M42.5,36.089" fill="none" stroke="#394553" stroke-linejoin="round" stroke-miterlimit="10" stroke-width="2.5"/><path d="M42.5,49.463" fill="none" stroke="#394553" stroke-miterlimit="10" stroke-width="2.5"/><g><path d="      M58.475,64.977c0,0-13.957-10.816-14.564-11.318c-0.605-0.502-1.848-0.475-2.576,0.088      c-0.898,0.691-14.809,11.229-14.809,11.229" fill="none" stroke="#394553" stroke-linecap="round" stroke-linejoin="round" stroke-miterlimit="10" stroke-width="2.5"/></g><g><line fill="none" stroke="#394553" stroke-linecap="round" stroke-linejoin="round" stroke-miterlimit="10" stroke-width="2.5" x1="38.986" x2="18.971" y1="55.031" y2="39.096"/><line fill="none" stroke="#394553" stroke-linecap="round" stroke-linejoin="round" stroke-miterlimit="10" stroke-width="2.5" x1="46.068" x2="66.029" y1="55.031" y2="39.125"/></g><polyline fill="none" points="     62.684,41.604 62.684,12.981 31.408,12.981 22.275,20.978 22.275,35.539    " stroke="#394553" stroke-linejoin="round" stroke-miterlimit="10" stroke-width="2.5"/><path d="M18.941,39.096v30.275     c0,1.451,1.211,2.648,2.688,2.648h41.742c1.477,0,2.688-1.197,2.688-2.648V39.096h-3.412" fill="none" stroke="#394553" stroke-linejoin="round" stroke-miterlimit="10" stroke-width="2.5"/></g></g></g></svg>