<?xml version="1.0" ?><!DOCTYPE svg  PUBLIC '-//W3C//DTD SVG 1.1//EN'  'http://www.w3.org/Graphics/SVG/1.1/DTD/svg11.dtd'><svg enable-background="new 0 0 85 85" height="85px" id="Layer_1" version="1.1" viewBox="0 0 85 85" width="85px" xml:space="preserve" xmlns="http://www.w3.org/2000/svg" xmlns:xlink="http://www.w3.org/1999/xlink"><g><path d="M27.717,15.211H26.69   c-1.649,0-3,1.351-3,3v43.934c0,1.65,1.351,3,3,3h31.618c1.65,0,3-1.35,3-3V18.211c0-1.649-1.35-3-3-3H57.23" fill="none" stroke="#394553" stroke-linejoin="round" stroke-miterlimit="10" stroke-width="2.5"/><line fill="none" stroke="#394553" stroke-linecap="round" stroke-miterlimit="10" stroke-width="2.5" x1="29.269" x2="55.73" y1="22.143" y2="22.143"/><g><polyline fill="none" points="52.635,22.009 52.635,7.602     32.364,7.602 32.364,22.009   " stroke="#394553" stroke-miterlimit="10" stroke-width="2.5"/></g><rect fill="none" height="7.58" stroke="#394553" stroke-miterlimit="10" stroke-width="2.5" width="22.5" x="31.25" y="29.066"/><g><g><line fill="none" stroke="#394553" stroke-miterlimit="10" stroke-width="2.5" x1="29.967" x2="35.967" y1="43.678" y2="43.678"/><line fill="none" stroke="#394553" stroke-miterlimit="10" stroke-width="2.5" x1="29.967" x2="35.967" y1="50.684" y2="50.684"/><line fill="none" stroke="#394553" stroke-miterlimit="10" stroke-width="2.5" x1="29.967" x2="35.967" y1="57.689" y2="57.689"/></g><g><line fill="none" stroke="#394553" stroke-miterlimit="10" stroke-width="2.5" x1="39.5" x2="45.5" y1="43.678" y2="43.678"/><line fill="none" stroke="#394553" stroke-miterlimit="10" stroke-width="2.5" x1="39.5" x2="45.5" y1="50.684" y2="50.684"/><line fill="none" stroke="#394553" stroke-miterlimit="10" stroke-width="2.5" x1="39.5" x2="45.5" y1="57.689" y2="57.689"/></g><g><line fill="none" stroke="#394553" stroke-miterlimit="10" stroke-width="2.5" x1="49.033" x2="55.033" y1="43.678" y2="43.678"/><line fill="none" stroke="#394553" stroke-miterlimit="10" stroke-width="2.5" x1="49.033" x2="55.033" y1="50.684" y2="50.684"/><line fill="none" stroke="#394553" stroke-miterlimit="10" stroke-width="2.5" x1="49.033" x2="55.033" y1="57.689" y2="57.689"/></g></g><g><line fill="none" stroke="#394553" stroke-linejoin="round" stroke-miterlimit="10" stroke-width="2.5" x1="35.981" x2="35.981" y1="65.367" y2="77.049"/><path d="M56,65.273v9.125c0,1.65-1.35,3-3,3H32    c-1.651,0-3-1.35-3-3v-4.921" fill="none" stroke="#394553" stroke-miterlimit="10" stroke-width="2.5"/></g></g></svg>