<?xml version="1.0" ?><!DOCTYPE svg  PUBLIC '-//W3C//DTD SVG 1.1//EN'  'http://www.w3.org/Graphics/SVG/1.1/DTD/svg11.dtd'><svg enable-background="new 0 0 85 85" height="85px" id="Layer_1" version="1.1" viewBox="0 0 85 85" width="85px" xml:space="preserve" xmlns="http://www.w3.org/2000/svg" xmlns:xlink="http://www.w3.org/1999/xlink"><g><polyline fill="none" points="68.327,46.457 68.327,71.416    12.698,71.416 12.698,39.836 47.36,39.836  " stroke="#394553" stroke-miterlimit="10" stroke-width="2.5"/><line fill="none" stroke="#394553" stroke-miterlimit="10" stroke-width="2.5" x1="20.648" x2="41.513" y1="48.246" y2="48.246"/><line fill="none" stroke="#394553" stroke-miterlimit="10" stroke-width="2.5" x1="20.648" x2="41.513" y1="55.186" y2="55.186"/><line fill="none" stroke="#394553" stroke-miterlimit="10" stroke-width="2.5" x1="44.655" x2="58.04" y1="63.627" y2="63.627"/><line fill="none" stroke="#394553" stroke-linecap="round" stroke-miterlimit="10" stroke-width="2.5" x1="52.656" x2="51.151" y1="54.643" y2="58.125"/><path d="M51.505,47.297   c1.784-12.219,7.076-23.668,15.272-32.941c0.733-0.751,2.19-0.99,3.202-0.555c0.174,0.076,0.35,0.152,0.524,0.228   c1.011,0.436,1.841,1.658,1.796,2.706c-1.132,12.271-5.867,24.059-13.492,33.714L51.505,47.297z" fill="none" stroke="#394553" stroke-linejoin="round" stroke-miterlimit="10" stroke-width="2.5"/><g><polyline fill="none" points="    51.906,48.037 51.169,53.984 54.143,55.266 57.984,50.635   " stroke="#394553" stroke-linecap="round" stroke-linejoin="round" stroke-miterlimit="10" stroke-width="2.5"/></g><path d="   M63.609,17.9l-4.864-2.445c0,0-4.618,6.233-7.415,12.927" fill="none" stroke="#394553" stroke-linecap="round" stroke-linejoin="round" stroke-miterlimit="10" stroke-width="2.5"/><line fill="none" stroke="#394553" stroke-linejoin="round" stroke-miterlimit="10" stroke-width="2.5" x1="61.604" x2="67.691" y1="30.336" y2="32.965"/></g></svg>