<?xml version="1.0" ?><!DOCTYPE svg  PUBLIC '-//W3C//DTD SVG 1.1//EN'  'http://www.w3.org/Graphics/SVG/1.1/DTD/svg11.dtd'><svg enable-background="new 0 0 85 85" height="85px" id="Layer_1" version="1.1" viewBox="0 0 85 85" width="85px" xml:space="preserve" xmlns="http://www.w3.org/2000/svg" xmlns:xlink="http://www.w3.org/1999/xlink"><g><g><line fill="none" stroke="#394553" stroke-linecap="round" stroke-linejoin="round" stroke-miterlimit="10" stroke-width="2.5" x1="34.197" x2="50.805" y1="41.838" y2="41.838"/><line fill="none" stroke="#394553" stroke-linecap="round" stroke-linejoin="round" stroke-miterlimit="10" stroke-width="2.5" x1="34.197" x2="50.805" y1="47.008" y2="47.008"/><g><line fill="none" stroke="#394553" stroke-linecap="round" stroke-miterlimit="10" stroke-width="2.5" x1="42.502" x2="32.416" y1="41.149" y2="30.291"/><line fill="none" stroke="#394553" stroke-linecap="round" stroke-miterlimit="10" stroke-width="2.5" x1="42.5" x2="52.583" y1="41.149" y2="30.291"/></g><line fill="none" stroke="#394553" stroke-linecap="round" stroke-linejoin="round" stroke-miterlimit="10" stroke-width="2.5" x1="42.5" x2="42.5" y1="55.941" y2="41.189"/></g><path d="M72.742,42.5   c0,16.697-13.537,30.234-30.249,30.234c-16.697,0-30.235-13.537-30.235-30.234c0-16.699,13.538-30.235,30.235-30.235   C59.205,12.266,72.742,25.802,72.742,42.5z" fill="none" stroke="#394553" stroke-linejoin="round" stroke-miterlimit="10" stroke-width="2.5"/><path d="   M42.495,19.823c12.532,0,22.687,10.152,22.687,22.677c0,12.523-10.154,22.675-22.687,22.675c-12.524,0-22.676-10.152-22.676-22.675   c0-7.26,3.41-13.723,8.716-17.872" fill="none" stroke="#394553" stroke-linecap="round" stroke-linejoin="round" stroke-miterlimit="10" stroke-width="2.5"/></g></svg>