<?xml version="1.0" ?><!DOCTYPE svg  PUBLIC '-//W3C//DTD SVG 1.1//EN'  'http://www.w3.org/Graphics/SVG/1.1/DTD/svg11.dtd'><svg enable-background="new 0 0 85 85" height="85px" id="Layer_1" version="1.1" viewBox="0 0 85 85" width="85px" xml:space="preserve" xmlns="http://www.w3.org/2000/svg" xmlns:xlink="http://www.w3.org/1999/xlink"><g><g><g><g><path d="M14.81,37.683      C16.83,25.987,26.08,16.767,37.79,14.789" fill="none" stroke="#394553" stroke-miterlimit="10" stroke-width="2.5"/><path d="M37.829,70.217      C24.531,67.992,14.398,56.43,14.398,42.5" fill="none" stroke="#394553" stroke-miterlimit="10" stroke-width="2.5"/><path d="M70.604,42.5      c0,15.521-12.582,28.104-28.103,28.104" fill="none" stroke="#394553" stroke-miterlimit="10" stroke-width="2.5"/><path d="M42.501,14.398      c13.885,0,25.418,10.07,27.694,23.303" fill="none" stroke="#394553" stroke-miterlimit="10" stroke-width="2.5"/><path d="M21.486,37.715      c1.834-8.089,8.217-14.45,16.319-16.25" fill="none" stroke="#394553" stroke-miterlimit="10" stroke-width="2.5"/><path d="M37.791,63.531      C28.154,61.383,20.953,52.783,20.953,42.5" fill="none" stroke="#394553" stroke-miterlimit="10" stroke-width="2.5"/><path d="M64.05,42.5      c0,11.9-9.648,21.549-21.549,21.549" fill="none" stroke="#394553" stroke-miterlimit="10" stroke-width="2.5"/><path d="M42.501,20.952      c10.249,0,18.829,7.158,21.011,16.745" fill="none" stroke="#394553" stroke-miterlimit="10" stroke-width="2.5"/><g><g><line fill="none" stroke="#394553" stroke-linecap="round" stroke-miterlimit="10" stroke-width="2.5" x1="42.501" x2="42.501" y1="61.137" y2="76.887"/></g><g><line fill="none" stroke="#394553" stroke-linecap="round" stroke-miterlimit="10" stroke-width="2.5" x1="42.501" x2="42.501" y1="8.113" y2="23.865"/></g></g><g><g><line fill="none" stroke="#394553" stroke-linecap="round" stroke-miterlimit="10" stroke-width="2.5" x1="23.865" x2="8.112" y1="42.5" y2="42.5"/></g><g><line fill="none" stroke="#394553" stroke-linecap="round" stroke-miterlimit="10" stroke-width="2.5" x1="76.887" x2="61.135" y1="42.5" y2="42.5"/></g></g></g></g></g><g><g><path d="M37.504,47.387     c0,2.572,2.243,4.654,5.005,4.654c2.769,0,5.009-2.082,5.009-4.654c0-2.57-2.673-3.697-5.019-4.889     c-2.346-1.188-5.017-2.315-5.017-4.885c0-2.571,2.238-4.655,5.007-4.655c2.766,0,5.007,2.084,5.007,4.655" fill="none" stroke="#394553" stroke-linecap="round" stroke-miterlimit="10" stroke-width="2.5"/><line fill="none" stroke="#394553" stroke-linecap="round" stroke-miterlimit="10" stroke-width="2.5" x1="42.489" x2="42.489" y1="32.935" y2="29.813"/><line fill="none" stroke="#394553" stroke-linecap="round" stroke-miterlimit="10" stroke-width="2.5" x1="42.489" x2="42.489" y1="55.188" y2="52.066"/></g></g></g></svg>