<?xml version="1.0" ?><!DOCTYPE svg  PUBLIC '-//W3C//DTD SVG 1.1//EN'  'http://www.w3.org/Graphics/SVG/1.1/DTD/svg11.dtd'><svg enable-background="new 0 0 85 85" height="85px" id="Layer_1" version="1.1" viewBox="0 0 85 85" width="85px" xml:space="preserve" xmlns="http://www.w3.org/2000/svg" xmlns:xlink="http://www.w3.org/1999/xlink"><g><path d="M33.495,42.785V19.396   c0-2.75,2.25-5,5-5h23.009c2.75,0,5,2.25,5,5v40.188c0,2.75-2.25,5-5,5H42.211" fill="none" stroke="#394553" stroke-linejoin="round" stroke-miterlimit="10" stroke-width="2.5"/><line fill="none" stroke="#394553" stroke-linecap="round" stroke-linejoin="round" stroke-miterlimit="10" stroke-width="2.5" x1="57.5" x2="57.5" y1="14.439" y2="64.436"/><g><path d="M28.186,55.205    l11.617-12.467c1.985-2.049,5.086-2.458,6.893-0.9c1.807,1.555,1.975,4.762,0.377,7.125L32.477,70.604" fill="none" stroke="#394553" stroke-linejoin="round" stroke-miterlimit="10" stroke-width="2.5"/></g><path d="M33.887,33.455c0,0-14.971,12.747-15.312,14.747   c-0.28,1.625,0.271,16.555,0.488,22.357" fill="none" stroke="#394553" stroke-miterlimit="10" stroke-width="2.5"/></g></svg>