<?xml version="1.0" ?><!DOCTYPE svg  PUBLIC '-//W3C//DTD SVG 1.1//EN'  'http://www.w3.org/Graphics/SVG/1.1/DTD/svg11.dtd'><svg enable-background="new 0 0 85 85" height="85px" id="Layer_1" version="1.1" viewBox="0 0 85 85" width="85px" xml:space="preserve" xmlns="http://www.w3.org/2000/svg" xmlns:xlink="http://www.w3.org/1999/xlink"><g><g><g><path d="M36.956,45.836     c0,2.854,2.487,5.166,5.554,5.166c3.072,0,5.559-2.312,5.559-5.166c0-2.855-2.967-4.102-5.568-5.424     c-2.604-1.319-5.568-2.569-5.568-5.422c0-2.856,2.484-5.168,5.557-5.168c3.07,0,5.557,2.312,5.557,5.168" fill="none" stroke="#394553" stroke-linecap="round" stroke-miterlimit="10" stroke-width="2.5"/><line fill="none" stroke="#394553" stroke-linecap="round" stroke-miterlimit="10" stroke-width="2.5" x1="42.488" x2="42.488" y1="29.796" y2="26.131"/><line fill="none" stroke="#394553" stroke-linecap="round" stroke-miterlimit="10" stroke-width="2.5" x1="42.488" x2="42.488" y1="54.693" y2="51.029"/></g></g><g><g><line fill="none" stroke="#394553" stroke-linecap="round" stroke-linejoin="round" stroke-miterlimit="10" stroke-width="2.5" x1="33.293" x2="51.818" y1="69.82" y2="69.82"/><line fill="none" stroke="#394553" stroke-linecap="round" stroke-linejoin="round" stroke-miterlimit="10" stroke-width="2.5" x1="42.5" x2="42.5" y1="11.775" y2="7.114"/><g><line fill="none" stroke="#394553" stroke-linecap="round" stroke-linejoin="round" stroke-miterlimit="10" stroke-width="2.5" x1="64.352" x2="68.123" y1="21.884" y2="18.096"/><line fill="none" stroke="#394553" stroke-linecap="round" stroke-linejoin="round" stroke-miterlimit="10" stroke-width="2.5" x1="16.877" x2="20.646" y1="18.096" y2="21.884"/></g><path d="M42.547,18.681     c-11.318,0-20.524,9.027-20.524,20.125c0,4.639,1.268,8.549,3.71,11.553c0.86,0.932,1.737,1.758,2.584,2.557     c2.865,2.703,5.581,5.287,6.407,10.736h15.647c0.826-5.486,3.557-8.047,6.432-10.752c0.844-0.793,1.717-1.615,2.535-2.496     c2.625-3.1,3.748-6.568,3.748-11.598C63.086,27.708,53.873,18.681,42.547,18.681z" fill="none" stroke="#394553" stroke-miterlimit="10" stroke-width="2.5"/><path d="     M35.573,75.5h2.715c0.684,0.943,2.17,2.387,4.269,2.387c2.098,0,3.58-1.443,4.266-2.387h2.715" fill="none" stroke="#394553" stroke-linecap="round" stroke-linejoin="round" stroke-miterlimit="10" stroke-width="2.5"/></g></g></g></svg>