<?xml version="1.0" ?><!DOCTYPE svg  PUBLIC '-//W3C//DTD SVG 1.1//EN'  'http://www.w3.org/Graphics/SVG/1.1/DTD/svg11.dtd'><svg enable-background="new 0 0 85 85" height="85px" id="Layer_1" version="1.1" viewBox="0 0 85 85" width="85px" xml:space="preserve" xmlns="http://www.w3.org/2000/svg" xmlns:xlink="http://www.w3.org/1999/xlink"><g><g><g><g><line fill="none" stroke="#394553" stroke-linejoin="round" stroke-miterlimit="10" stroke-width="2.5" x1="34.142" x2="34.142" y1="67.242" y2="14.482"/><line fill="none" stroke="#394553" stroke-linejoin="round" stroke-miterlimit="10" stroke-width="2.5" x1="43.24" x2="11.867" y1="40.771" y2="40.771"/><path d="M31.567,14.731      c-3.445,3.526-22.246,24.976,0.518,52.443" fill="none" stroke="#394553" stroke-linejoin="round" stroke-miterlimit="10" stroke-width="2.5"/><path d="M36.628,14.638      c1.848,1.87,9.155,9.936,10.458,21.802" fill="none" stroke="#394553" stroke-linejoin="round" stroke-miterlimit="10" stroke-width="2.5"/><path d="M54.197,23.935      c-7.244,4.415-20.438,9.411-36.587,1.832" fill="none" stroke="#394553" stroke-linejoin="round" stroke-miterlimit="10" stroke-width="2.5"/></g><path d="M39.513,52.256     c-6.129-0.888-13.354-0.329-21.311,3.271" fill="none" stroke="#394553" stroke-linejoin="round" stroke-miterlimit="10" stroke-width="2.5"/></g><g><g><path d="M56.016,58.102      c0,2.281,1.988,4.127,4.439,4.127c2.455,0,4.441-1.846,4.441-4.127c0-2.279-2.371-3.279-4.451-4.334s-4.449-2.055-4.449-4.334      c0-2.281,1.986-4.129,4.441-4.129c2.453,0,4.439,1.848,4.439,4.129" fill="none" stroke="#394553" stroke-linecap="round" stroke-miterlimit="10" stroke-width="2.5"/><line fill="none" stroke="#394553" stroke-linecap="round" stroke-miterlimit="10" stroke-width="2.5" x1="60.438" x2="60.438" y1="45.285" y2="42.516"/><line fill="none" stroke="#394553" stroke-linecap="round" stroke-miterlimit="10" stroke-width="2.5" x1="60.438" x2="60.438" y1="65.02" y2="62.252"/></g></g><path d="M42.719,65.647    c-2.703,0.937-5.607,1.445-8.628,1.445c-14.543,0-26.332-11.79-26.332-26.333c0-14.544,11.789-26.333,26.332-26.333    c11.815,0,21.815,7.783,25.149,18.503" fill="none" stroke="#394553" stroke-miterlimit="10" stroke-width="2.5"/></g><g><path d="    M49.498,40.953c1.779-1.52,3.902-2.689,6.299-3.375c8.932-2.551,18.24,2.622,20.793,11.553    c2.551,8.932-2.625,18.242-11.555,20.791c-8.932,2.553-18.24-2.621-20.791-11.551c-1.3-4.559-0.592-9.215,1.602-13.021" fill="none" stroke="#394553" stroke-linecap="round" stroke-linejoin="round" stroke-miterlimit="10" stroke-width="2.5"/></g></g></svg>