<?xml version="1.0" ?><!DOCTYPE svg  PUBLIC '-//W3C//DTD SVG 1.1//EN'  'http://www.w3.org/Graphics/SVG/1.1/DTD/svg11.dtd'><svg enable-background="new 0 0 85 85" height="85px" id="Layer_1" version="1.1" viewBox="0 0 85 85" width="85px" xml:space="preserve" xmlns="http://www.w3.org/2000/svg" xmlns:xlink="http://www.w3.org/1999/xlink"><g><g><g><g><path d="M53.031,57.1v13.607      c0,1.551-1.268,2.906-2.816,2.906H21.438c-1.549,0-2.815-1.355-2.815-2.906V14.202c0-1.55,1.267-2.815,2.815-2.815h28.777      c1.549,0,2.816,1.266,2.816,2.815v2.448" fill="none" stroke="#394553" stroke-linejoin="round" stroke-miterlimit="10" stroke-width="2.5"/><line fill="none" stroke="#394553" stroke-linejoin="round" stroke-miterlimit="10" stroke-width="2.5" x1="22.805" x2="48.84" y1="61.332" y2="61.332"/><line fill="none" stroke="#394553" stroke-linecap="round" stroke-linejoin="round" stroke-miterlimit="10" stroke-width="2.5" x1="33.488" x2="38.167" y1="67.297" y2="67.297"/></g></g></g><g><g><path d="M46.092,40.868     c0,2.119,1.848,3.833,4.125,3.833c2.279,0,4.125-1.714,4.125-3.833c0-2.12-2.201-3.046-4.135-4.028     c-1.932-0.98-4.133-1.908-4.133-4.027c0-2.117,1.846-3.834,4.123-3.834c2.279,0,4.127,1.717,4.127,3.834" fill="none" stroke="#394553" stroke-linecap="round" stroke-miterlimit="10" stroke-width="2.5"/><line fill="none" stroke="#394553" stroke-linecap="round" stroke-miterlimit="10" stroke-width="2.5" x1="50.197" x2="50.197" y1="28.959" y2="26.335"/><line fill="none" stroke="#394553" stroke-linecap="round" stroke-miterlimit="10" stroke-width="2.5" x1="50.197" x2="50.197" y1="47.348" y2="44.723"/></g></g><g><path d="    M39.814,24.502c1.704-1.454,3.737-2.574,6.032-3.229c8.551-2.442,17.467,2.511,19.91,11.062    c2.441,8.553-2.514,17.466-11.064,19.908c-8.551,2.443-17.465-2.512-19.909-11.062c-1.245-4.364-0.566-8.822,1.534-12.466" fill="none" stroke="#394553" stroke-linecap="round" stroke-linejoin="round" stroke-miterlimit="10" stroke-width="2.5"/></g></g></svg>