<?xml version="1.0" ?><!DOCTYPE svg  PUBLIC '-//W3C//DTD SVG 1.1//EN'  'http://www.w3.org/Graphics/SVG/1.1/DTD/svg11.dtd'><svg enable-background="new 0 0 85 85" height="85px" id="Layer_1" version="1.1" viewBox="0 0 85 85" width="85px" xml:space="preserve" xmlns="http://www.w3.org/2000/svg" xmlns:xlink="http://www.w3.org/1999/xlink"><g><g><circle cx="29.332" cy="15.09" fill="none" r="5.755" stroke="#394553" stroke-miterlimit="10" stroke-width="2.5"/><path d="    M39.778,39.048l-0.896-8.89c-0.223-2.223-2.234-4.041-4.469-4.041H24.251c-2.234,0-4.246,1.818-4.469,4.041l-1.727,17.139    c-0.223,2.223,2.301,3.988,4.416,4.75l0.547,22.521" fill="none" stroke="#394553" stroke-linecap="round" stroke-linejoin="round" stroke-miterlimit="10" stroke-width="2.5"/><g><path d="M45.57,63.016     c0,2.234,1.949,4.043,4.35,4.043c2.402,0,4.35-1.809,4.35-4.043s-2.322-3.213-4.359-4.246s-4.357-2.012-4.357-4.246     c0-2.232,1.945-4.043,4.348-4.043s4.35,1.811,4.35,4.043" fill="none" stroke="#394553" stroke-linecap="round" stroke-miterlimit="10" stroke-width="2.5"/><line fill="none" stroke="#394553" stroke-linecap="round" stroke-miterlimit="10" stroke-width="2.5" x1="49.9" x2="49.9" y1="50.461" y2="47.693"/><line fill="none" stroke="#394553" stroke-linecap="round" stroke-miterlimit="10" stroke-width="2.5" x1="49.9" x2="49.9" y1="69.848" y2="67.082"/></g></g><g><path d="    M38.95,45.762c1.797-1.533,3.942-2.715,6.36-3.406c9.016-2.576,18.416,2.646,20.99,11.662c2.576,9.018-2.648,18.416-11.664,20.99    c-9.016,2.576-18.415-2.646-20.99-11.662c-1.313-4.602-0.597-9.301,1.618-13.145" fill="none" stroke="#394553" stroke-linecap="round" stroke-linejoin="round" stroke-miterlimit="10" stroke-width="2.5"/></g></g></svg>