<?xml version="1.0" ?><!DOCTYPE svg  PUBLIC '-//W3C//DTD SVG 1.1//EN'  'http://www.w3.org/Graphics/SVG/1.1/DTD/svg11.dtd'><svg enable-background="new 0 0 85 85" height="85px" id="Layer_1" version="1.1" viewBox="0 0 85 85" width="85px" xml:space="preserve" xmlns="http://www.w3.org/2000/svg" xmlns:xlink="http://www.w3.org/1999/xlink"><g><g><g><g><g><g><g><path d="M18.393,68.109         c0,1.73,1.514,3.131,3.375,3.131c1.866,0,3.377-1.4,3.377-3.131c0-1.729-1.802-2.488-3.385-3.287         c-1.579-0.801-3.38-1.556-3.38-3.287c0-1.729,1.509-3.131,3.374-3.131c1.864,0,3.375,1.402,3.375,3.131" fill="none" stroke="#394553" stroke-linecap="round" stroke-miterlimit="10" stroke-width="2.5"/><line fill="none" stroke="#394553" stroke-linecap="round" stroke-miterlimit="10" stroke-width="2.5" x1="21.754" x2="21.754" y1="58.389" y2="56.094"/><line fill="none" stroke="#394553" stroke-linecap="round" stroke-miterlimit="10" stroke-width="2.5" x1="21.754" x2="21.754" y1="73.557" y2="71.258"/></g></g></g><g><path d="       M13.281,54.281c1.37-1.102,2.978-1.953,4.775-2.463c7.178-2.047,14.661,2.1,16.709,9.26c2.05,7.166-2.109,14.629-9.286,16.674       c-7.177,2.049-14.657-2.102-16.707-9.263c-0.998-3.494-0.522-7.056,1.061-10.028" fill="none" stroke="#394553" stroke-linecap="round" stroke-linejoin="round" stroke-miterlimit="10" stroke-width="2.5"/></g></g><g><g><g><g><path d="M59.854,68.109         c0,1.73,1.514,3.131,3.375,3.131c1.865,0,3.377-1.4,3.377-3.131c0-1.729-1.801-2.488-3.385-3.287         c-1.58-0.801-3.379-1.556-3.379-3.287c0-1.729,1.508-3.131,3.373-3.131c1.863,0,3.375,1.402,3.375,3.131" fill="none" stroke="#394553" stroke-linecap="round" stroke-miterlimit="10" stroke-width="2.5"/><line fill="none" stroke="#394553" stroke-linecap="round" stroke-miterlimit="10" stroke-width="2.5" x1="63.215" x2="63.215" y1="58.389" y2="56.094"/><line fill="none" stroke="#394553" stroke-linecap="round" stroke-miterlimit="10" stroke-width="2.5" x1="63.215" x2="63.215" y1="73.557" y2="71.258"/></g></g></g><g><path d="       M54.742,54.281c1.369-1.102,2.977-1.953,4.775-2.463c7.176-2.047,14.66,2.1,16.709,9.26c2.049,7.166-2.109,14.629-9.287,16.674       c-7.178,2.049-14.658-2.102-16.707-9.263c-0.998-3.494-0.521-7.056,1.061-10.028" fill="none" stroke="#394553" stroke-linecap="round" stroke-linejoin="round" stroke-miterlimit="10" stroke-width="2.5"/></g></g></g><g><g><g><g><path d="M39.124,23.54        c0,1.73,1.513,3.131,3.375,3.131c1.865,0,3.377-1.4,3.377-3.131c0-1.729-1.801-2.488-3.385-3.287        c-1.58-0.801-3.38-1.556-3.38-3.287c0-1.729,1.509-3.131,3.375-3.131c1.865,0,3.375,1.401,3.375,3.131" fill="none" stroke="#394553" stroke-linecap="round" stroke-miterlimit="10" stroke-width="2.5"/><line fill="none" stroke="#394553" stroke-linecap="round" stroke-miterlimit="10" stroke-width="2.5" x1="42.484" x2="42.484" y1="13.818" y2="11.523"/><line fill="none" stroke="#394553" stroke-linecap="round" stroke-miterlimit="10" stroke-width="2.5" x1="42.484" x2="42.484" y1="28.987" y2="26.688"/></g></g></g><g><path d="      M34.01,9.711c1.37-1.102,2.978-1.953,4.776-2.463c7.176-2.048,14.661,2.099,16.709,9.26c2.049,7.166-2.109,14.629-9.287,16.674      c-7.177,2.049-14.658-2.102-16.707-9.263c-0.998-3.493-0.522-7.057,1.06-10.03" fill="none" stroke="#394553" stroke-linecap="round" stroke-linejoin="round" stroke-miterlimit="10" stroke-width="2.5"/></g></g><g><g><g><line fill="none" stroke="#394553" stroke-linecap="round" stroke-miterlimit="10" stroke-width="2.5" x1="42.5" x2="42.5" y1="34.138" y2="41.002"/></g></g></g></g><polyline fill="none" points="   63.092,46.119 63.092,41.279 21.908,41.279 21.908,46.119  " stroke="#394553" stroke-linecap="round" stroke-linejoin="round" stroke-miterlimit="10" stroke-width="2.5"/></g></svg>