<?xml version="1.0" ?><!DOCTYPE svg  PUBLIC '-//W3C//DTD SVG 1.1//EN'  'http://www.w3.org/Graphics/SVG/1.1/DTD/svg11.dtd'><svg enable-background="new 0 0 85 85" height="85px" id="Layer_1" version="1.1" viewBox="0 0 85 85" width="85px" xml:space="preserve" xmlns="http://www.w3.org/2000/svg" xmlns:xlink="http://www.w3.org/1999/xlink"><g><g><g><line fill="none" stroke="#394553" stroke-linejoin="round" stroke-miterlimit="10" stroke-width="2.5" x1="25.003" x2="25.003" y1="32.929" y2="57.551"/><line fill="none" stroke="#394553" stroke-linejoin="round" stroke-miterlimit="10" stroke-width="2.5" x1="36.668" x2="36.668" y1="32.929" y2="57.551"/><line fill="none" stroke="#394553" stroke-linejoin="round" stroke-miterlimit="10" stroke-width="2.5" x1="48.332" x2="48.332" y1="32.929" y2="57.551"/></g><line fill="none" stroke="#394553" stroke-linejoin="round" stroke-miterlimit="10" stroke-width="2.5" x1="59.998" x2="59.998" y1="32.929" y2="57.551"/></g><line fill="none" stroke="#394553" stroke-linecap="round" stroke-linejoin="round" stroke-miterlimit="10" stroke-width="2.5" x1="81.332" x2="3.667" y1="68.635" y2="68.635"/><polygon fill="none" points="   19.129,32.548 65.898,32.548 65.9,27.492 42.524,16.365 19.129,27.474  " stroke="#394553" stroke-linecap="round" stroke-linejoin="round" stroke-miterlimit="10" stroke-width="2.5"/><line fill="none" stroke="#394553" stroke-linecap="round" stroke-linejoin="round" stroke-miterlimit="10" stroke-width="2.5" x1="77.221" x2="7.779" y1="62.168" y2="62.168"/><g><g><line fill="none" stroke="#394553" stroke-linejoin="round" stroke-miterlimit="10" stroke-width="2.5" x1="13.349" x2="13.349" y1="48.389" y2="57.551"/><polyline fill="none" points="     20.162,41.895 8.955,41.895 8.955,47.861 20.162,47.861    " stroke="#394553" stroke-linejoin="round" stroke-miterlimit="10" stroke-width="2.5"/></g><g><line fill="none" stroke="#394553" stroke-linejoin="round" stroke-miterlimit="10" stroke-width="2.5" x1="71.672" x2="71.672" y1="48.389" y2="57.551"/><polyline fill="none" points="     64.838,41.895 76.045,41.895 76.045,47.861 64.838,47.861    " stroke="#394553" stroke-linejoin="round" stroke-miterlimit="10" stroke-width="2.5"/></g></g></g></svg>