<?xml version="1.0" ?><!DOCTYPE svg  PUBLIC '-//W3C//DTD SVG 1.1//EN'  'http://www.w3.org/Graphics/SVG/1.1/DTD/svg11.dtd'><svg enable-background="new 0 0 85 85" height="85px" id="Layer_1" version="1.1" viewBox="0 0 85 85" width="85px" xml:space="preserve" xmlns="http://www.w3.org/2000/svg" xmlns:xlink="http://www.w3.org/1999/xlink"><g><path d="M25.836,34.202" fill="none" stroke="#394553" stroke-linejoin="round" stroke-miterlimit="10" stroke-width="2.5"/><line fill="none" stroke="#394553" stroke-linecap="round" stroke-linejoin="round" stroke-miterlimit="10" stroke-width="2.5" x1="24.709" x2="13.561" y1="45.795" y2="45.795"/><line fill="none" stroke="#394553" stroke-linecap="round" stroke-linejoin="round" stroke-miterlimit="10" stroke-width="2.5" x1="18.408" x2="11.703" y1="53.789" y2="53.789"/><line fill="none" stroke="#394553" stroke-linecap="round" stroke-linejoin="round" stroke-miterlimit="10" stroke-width="2.5" x1="24.061" x2="13.18" y1="34.202" y2="34.202"/><line fill="none" stroke="#394553" stroke-linecap="round" stroke-linejoin="round" stroke-miterlimit="10" stroke-width="2.5" x1="57.252" x2="43.178" y1="65.795" y2="65.795"/><g><line fill="none" stroke="#394553" stroke-linecap="round" stroke-linejoin="round" stroke-miterlimit="10" stroke-width="2.5" x1="38.266" x2="33.543" y1="65.795" y2="65.795"/></g><line fill="none" stroke="#394553" stroke-linecap="round" stroke-linejoin="round" stroke-miterlimit="10" stroke-width="2.5" x1="8.379" x2="3.656" y1="45.795" y2="45.795"/><line fill="none" stroke="#394553" stroke-linecap="round" stroke-linejoin="round" stroke-miterlimit="10" stroke-width="2.5" x1="48.348" x2="35.994" y1="19.206" y2="19.206"/><line fill="none" stroke="#394553" stroke-linecap="round" stroke-linejoin="round" stroke-miterlimit="10" stroke-width="2.5" x1="30.994" x2="26.271" y1="19.206" y2="19.206"/><line fill="none" stroke="#394553" stroke-linecap="round" stroke-linejoin="round" stroke-miterlimit="10" stroke-width="2.5" x1="21.271" x2="18.428" y1="19.206" y2="19.206"/><g><g><g><circle cx="38.85" cy="42.602" fill="#394553" r="2.023"/><circle cx="67.17" cy="42.602" fill="#394553" r="2.023"/></g><polyline fill="none" points="24.676,41.023 24.676,26.526      81.344,26.526 81.344,58.678 24.676,58.678 24.676,45.826    " stroke="#394553" stroke-miterlimit="10" stroke-width="2.5"/><path d="M75.393,36.563     c-2.24,0-4.059-1.816-4.059-4.057H34.686c0,2.24-1.818,4.057-4.057,4.057v12.078c2.238,0,4.057,1.818,4.057,4.06h36.648     c0-2.24,1.818-4.06,4.059-4.06V36.563z" fill="none" stroke="#394553" stroke-miterlimit="10" stroke-width="2.5"/><path d="M57.99,42.602c0,2.958-2.23,5.359-4.98,5.359     s-4.979-2.4-4.979-5.359c0-2.957,2.229-5.356,4.979-5.356S57.99,39.645,57.99,42.602z" fill="none" stroke="#394553" stroke-miterlimit="10" stroke-width="2.5"/></g></g></g></svg>