<?xml version="1.0" ?><!DOCTYPE svg  PUBLIC '-//W3C//DTD SVG 1.1//EN'  'http://www.w3.org/Graphics/SVG/1.1/DTD/svg11.dtd'><svg enable-background="new 0 0 85 85" height="85px" id="Layer_1" version="1.1" viewBox="0 0 85 85" width="85px" xml:space="preserve" xmlns="http://www.w3.org/2000/svg" xmlns:xlink="http://www.w3.org/1999/xlink"><g><g><polygon fill="none" points="42.499,19.521     42.499,19.521 42.5,19.521   " stroke="#394553" stroke-linejoin="round" stroke-miterlimit="10" stroke-width="2.5"/><path d="M58.67,66.49    c6.064-3.691,9.842-9.326,9.842-9.326c3.666-4.984,1.465-11.438,1.465-11.438l-4.545-15.25    c-2.199-7.918-10.154-9.012-10.154-9.012s-8.887-1.945-12.778-1.945c-3.89,0-12.777,1.945-12.777,1.945s-7.955,1.094-10.154,9.012    l-4.545,15.25c0,0-2.201,6.453,1.465,11.438c0,0,3.777,5.635,9.843,9.326" fill="none" stroke="#394553" stroke-linejoin="round" stroke-miterlimit="10" stroke-width="2.5"/></g><line fill="none" stroke="#394553" stroke-linecap="round" stroke-linejoin="round" stroke-miterlimit="10" stroke-width="2.5" x1="42.5" x2="42.5" y1="51.74" y2="57.105"/><g><line fill="none" stroke="#394553" stroke-linecap="round" stroke-linejoin="round" stroke-miterlimit="10" stroke-width="2.5" x1="42.345" x2="38.551" y1="57.082" y2="60.877"/><line fill="none" stroke="#394553" stroke-linecap="round" stroke-linejoin="round" stroke-miterlimit="10" stroke-width="2.5" x1="42.653" x2="46.449" y1="57.082" y2="60.877"/></g><path d="M42.372,38.713h0.625c0,0,5.96,0.129,7.231,3.904   l3.494,17.242c0,0,2.818,8.352-6.561,9.654h-9.326c-9.377-1.304-6.559-9.654-6.559-9.654l3.494-17.242   c1.271-3.775,7.233-3.904,7.233-3.904h0.625" fill="none" stroke="#394553" stroke-miterlimit="10" stroke-width="2.5"/><g><line fill="none" stroke="#394553" stroke-linecap="round" stroke-miterlimit="10" stroke-width="2.5" x1="29.771" x2="27.511" y1="37.049" y2="36.182"/><line fill="none" stroke="#394553" stroke-linecap="round" stroke-miterlimit="10" stroke-width="2.5" x1="55.232" x2="57.488" y1="37.049" y2="36.182"/></g><path d="M42.5,47.979c-1.905,0-3.514,1.078-3.514,2.354s1.609,2.354,3.514,2.354c1.904,0,3.514-1.078,3.514-2.354   S44.404,47.979,42.5,47.979z" fill="#394553"/><g><path d="M15.404,28.904    c-0.145-0.152-0.287-0.311-0.426-0.473c-3.301-3.865-3.572-9.05-0.611-11.58c2.65-2.26,6.984-1.635,10.232,1.281" fill="none" stroke="#394553" stroke-linejoin="round" stroke-miterlimit="10" stroke-width="2.5"/><path d="M69.598,28.904    c0.146-0.152,0.285-0.311,0.424-0.473c3.302-3.865,3.572-9.05,0.611-11.58c-2.648-2.26-6.982-1.635-10.23,1.281" fill="none" stroke="#394553" stroke-linejoin="round" stroke-miterlimit="10" stroke-width="2.5"/></g></g></svg>