<?xml version="1.0" ?><!DOCTYPE svg  PUBLIC '-//W3C//DTD SVG 1.1//EN'  'http://www.w3.org/Graphics/SVG/1.1/DTD/svg11.dtd'><svg enable-background="new 0 0 85 85" height="85px" id="Layer_1" version="1.1" viewBox="0 0 85 85" width="85px" xml:space="preserve" xmlns="http://www.w3.org/2000/svg" xmlns:xlink="http://www.w3.org/1999/xlink"><g><g><g><g><path d="M31.291,42.572      c0,2.292,2,4.149,4.461,4.149c2.467,0,4.464-1.857,4.464-4.149c0-2.292-2.382-3.296-4.476-4.355      c-2.086-1.061-4.467-2.061-4.467-4.354c0-2.291,1.994-4.147,4.461-4.147c2.463,0,4.46,1.856,4.46,4.147" fill="none" stroke="#394553" stroke-linecap="round" stroke-miterlimit="10" stroke-width="2.5"/><line fill="none" stroke="#394553" stroke-linecap="round" stroke-miterlimit="10" stroke-width="2.5" x1="35.734" x2="35.734" y1="29.693" y2="26.654"/><line fill="none" stroke="#394553" stroke-linecap="round" stroke-miterlimit="10" stroke-width="2.5" x1="35.734" x2="35.734" y1="49.787" y2="46.742"/></g></g></g><g><line fill="none" stroke="#394553" stroke-linecap="round" stroke-miterlimit="10" stroke-width="2.5" x1="35.734" x2="35.734" y1="13.113" y2="7.695"/></g><g><line fill="none" stroke="#394553" stroke-linecap="round" stroke-miterlimit="10" stroke-width="2.5" x1="12.998" x2="8.01" y1="28.202" y2="25.897"/></g><g><line fill="none" stroke="#394553" stroke-linecap="round" stroke-miterlimit="10" stroke-width="2.5" x1="58.382" x2="63.37" y1="28.202" y2="25.897"/></g><g><line fill="none" stroke="#394553" stroke-linecap="round" stroke-miterlimit="10" stroke-width="2.5" x1="49.393" x2="52.796" y1="17.499" y2="13.282"/></g><g><line fill="none" stroke="#394553" stroke-linecap="round" stroke-miterlimit="10" stroke-width="2.5" x1="18.675" x2="22.078" y1="13.281" y2="17.499"/></g><g><path d="    M75.783,76.654c-0.929,0.928-2.515,0.855-3.532-0.16L58.204,62.447l-3.441,14.367l-9.483-31.23l31.22,9.492l-14.364,3.441    l14.046,14.049c1.015,1.014,1.087,2.604,0.158,3.531L75.783,76.654z" fill="none" stroke="#394553" stroke-linecap="round" stroke-linejoin="round" stroke-miterlimit="10" stroke-width="2.5"/></g><path d="M42.753,54.582   C40.606,55.494,38.242,56,35.762,56c-9.872,0-17.874-8.004-17.874-17.875c0-3.601,1.063-6.951,2.896-9.758" fill="none" stroke="#394553" stroke-linecap="round" stroke-miterlimit="10" stroke-width="2.5"/><path d="M24.034,24.634   c3.139-2.73,7.239-4.385,11.728-4.385c9.873,0,17.875,8.003,17.875,17.875c0,1.66-0.227,3.269-0.651,4.795" fill="none" stroke="#394553" stroke-linecap="round" stroke-miterlimit="10" stroke-width="2.5"/></g></svg>