<?xml version="1.0" ?><!DOCTYPE svg  PUBLIC '-//W3C//DTD SVG 1.1//EN'  'http://www.w3.org/Graphics/SVG/1.1/DTD/svg11.dtd'><svg enable-background="new 0 0 85 85" height="85px" id="Layer_1" version="1.1" viewBox="0 0 85 85" width="85px" xml:space="preserve" xmlns="http://www.w3.org/2000/svg" xmlns:xlink="http://www.w3.org/1999/xlink"><g><g><line fill="none" stroke="#394553" stroke-linejoin="round" stroke-miterlimit="10" stroke-width="2.5" x1="13.759" x2="58.515" y1="27.146" y2="27.146"/><path d="M42.413,65.379H12.16    c-1.72,0-3.13-1.424-3.13-3.145V19.173c0-1.721,1.41-3.129,3.13-3.129h8.61" fill="none" stroke="#394553" stroke-linejoin="round" stroke-miterlimit="10" stroke-width="2.5"/><path d="M54.348,16.044h5.766    c1.722,0,3.13,1.408,3.13,3.129v20.277" fill="none" stroke="#394553" stroke-linejoin="round" stroke-miterlimit="10" stroke-width="2.5"/><line fill="none" stroke="#394553" stroke-linejoin="round" stroke-miterlimit="10" stroke-width="2.5" x1="40.653" x2="48.152" y1="16.044" y2="16.044"/><line fill="none" stroke="#394553" stroke-linejoin="round" stroke-miterlimit="10" stroke-width="2.5" x1="26.962" x2="34.46" y1="16.044" y2="16.044"/><line fill="none" stroke="#394553" stroke-linecap="round" stroke-miterlimit="10" stroke-width="2.5" x1="20.985" x2="20.985" y1="11.186" y2="21.83"/><line fill="none" stroke="#394553" stroke-linecap="round" stroke-miterlimit="10" stroke-width="2.5" x1="48.368" x2="48.368" y1="11.186" y2="21.83"/><line fill="none" stroke="#394553" stroke-linecap="round" stroke-miterlimit="10" stroke-width="2.5" x1="34.677" x2="34.677" y1="11.186" y2="21.83"/><line fill="none" stroke="#394553" stroke-linejoin="round" stroke-miterlimit="10" stroke-width="2.5" x1="17.749" x2="51.415" y1="41.29" y2="41.29"/><line fill="none" stroke="#394553" stroke-linejoin="round" stroke-miterlimit="10" stroke-width="2.5" x1="17.749" x2="43.082" y1="51.539" y2="51.539"/><line fill="none" stroke="#394553" stroke-linejoin="round" stroke-miterlimit="10" stroke-width="2.5" x1="36.136" x2="36.136" y1="59.635" y2="33.195"/><line fill="none" stroke="#394553" stroke-linejoin="round" stroke-miterlimit="10" stroke-width="2.5" x1="25.889" x2="25.889" y1="59.635" y2="33.195"/><line fill="none" stroke="#394553" stroke-linejoin="round" stroke-miterlimit="10" stroke-width="2.5" x1="46.383" x2="46.383" y1="45.914" y2="33.195"/></g><g><g><g><path d="M57.446,62.645      c0,1.9,1.658,3.441,3.699,3.441c2.047,0,3.703-1.541,3.703-3.441s-1.976-2.732-3.712-3.611      c-1.731-0.879-3.705-1.711-3.705-3.611s1.654-3.441,3.699-3.441c2.044,0,3.7,1.541,3.7,3.441" fill="none" stroke="#394553" stroke-linecap="round" stroke-miterlimit="10" stroke-width="2.5"/><line fill="none" stroke="#394553" stroke-linecap="round" stroke-miterlimit="10" stroke-width="2.5" x1="61.131" x2="61.131" y1="51.963" y2="49.441"/><line fill="none" stroke="#394553" stroke-linecap="round" stroke-miterlimit="10" stroke-width="2.5" x1="61.131" x2="61.131" y1="68.629" y2="66.104"/></g></g></g><g><path d="    M51.841,47.451c1.502-1.209,3.263-2.145,5.235-2.707c7.869-2.25,16.074,2.307,18.321,10.176    c2.246,7.873-2.313,16.072-10.183,18.32c-7.868,2.25-16.07-2.311-18.318-10.178c-1.094-3.84-0.572-7.754,1.163-11.021" fill="none" stroke="#394553" stroke-linecap="round" stroke-linejoin="round" stroke-miterlimit="10" stroke-width="2.5"/></g></g></svg>