<?xml version="1.0" ?><!DOCTYPE svg  PUBLIC '-//W3C//DTD SVG 1.1//EN'  'http://www.w3.org/Graphics/SVG/1.1/DTD/svg11.dtd'><svg enable-background="new 0 0 85 85" height="85px" id="Layer_1" version="1.1" viewBox="0 0 85 85" width="85px" xml:space="preserve" xmlns="http://www.w3.org/2000/svg" xmlns:xlink="http://www.w3.org/1999/xlink"><g><g><g><path d="M24.729,53.684     c0,2.29,1.996,4.144,4.455,4.144c2.463,0,4.457-1.854,4.457-4.144c0-2.288-2.379-3.29-4.467-4.35     c-2.088-1.059-4.465-2.061-4.465-4.349c0-2.289,1.992-4.145,4.455-4.145s4.457,1.855,4.457,4.145" fill="none" stroke="#394553" stroke-linecap="round" stroke-miterlimit="10" stroke-width="2.5"/><line fill="none" stroke="#394553" stroke-linecap="round" stroke-miterlimit="10" stroke-width="2.5" x1="29.165" x2="29.165" y1="40.821" y2="38.042"/><line fill="none" stroke="#394553" stroke-linecap="round" stroke-miterlimit="10" stroke-width="2.5" x1="29.165" x2="29.165" y1="60.628" y2="57.849"/></g></g><g><g><g><path d="M45.743,70.649      c-1.137,0-2.064-0.954-2.064-2.09V35.965c0-1.136,0.928-2.065,2.064-2.065h22.309c1.137,0,2.064,0.93,2.064,2.065V68.56      c0,1.136-0.928,2.09-2.064,2.09H45.743z" fill="none" stroke="#394553" stroke-linejoin="round" stroke-miterlimit="10" stroke-width="2.5"/><line fill="none" stroke="#394553" stroke-miterlimit="10" stroke-width="2.5" x1="48.052" x2="70.062" y1="46.006" y2="46.006"/><line fill="none" stroke="#394553" stroke-miterlimit="10" stroke-width="2.5" x1="52.507" x2="52.507" y1="46.133" y2="70.484"/><line fill="none" stroke="#394553" stroke-miterlimit="10" stroke-width="2.5" x1="61.333" x2="61.333" y1="46.107" y2="70.451"/><line fill="none" stroke="#394553" stroke-miterlimit="10" stroke-width="2.5" x1="48.052" x2="70.062" y1="54.193" y2="54.193"/><line fill="none" stroke="#394553" stroke-miterlimit="10" stroke-width="2.5" x1="48.052" x2="61.171" y1="62.383" y2="62.383"/></g></g><g><polyline fill="none" points="27.731,19.773 27.731,27.234      20.263,27.234    " stroke="#394553" stroke-miterlimit="10" stroke-width="2.5"/><g><polyline fill="none" points="      38.151,70.649 14.884,70.649 14.884,25.273 25.81,14.352 57.167,14.352 57.167,28.732     " stroke="#394553" stroke-linejoin="round" stroke-miterlimit="10" stroke-width="2.5"/></g></g></g></g></svg>