<?xml version="1.0" ?><!DOCTYPE svg  PUBLIC '-//W3C//DTD SVG 1.1//EN'  'http://www.w3.org/Graphics/SVG/1.1/DTD/svg11.dtd'><svg enable-background="new 0 0 85 85" height="85px" id="Layer_1" version="1.1" viewBox="0 0 85 85" width="85px" xml:space="preserve" xmlns="http://www.w3.org/2000/svg" xmlns:xlink="http://www.w3.org/1999/xlink"><g><g><g><g><line fill="none" stroke="#394553" stroke-linecap="round" stroke-linejoin="round" stroke-miterlimit="10" stroke-width="2.5" x1="59.393" x2="59.393" y1="50.881" y2="47.037"/><path d="M47.854,57.102v8L42.481,65.1      c-0.66,0.002-0.972,0.518-1.099,0.822c-0.268,0.652-0.176,1.475,0.217,1.867l10.86,10.854c0.76,0.756,1.992,0.756,2.744,0      l10.811-10.854c0.42-0.42,0.549-1.229,0.291-1.85c-0.227-0.541-0.697-0.84-1.324-0.84l-5.588,0.002v-9.197" fill="none" stroke="#394553" stroke-linecap="round" stroke-width="2.5"/></g></g><g><g><line fill="none" stroke="#394553" stroke-linecap="round" stroke-linejoin="round" stroke-miterlimit="10" stroke-width="2.5" x1="27.465" x2="27.465" y1="26.313" y2="23.451"/><line fill="none" stroke="#394553" stroke-linecap="round" stroke-linejoin="round" stroke-miterlimit="10" stroke-width="2.5" x1="42.967" x2="42.967" y1="20.495" y2="17.881"/><line fill="none" stroke="#394553" stroke-linecap="round" stroke-linejoin="round" stroke-miterlimit="10" stroke-width="2.5" x1="42.967" x2="42.967" y1="30.148" y2="25.463"/><path d="M27.465,31.102v11.352l-7.219-0.002      c-0.887,0-1.309,0.695-1.479,1.104c-0.359,0.877-0.236,1.98,0.291,2.51l14.594,14.582c1.02,1.016,2.677,1.016,3.687,0      l14.526-14.582c0.562-0.566,0.736-1.652,0.391-2.486c-0.305-0.727-0.938-1.127-1.779-1.129l-7.509,0.002v-7.703" fill="none" stroke="#394553" stroke-linecap="round" stroke-width="2.5"/></g></g><g><line fill="none" stroke="#394553" stroke-linecap="round" stroke-linejoin="round" stroke-miterlimit="10" stroke-width="2.5" x1="35.5" x2="35.5" y1="37.104" y2="24.202"/><line fill="none" stroke="#394553" stroke-linecap="round" stroke-linejoin="round" stroke-miterlimit="10" stroke-width="2.5" x1="35.5" x2="35.5" y1="19.232" y2="12.804"/><line fill="none" stroke="#394553" stroke-linecap="round" stroke-linejoin="round" stroke-miterlimit="10" stroke-width="2.5" x1="35.5" x2="35.5" y1="7.834" y2="5.79"/></g></g><g><g><path d="M52.939,30.271     c0,3.204,2.793,5.799,6.234,5.799c3.447,0,6.24-2.595,6.24-5.799c0-3.205-3.33-4.604-6.252-6.089     c-2.922-1.481-6.25-2.884-6.25-6.086c0-3.207,2.789-5.802,6.236-5.802c3.449,0,6.238,2.595,6.238,5.802" fill="none" stroke="#394553" stroke-linecap="round" stroke-miterlimit="10" stroke-width="2.5"/><line fill="none" stroke="#394553" stroke-linecap="round" stroke-miterlimit="10" stroke-width="2.5" x1="59.148" x2="59.148" y1="12.267" y2="8.152"/><line fill="none" stroke="#394553" stroke-linecap="round" stroke-miterlimit="10" stroke-width="2.5" x1="59.148" x2="59.148" y1="40.215" y2="36.101"/></g></g></g></svg>