<?xml version="1.0" ?><!DOCTYPE svg  PUBLIC '-//W3C//DTD SVG 1.1//EN'  'http://www.w3.org/Graphics/SVG/1.1/DTD/svg11.dtd'><svg enable-background="new 0 0 85 85" height="85px" id="Layer_1" version="1.1" viewBox="0 0 85 85" width="85px" xml:space="preserve" xmlns="http://www.w3.org/2000/svg" xmlns:xlink="http://www.w3.org/1999/xlink"><g><g><path d="M57.527,52.634    l12.156-6.213c2.35-1.262,5.104-0.756,6.241,1.359c1.134,2.114,0.14,4.879-2.211,6.141L48.492,67.439l-1.334,0.334L23.634,68.41    c0,0-3.029,0.849-6.668,4.971" fill="none" stroke="#394553" stroke-linejoin="round" stroke-miterlimit="10" stroke-width="2.5"/><path d="M8.607,61.016l10.67-9.822    c5.215-3.517,11.398-1.575,11.398-1.575c2.994,0.788,8.555,0.966,8.555,0.966h9.233c2.75,0,5,1.964,5,4.364    c0,2.401-2.25,4.364-5,4.364H35.691" fill="none" stroke="#394553" stroke-miterlimit="10" stroke-width="2.5"/></g><g><circle cx="29.755" cy="25.641" fill="#394553" r="2.028"/><circle cx="55.333" cy="25.641" fill="#394553" r="2.028"/></g><g><rect fill="none" height="28.045" stroke="#394553" stroke-miterlimit="10" stroke-width="2.5" width="49.427" x="17.831" y="11.618"/><path d="M49.598,34.159h7.846    c0-2.254,1.828-4.084,4.084-4.084v-8.871c-2.256,0-4.084-1.828-4.084-4.084h-7.846" fill="none" stroke="#394553" stroke-miterlimit="10" stroke-width="2.5"/><path d="M35.65,17.12h-8.004    c0,2.256-1.829,4.084-4.084,4.084v8.871c2.255,0,4.084,1.83,4.084,4.084h8.004" fill="none" stroke="#394553" stroke-miterlimit="10" stroke-width="2.5"/></g><ellipse cx="42.544" cy="25.64" fill="none" rx="5.489" ry="7.668" stroke="#394553" stroke-miterlimit="10" stroke-width="2.5"/></g></svg>