<?xml version="1.0" ?><!DOCTYPE svg  PUBLIC '-//W3C//DTD SVG 1.1//EN'  'http://www.w3.org/Graphics/SVG/1.1/DTD/svg11.dtd'><svg enable-background="new 0 0 85 85" height="85px" id="Layer_1" version="1.1" viewBox="0 0 85 85" width="85px" xml:space="preserve" xmlns="http://www.w3.org/2000/svg" xmlns:xlink="http://www.w3.org/1999/xlink"><g><g><g><path d="M43.322,42.476     c0,2.286,1.991,4.135,4.446,4.135c2.459,0,4.45-1.85,4.45-4.135s-2.376-3.286-4.46-4.344c-2.084-1.056-4.457-2.057-4.457-4.341     c0-2.285,1.989-4.138,4.448-4.138c2.457,0,4.448,1.853,4.448,4.138" fill="none" stroke="#394553" stroke-linecap="round" stroke-miterlimit="10" stroke-width="2.5"/><line fill="none" stroke="#394553" stroke-linecap="round" stroke-miterlimit="10" stroke-width="2.5" x1="47.75" x2="47.75" y1="29.634" y2="26.86"/><line fill="none" stroke="#394553" stroke-linecap="round" stroke-miterlimit="10" stroke-width="2.5" x1="47.75" x2="47.75" y1="49.406" y2="46.633"/></g></g><g><g><g><g><g><g><line fill="none" stroke="#394553" stroke-linecap="round" stroke-linejoin="round" stroke-miterlimit="10" stroke-width="2.5" x1="47.938" x2="47.938" y1="59.859" y2="73.762"/><line fill="none" stroke="#394553" stroke-linecap="round" stroke-linejoin="round" stroke-miterlimit="10" stroke-width="2.5" x1="47.887" x2="37.978" y1="65.111" y2="73.762"/><line fill="none" stroke="#394553" stroke-linecap="round" stroke-linejoin="round" stroke-miterlimit="10" stroke-width="2.5" x1="57.963" x2="48.038" y1="73.762" y2="65.111"/><path d="         M47.963,63.914" fill="none" stroke="#394553" stroke-linecap="round" stroke-linejoin="round" stroke-miterlimit="10" stroke-width="2.5"/><path d="         M34.226,54.789h31.956c2.732,0,4.968-2.238,4.968-4.971V22.155" fill="none" stroke="#394553" stroke-linecap="round" stroke-linejoin="round" stroke-miterlimit="10" stroke-width="2.5"/></g><g><circle cx="20.599" cy="16.701" fill="none" r="5.462" stroke="#394553" stroke-miterlimit="10" stroke-width="2.5"/><path d="         M26.583,73.762l0.519-21.678c2.007-0.723,4.403-2.398,4.19-4.508l-1.64-16.266c-0.209-2.108-2.121-3.836-4.24-3.836h-9.628         c-2.118,0-4.029,1.728-4.239,3.836L9.904,47.576c-0.212,2.109,2.185,3.785,4.191,4.508l0.518,21.678" fill="none" stroke="#394553" stroke-linecap="round" stroke-linejoin="round" stroke-miterlimit="10" stroke-width="2.5"/></g></g></g></g></g><polyline fill="none" points="    31.309,16.413 75.108,16.413 75.108,21.496 44.977,21.496   " stroke="#394553" stroke-linecap="round" stroke-linejoin="round" stroke-miterlimit="10" stroke-width="2.5"/><line fill="none" stroke="#394553" stroke-linecap="round" stroke-linejoin="round" stroke-miterlimit="10" stroke-width="2.5" x1="38.643" x2="31.309" y1="21.496" y2="21.496"/></g></g></svg>