<?xml version="1.0" ?><!DOCTYPE svg  PUBLIC '-//W3C//DTD SVG 1.1//EN'  'http://www.w3.org/Graphics/SVG/1.1/DTD/svg11.dtd'><svg enable-background="new 0 0 85 85" height="85px" id="Layer_1" version="1.1" viewBox="0 0 85 85" width="85px" xml:space="preserve" xmlns="http://www.w3.org/2000/svg" xmlns:xlink="http://www.w3.org/1999/xlink"><g><g><g><path d="M47.615,48.588     c0,3.204,2.793,5.799,6.234,5.799c3.447,0,6.24-2.595,6.24-5.799c0-3.205-3.33-4.604-6.252-6.089     c-2.922-1.481-6.25-2.884-6.25-6.086c0-3.207,2.789-5.802,6.236-5.802c3.449,0,6.238,2.595,6.238,5.802" fill="none" stroke="#394553" stroke-linecap="round" stroke-miterlimit="10" stroke-width="2.5"/><line fill="none" stroke="#394553" stroke-linecap="round" stroke-miterlimit="10" stroke-width="2.5" x1="53.824" x2="53.824" y1="30.583" y2="26.469"/><line fill="none" stroke="#394553" stroke-linecap="round" stroke-miterlimit="10" stroke-width="2.5" x1="53.824" x2="53.824" y1="58.531" y2="54.417"/></g></g><g><path d="M35.05,38.595" fill="none" stroke="#394553" stroke-linejoin="round" stroke-miterlimit="10" stroke-width="2.5"/><line fill="none" stroke="#394553" stroke-linecap="round" stroke-linejoin="round" stroke-miterlimit="10" stroke-width="2.5" x1="36.125" x2="16.931" y1="49.38" y2="49.38"/><line fill="none" stroke="#394553" stroke-linecap="round" stroke-linejoin="round" stroke-miterlimit="10" stroke-width="2.5" x1="25.82" x2="19.116" y1="56.581" y2="56.581"/><line fill="none" stroke="#394553" stroke-linecap="round" stroke-linejoin="round" stroke-miterlimit="10" stroke-width="2.5" x1="24.906" x2="12.448" y1="28.19" y2="28.19"/><line fill="none" stroke="#394553" stroke-linecap="round" stroke-linejoin="round" stroke-miterlimit="10" stroke-width="2.5" x1="34.746" x2="22.393" y1="38.595" y2="38.595"/><g><line fill="none" stroke="#394553" stroke-linecap="round" stroke-linejoin="round" stroke-miterlimit="10" stroke-width="2.5" x1="14.116" x2="9.392" y1="56.581" y2="56.581"/></g><line fill="none" stroke="#394553" stroke-linecap="round" stroke-linejoin="round" stroke-miterlimit="10" stroke-width="2.5" x1="17.393" x2="12.669" y1="38.595" y2="38.595"/><line fill="none" stroke="#394553" stroke-linecap="round" stroke-linejoin="round" stroke-miterlimit="10" stroke-width="2.5" x1="7.669" x2="4.826" y1="38.595" y2="38.595"/></g><g><g><path d="M28.812,34.295     c1.244-3.808,3.381-7.388,6.408-10.415c10.283-10.285,26.959-10.284,37.24-0.002c10.285,10.284,10.285,26.959,0,37.242     c-10.285,10.285-26.957,10.284-37.24-0.001c-3.303-3.302-5.545-7.265-6.726-11.46" fill="none" stroke="#394553" stroke-miterlimit="10" stroke-width="2.5"/><path d="M27.646,45.208     c-0.22-2.135-0.179-4.293,0.122-6.421" fill="none" stroke="#394553" stroke-miterlimit="10" stroke-width="2.5"/></g></g></g></svg>