<?xml version="1.0" ?><!DOCTYPE svg  PUBLIC '-//W3C//DTD SVG 1.1//EN'  'http://www.w3.org/Graphics/SVG/1.1/DTD/svg11.dtd'><svg enable-background="new 0 0 85 85" height="85px" id="Layer_1" version="1.1" viewBox="0 0 85 85" width="85px" xml:space="preserve" xmlns="http://www.w3.org/2000/svg" xmlns:xlink="http://www.w3.org/1999/xlink"><g><g><g><g><line fill="none" stroke="#394553" stroke-linecap="round" stroke-linejoin="round" stroke-miterlimit="10" stroke-width="2.5" x1="25.607" x2="25.607" y1="34.12" y2="37.963"/><path d="M37.146,27.898v-8L42.52,19.9      c0.66-0.002,0.973-0.518,1.1-0.822c0.268-0.652,0.176-1.475-0.217-1.867L32.541,6.357c-0.76-0.756-1.992-0.756-2.744,0      L18.986,17.21c-0.42,0.42-0.549,1.229-0.291,1.85c0.227,0.541,0.697,0.84,1.324,0.84l5.588-0.002v9.198" fill="none" stroke="#394553" stroke-linecap="round" stroke-width="2.5"/></g></g><g><g><line fill="none" stroke="#394553" stroke-linecap="round" stroke-linejoin="round" stroke-miterlimit="10" stroke-width="2.5" x1="57.535" x2="57.535" y1="58.688" y2="61.549"/><line fill="none" stroke="#394553" stroke-linecap="round" stroke-linejoin="round" stroke-miterlimit="10" stroke-width="2.5" x1="42.033" x2="42.033" y1="64.506" y2="67.119"/><line fill="none" stroke="#394553" stroke-linecap="round" stroke-linejoin="round" stroke-miterlimit="10" stroke-width="2.5" x1="42.033" x2="42.033" y1="54.852" y2="59.537"/><path d="M57.535,53.898V42.547l7.219,0.002      c0.887,0,1.309-0.695,1.479-1.104c0.359-0.877,0.236-1.981-0.291-2.51L51.348,24.353c-1.02-1.016-2.676-1.016-3.686,0      L33.134,38.935c-0.562,0.566-0.736,1.653-0.391,2.487c0.305,0.727,0.938,1.127,1.779,1.129l7.51-0.002v7.703" fill="none" stroke="#394553" stroke-linecap="round" stroke-width="2.5"/></g></g><g><line fill="none" stroke="#394553" stroke-linecap="round" stroke-linejoin="round" stroke-miterlimit="10" stroke-width="2.5" x1="49.502" x2="49.502" y1="47.896" y2="60.799"/><line fill="none" stroke="#394553" stroke-linecap="round" stroke-linejoin="round" stroke-miterlimit="10" stroke-width="2.5" x1="49.502" x2="49.502" y1="65.768" y2="72.197"/><line fill="none" stroke="#394553" stroke-linecap="round" stroke-linejoin="round" stroke-miterlimit="10" stroke-width="2.5" x1="49.502" x2="49.502" y1="77.166" y2="79.211"/></g></g><g><g><path d="M19.422,66.871     c0,3.203,2.792,5.799,6.234,5.799c3.447,0,6.239-2.596,6.239-5.799c0-3.205-3.33-4.605-6.251-6.09     c-2.922-1.48-6.25-2.883-6.25-6.086c0-3.207,2.789-5.801,6.236-5.801c3.448,0,6.237,2.594,6.237,5.801" fill="none" stroke="#394553" stroke-linecap="round" stroke-miterlimit="10" stroke-width="2.5"/><line fill="none" stroke="#394553" stroke-linecap="round" stroke-miterlimit="10" stroke-width="2.5" x1="25.631" x2="25.631" y1="48.865" y2="44.752"/><line fill="none" stroke="#394553" stroke-linecap="round" stroke-miterlimit="10" stroke-width="2.5" x1="25.631" x2="25.631" y1="76.814" y2="72.699"/></g></g></g></svg>