<?xml version="1.0" ?><!DOCTYPE svg  PUBLIC '-//W3C//DTD SVG 1.1//EN'  'http://www.w3.org/Graphics/SVG/1.1/DTD/svg11.dtd'><svg enable-background="new 0 0 85 85" height="85px" id="Layer_1" version="1.1" viewBox="0 0 85 85" width="85px" xml:space="preserve" xmlns="http://www.w3.org/2000/svg" xmlns:xlink="http://www.w3.org/1999/xlink"><g><g><g><path d="     M60.37,43.386H49.933c0,0-1.545,6.471-11.592,7.63" fill="none" stroke="#394553" stroke-linecap="round" stroke-linejoin="round" stroke-miterlimit="10" stroke-width="2.5"/></g></g><path d="M50.731,26.835l-7.381-0.021   c0,0-1.715-0.169-3.843,0.669c-1.388,0.547-2.992,2.351-2.992,2.351L20.724,45.928" fill="none" stroke="#394553" stroke-miterlimit="10" stroke-width="2.5"/><path d="   M43.688,33.861h18.275c2.551,0,4.637,2.087,4.637,4.638v0.208c0,2.551-2.086,4.638-4.637,4.638H50.106" fill="none" stroke="#394553" stroke-linecap="round" stroke-linejoin="round" stroke-miterlimit="10" stroke-width="2.5"/><path d="M57.638,47.139c0,0-10.277,12.904-19.311,11.021   l-4.928,4.985" fill="none" stroke="#394553" stroke-miterlimit="10" stroke-width="2.5"/><polyline fill="none" points="7.934,54.398    14.683,46.441 36.825,65.956 30.075,73.913  " stroke="#394553" stroke-linejoin="round" stroke-miterlimit="10" stroke-width="2.5"/><polyline fill="none" points="67.772,17.368 67.772,11.087    77.048,11.087 77.048,60.249 67.772,60.249 67.772,53.736  " stroke="#394553" stroke-miterlimit="10" stroke-width="2.5"/><path d="M52.339,33.84   c0.871-6.927,6.783-12.288,13.947-12.288c4.33,0,8.203,1.956,10.781,5.034" fill="none" stroke="#394553" stroke-miterlimit="10" stroke-width="2.5"/><path d="M77.044,44.661   c-2.58,3.062-6.441,5.007-10.758,5.007c-4.982,0-9.361-2.594-11.857-6.503" fill="none" stroke="#394553" stroke-miterlimit="10" stroke-width="2.5"/></g></svg>