<?xml version="1.0" ?><!DOCTYPE svg  PUBLIC '-//W3C//DTD SVG 1.1//EN'  'http://www.w3.org/Graphics/SVG/1.1/DTD/svg11.dtd'><svg enable-background="new 0 0 85 85" height="85px" id="Layer_1" version="1.1" viewBox="0 0 85 85" width="85px" xml:space="preserve" xmlns="http://www.w3.org/2000/svg" xmlns:xlink="http://www.w3.org/1999/xlink"><g><g><g><circle cx="25.065" cy="45.695" fill="#394553" r="2.023"/><circle cx="53.385" cy="45.695" fill="#394553" r="2.023"/></g><rect fill="none" height="32.15" stroke="#394553" stroke-miterlimit="10" stroke-width="2.5" width="56.667" x="10.891" y="29.621"/><polyline fill="none" points="16.893,23.228 74.109,23.228     74.109,56.467   " stroke="#394553" stroke-miterlimit="10" stroke-width="2.5"/><path d="M61.607,39.658c-2.24,0-4.06-1.816-4.06-4.057    H20.9c0,2.24-1.817,4.057-4.057,4.057v12.076c2.239,0,4.057,1.818,4.057,4.06h36.649c0-2.239,1.818-4.06,4.059-4.06V39.658    L61.607,39.658z" fill="none" stroke="#394553" stroke-miterlimit="10" stroke-width="2.5"/><path d="M44.205,45.695c0,2.959-2.23,5.359-4.981,5.359    c-2.749,0-4.979-2.4-4.979-5.359c0-2.958,2.229-5.355,4.979-5.355C41.975,40.34,44.205,42.739,44.205,45.695z" fill="none" stroke="#394553" stroke-miterlimit="10" stroke-width="2.5"/></g></g></svg>