<?xml version="1.0" ?><!DOCTYPE svg  PUBLIC '-//W3C//DTD SVG 1.1//EN'  'http://www.w3.org/Graphics/SVG/1.1/DTD/svg11.dtd'><svg enable-background="new 0 0 85 85" height="85px" id="Layer_1" version="1.1" viewBox="0 0 85 85" width="85px" xml:space="preserve" xmlns="http://www.w3.org/2000/svg" xmlns:xlink="http://www.w3.org/1999/xlink"><g><g><path d="M18.019,37.497    c1.003-4.934,3.461-9.339,6.906-12.749" fill="none" stroke="#394553" stroke-linejoin="round" stroke-miterlimit="10" stroke-width="2.5"/><path d="M24.813,60.143    c-4.51-4.518-7.297-10.754-7.297-17.641" fill="none" stroke="#394553" stroke-linejoin="round" stroke-miterlimit="10" stroke-width="2.5"/><path d="M42.495,67.477    c-5.077,0-9.8-1.516-13.742-4.117" fill="none" stroke="#394553" stroke-linejoin="round" stroke-miterlimit="10" stroke-width="2.5"/><path d="M60.151,60.176    c-3.39,3.383-7.745,5.797-12.619,6.793" fill="none" stroke="#394553" stroke-linejoin="round" stroke-miterlimit="10" stroke-width="2.5"/><path d="M66.972,47.555    c-0.647,3.148-1.887,6.082-3.598,8.676" fill="none" stroke="#394553" stroke-linejoin="round" stroke-miterlimit="10" stroke-width="2.5"/><path d="M63.424,28.847    c2.567,3.925,4.06,8.615,4.06,13.655" fill="none" stroke="#394553" stroke-linejoin="round" stroke-miterlimit="10" stroke-width="2.5"/><path d="M47.532,18.031    c4.872,0.996,9.227,3.409,12.614,6.79" fill="none" stroke="#394553" stroke-linejoin="round" stroke-miterlimit="10" stroke-width="2.5"/><path d="M28.732,21.654    c3.946-2.61,8.678-4.13,13.763-4.13" fill="none" stroke="#394553" stroke-linejoin="round" stroke-miterlimit="10" stroke-width="2.5"/><g><g><g><g><line fill="none" stroke="#394553" stroke-linecap="round" stroke-linejoin="round" stroke-miterlimit="10" stroke-width="2.5" x1="42.487" x2="42.488" y1="77.457" y2="63.148"/></g></g><polyline fill="none" points="      37.94,72.959 42.509,77.527 47.06,72.979     " stroke="#394553" stroke-linecap="round" stroke-linejoin="round" stroke-miterlimit="10" stroke-width="2.5"/></g><g><g><g><line fill="none" stroke="#394553" stroke-linecap="round" stroke-linejoin="round" stroke-miterlimit="10" stroke-width="2.5" x1="42.513" x2="42.512" y1="7.542" y2="21.851"/></g></g><polyline fill="none" points="      47.06,12.042 42.49,7.472 37.94,12.023     " stroke="#394553" stroke-linecap="round" stroke-linejoin="round" stroke-miterlimit="10" stroke-width="2.5"/></g></g><g><g><g><g><line fill="none" stroke="#394553" stroke-linecap="round" stroke-linejoin="round" stroke-miterlimit="10" stroke-width="2.5" x1="7.543" x2="21.852" y1="42.486" y2="42.488"/></g></g><polyline fill="none" points="      12.041,37.94 7.473,42.508 12.021,47.059     " stroke="#394553" stroke-linecap="round" stroke-linejoin="round" stroke-miterlimit="10" stroke-width="2.5"/></g><g><g><g><line fill="none" stroke="#394553" stroke-linecap="round" stroke-linejoin="round" stroke-miterlimit="10" stroke-width="2.5" x1="77.457" x2="63.148" y1="42.512" y2="42.512"/></g></g><polyline fill="none" points="      72.957,47.059 77.527,42.49 72.977,37.94     " stroke="#394553" stroke-linecap="round" stroke-linejoin="round" stroke-miterlimit="10" stroke-width="2.5"/></g></g><g><g><g><g><line fill="none" stroke="#394553" stroke-linecap="round" stroke-linejoin="round" stroke-miterlimit="10" stroke-width="2.5" x1="17.772" x2="27.891" y1="67.209" y2="57.092"/></g></g><polyline fill="none" points="      17.738,60.812 17.738,67.273 24.173,67.275     " stroke="#394553" stroke-linecap="round" stroke-linejoin="round" stroke-miterlimit="10" stroke-width="2.5"/></g><g><g><g><line fill="none" stroke="#394553" stroke-linecap="round" stroke-linejoin="round" stroke-miterlimit="10" stroke-width="2.5" x1="67.228" x2="57.109" y1="17.791" y2="27.908"/></g></g><polyline fill="none" points="      67.261,24.188 67.261,17.725 60.826,17.725     " stroke="#394553" stroke-linecap="round" stroke-linejoin="round" stroke-miterlimit="10" stroke-width="2.5"/></g></g><g><g><g><g><line fill="none" stroke="#394553" stroke-linecap="round" stroke-linejoin="round" stroke-miterlimit="10" stroke-width="2.5" x1="67.209" x2="57.093" y1="67.227" y2="57.107"/></g></g><polyline fill="none" points="      60.813,67.262 67.274,67.262 67.275,60.826     " stroke="#394553" stroke-linecap="round" stroke-linejoin="round" stroke-miterlimit="10" stroke-width="2.5"/></g><g><g><g><line fill="none" stroke="#394553" stroke-linecap="round" stroke-linejoin="round" stroke-miterlimit="10" stroke-width="2.5" x1="17.791" x2="27.908" y1="17.773" y2="27.89"/></g></g><polyline fill="none" points="      24.188,17.739 17.725,17.739 17.726,24.173     " stroke="#394553" stroke-linecap="round" stroke-linejoin="round" stroke-miterlimit="10" stroke-width="2.5"/></g></g></g><g><g><path d="M36.921,47.955     c0,2.873,2.504,5.199,5.589,5.199c3.091,0,5.594-2.326,5.594-5.199c0-2.871-2.985-4.127-5.604-5.457     c-2.619-1.328-5.603-2.585-5.603-5.457c0-2.873,2.5-5.199,5.591-5.199c3.09,0,5.592,2.326,5.592,5.199" fill="none" stroke="#394553" stroke-linecap="round" stroke-miterlimit="10" stroke-width="2.5"/><line fill="none" stroke="#394553" stroke-linecap="round" stroke-miterlimit="10" stroke-width="2.5" x1="42.487" x2="42.487" y1="31.817" y2="28.331"/><line fill="none" stroke="#394553" stroke-linecap="round" stroke-miterlimit="10" stroke-width="2.5" x1="42.487" x2="42.487" y1="56.668" y2="53.182"/></g></g></g></svg>