<?xml version="1.0" ?><!DOCTYPE svg  PUBLIC '-//W3C//DTD SVG 1.1//EN'  'http://www.w3.org/Graphics/SVG/1.1/DTD/svg11.dtd'><svg enable-background="new 0 0 85 85" height="85px" id="Layer_1" version="1.1" viewBox="0 0 85 85" width="85px" xml:space="preserve" xmlns="http://www.w3.org/2000/svg" xmlns:xlink="http://www.w3.org/1999/xlink"><g><g><path d="M26.092,69.531    c-1.672,0-3.037-1.404-3.037-3.074V18.505c0-1.671,1.365-3.036,3.037-3.036H58.91c1.67,0,3.035,1.365,3.035,3.036v47.952    c0,1.67-1.365,3.074-3.035,3.074H26.092z" fill="none" stroke="#394553" stroke-linejoin="round" stroke-miterlimit="10" stroke-width="2.5"/><line fill="none" stroke="#394553" stroke-miterlimit="10" stroke-width="2.5" x1="28.07" x2="61.867" y1="33.276" y2="33.276"/><line fill="none" stroke="#394553" stroke-miterlimit="10" stroke-width="2.5" x1="36.041" x2="36.041" y1="33.463" y2="69.287"/><line fill="none" stroke="#394553" stroke-miterlimit="10" stroke-width="2.5" x1="49.027" x2="49.027" y1="33.428" y2="69.242"/><line fill="none" stroke="#394553" stroke-miterlimit="10" stroke-width="2.5" x1="47.248" x2="47.248" y1="21.315" y2="27.798"/><line fill="none" stroke="#394553" stroke-miterlimit="10" stroke-width="2.5" x1="54.475" x2="54.475" y1="21.315" y2="27.798"/><line fill="none" stroke="#394553" stroke-miterlimit="10" stroke-width="2.5" x1="28.07" x2="61.867" y1="45.324" y2="45.324"/><line fill="none" stroke="#394553" stroke-miterlimit="10" stroke-width="2.5" x1="28.07" x2="48.787" y1="57.369" y2="57.369"/></g></g></svg>