<?xml version="1.0" ?><!DOCTYPE svg  PUBLIC '-//W3C//DTD SVG 1.1//EN'  'http://www.w3.org/Graphics/SVG/1.1/DTD/svg11.dtd'><svg enable-background="new 0 0 85 85" height="85px" id="Layer_1" version="1.1" viewBox="0 0 85 85" width="85px" xml:space="preserve" xmlns="http://www.w3.org/2000/svg" xmlns:xlink="http://www.w3.org/1999/xlink"><g><g><path d="M36.525,48.346    c0,3.076,2.683,5.566,5.99,5.566c3.309,0,5.989-2.49,5.989-5.566c0-3.078-3.197-4.424-6.003-5.847    c-2.805-1.425-6.003-2.771-6.003-5.845c0-3.077,2.683-5.57,5.991-5.57c3.309,0,5.989,2.493,5.989,5.57" fill="none" stroke="#394553" stroke-linecap="round" stroke-miterlimit="10" stroke-width="2.5"/><line fill="none" stroke="#394553" stroke-linecap="round" stroke-miterlimit="10" stroke-width="2.5" x1="42.488" x2="42.488" y1="31.058" y2="27.369"/><line fill="none" stroke="#394553" stroke-linecap="round" stroke-miterlimit="10" stroke-width="2.5" x1="42.488" x2="42.488" y1="57.629" y2="53.941"/></g><g><path d="M72.742,42.5    c0,16.697-13.537,30.234-30.249,30.234c-16.697,0-30.236-13.537-30.236-30.234c0-16.7,13.539-30.236,30.236-30.236    C59.205,12.265,72.742,25.801,72.742,42.5z" fill="none" stroke="#394553" stroke-linejoin="round" stroke-miterlimit="10" stroke-width="2.5"/><path d="    M42.496,19.823c12.534,0,22.688,10.152,22.688,22.677c0,12.523-10.154,22.675-22.688,22.675    c-12.524,0-22.676-10.152-22.676-22.675c0-7.259,3.411-13.722,8.716-17.871" fill="none" stroke="#394553" stroke-linecap="round" stroke-linejoin="round" stroke-miterlimit="10" stroke-width="2.5"/></g></g></svg>