<?xml version="1.0" ?><!DOCTYPE svg  PUBLIC '-//W3C//DTD SVG 1.1//EN'  'http://www.w3.org/Graphics/SVG/1.1/DTD/svg11.dtd'><svg enable-background="new 0 0 85 85" height="85px" id="Layer_1" version="1.1" viewBox="0 0 85 85" width="85px" xml:space="preserve" xmlns="http://www.w3.org/2000/svg" xmlns:xlink="http://www.w3.org/1999/xlink"><g><path d="M57.607,30.149   c-3.672,0.924-10.865,0.676-20.014-4.879c-9.148-5.556-15.09-12.492-13.267-15.49c1.653-2.721,9.118-1.271,17.317,3.166" fill="none" stroke="#394553" stroke-linecap="round" stroke-miterlimit="10" stroke-width="2.5"/><path d="   M55.246,26.726c0.079-0.078,0.159-0.154,0.242-0.227c1.914-1.673,4.824-1.598,6.65,0.227c1.904,1.906,1.904,4.99,0,6.895   c-1.631,1.631-4.129,1.865-6.012,0.702" fill="none" stroke="#394553" stroke-linecap="round" stroke-linejoin="round" stroke-miterlimit="10" stroke-width="2.5"/><polyline fill="none" points="36.664,24.907    12.27,49.298 39.566,76.595 72.731,43.429 72.454,26.94 61.927,16.413 45.436,16.134 40.163,21.407  " stroke="#394553" stroke-linejoin="round" stroke-miterlimit="10" stroke-width="2.5"/><g><path d="M33.928,48.431    c-1.707,1.707-1.602,4.578,0.233,6.414s4.706,1.94,6.413,0.233s0.682-4.229-0.086-6.575c-0.767-2.348-1.794-4.867-0.087-6.574    s4.579-1.603,6.414,0.232c1.835,1.836,1.938,4.707,0.232,6.414" fill="none" stroke="#394553" stroke-linecap="round" stroke-miterlimit="10" stroke-width="2.5"/><line fill="none" stroke="#394553" stroke-linecap="round" stroke-miterlimit="10" stroke-width="2.5" x1="46.83" x2="48.65" y1="42.146" y2="40.326"/><line fill="none" stroke="#394553" stroke-linecap="round" stroke-miterlimit="10" stroke-width="2.5" x1="32.311" x2="34.131" y1="56.667" y2="54.847"/></g></g></svg>