<?xml version="1.0" ?><!DOCTYPE svg  PUBLIC '-//W3C//DTD SVG 1.1//EN'  'http://www.w3.org/Graphics/SVG/1.1/DTD/svg11.dtd'><svg enable-background="new 0 0 85 85" height="85px" id="Layer_1" version="1.1" viewBox="0 0 85 85" width="85px" xml:space="preserve" xmlns="http://www.w3.org/2000/svg" xmlns:xlink="http://www.w3.org/1999/xlink"><g><g><path d="    M57.821,75.875l-18.061-7.566c-1.742-0.738-2.562-2.768-1.822-4.512l0.207-0.484c0.738-1.74,2.768-2.562,4.508-1.822l8.189,3.414    l-3.113-7.578l-6.422-15.643c-0.719-1.748,0.129-3.769,1.875-4.488l0.266-0.107c1.75-0.719,3.77,0.125,4.486,1.873l4.908,11.947    l13.021-2.992c0,0,4.301-0.838,6.443,4.377l4.824,15.057" fill="none" stroke="#394553" stroke-linecap="round" stroke-linejoin="round" stroke-miterlimit="10" stroke-width="2.5"/></g><g><g><g><path d="M23.888,36.27      c0,2.844,2.482,5.148,5.539,5.148c3.059,0,5.539-2.304,5.539-5.148s-2.957-4.092-5.553-5.408      c-2.594-1.315-5.547-2.561-5.547-5.404c0-2.846,2.477-5.152,5.535-5.152c3.061,0,5.539,2.307,5.539,5.152" fill="none" stroke="#394553" stroke-linecap="round" stroke-miterlimit="10" stroke-width="2.5"/><line fill="none" stroke="#394553" stroke-linecap="round" stroke-miterlimit="10" stroke-width="2.5" x1="29.401" x2="29.401" y1="20.281" y2="16.757"/><line fill="none" stroke="#394553" stroke-linecap="round" stroke-miterlimit="10" stroke-width="2.5" x1="29.401" x2="29.401" y1="44.969" y2="41.447"/></g></g><g><path d="     M39.069,50.143c-1.148,0.564-2.361,1.035-3.637,1.398c-11.48,3.281-23.449-3.369-26.729-14.851     c-1.672-5.859-0.76-11.845,2.061-16.738" fill="none" stroke="#394553" stroke-linecap="round" stroke-linejoin="round" stroke-miterlimit="10" stroke-width="2.5"/></g><g><path d="     M15.46,14.298c2.287-1.953,5.018-3.456,8.096-4.337c11.484-3.279,23.455,3.369,26.732,14.852     c0.912,3.193,1.059,6.423,0.543,9.494" fill="none" stroke="#394553" stroke-linecap="round" stroke-linejoin="round" stroke-miterlimit="10" stroke-width="2.5"/></g></g></g></svg>