<?xml version="1.0" ?><!DOCTYPE svg  PUBLIC '-//W3C//DTD SVG 1.1//EN'  'http://www.w3.org/Graphics/SVG/1.1/DTD/svg11.dtd'><svg enable-background="new 0 0 85 85" height="85px" id="Layer_1" version="1.1" viewBox="0 0 85 85" width="85px" xml:space="preserve" xmlns="http://www.w3.org/2000/svg" xmlns:xlink="http://www.w3.org/1999/xlink"><g><g><g><g><g><path d="M38.487,38.445       c0,2.061,1.799,3.73,4.012,3.73c2.219,0,4.016-1.67,4.016-3.73s-2.143-2.964-4.025-3.917c-1.877-0.953-4.018-1.854-4.018-3.916       c0-2.061,1.794-3.73,4.012-3.73c2.216,0,4.012,1.67,4.012,3.73" fill="none" stroke="#394553" stroke-linecap="round" stroke-miterlimit="10" stroke-width="2.5"/><line fill="none" stroke="#394553" stroke-linecap="round" stroke-miterlimit="10" stroke-width="2.5" x1="42.483" x2="42.483" y1="26.862" y2="24.128"/><line fill="none" stroke="#394553" stroke-linecap="round" stroke-miterlimit="10" stroke-width="2.5" x1="42.483" x2="42.483" y1="44.935" y2="42.195"/></g></g></g><g><path d="     M32.409,21.971c1.629-1.312,3.539-2.327,5.678-2.935c8.532-2.44,17.429,2.5,19.865,11.032     c2.437,8.536-2.508,17.429-11.041,19.865c-8.532,2.439-17.425-2.504-19.862-11.036c-1.187-4.162-0.621-8.407,1.261-11.949" fill="none" stroke="#394553" stroke-linecap="round" stroke-linejoin="round" stroke-miterlimit="10" stroke-width="2.5"/></g></g><g><g><path d="M64.844,43.934V30.957     c-0.014-2.154,1.389-3.927,3.328-3.939c1.936-0.01,3.531,1.742,3.545,3.896v25.189l-11.549,15.08c0,0-1.252,1.459-0.881,6.795" fill="none" stroke="#394553" stroke-linejoin="round" stroke-miterlimit="10" stroke-width="2.5"/><path d="M45.469,78.104L45.482,66.4     c0-4.547,5.303-7.627,5.303-7.627c2.4-1.607,5.133-4.408,5.133-4.408l4.525-4.906c1.865-2.022,4.559-2.6,5.984-1.287     c1.428,1.313,1.068,4.041-0.797,6.062l-6.361,6.891" fill="none" stroke="#394553" stroke-miterlimit="10" stroke-width="2.5"/></g><g><path d="M20.159,43.934     l-0.002-12.977c0.014-2.154-1.389-3.927-3.328-3.939c-1.936-0.01-3.531,1.742-3.545,3.896l0.002,25.189l11.547,15.08     c0,0,1.252,1.459,0.881,6.795" fill="none" stroke="#394553" stroke-linejoin="round" stroke-miterlimit="10" stroke-width="2.5"/><path d="M39.533,78.104L39.52,66.4     c0-4.547-5.304-7.627-5.304-7.627c-2.4-1.607-5.131-4.408-5.131-4.408l-4.527-4.906c-1.863-2.022-4.557-2.6-5.984-1.287     c-1.426,1.313-1.066,4.041,0.799,6.062l6.361,6.891" fill="none" stroke="#394553" stroke-miterlimit="10" stroke-width="2.5"/></g></g><g><line fill="none" stroke="#394553" stroke-linecap="round" stroke-miterlimit="10" stroke-width="2.5" x1="42.501" x2="42.501" y1="11.77" y2="6.896"/></g><g><g><line fill="none" stroke="#394553" stroke-linecap="round" stroke-miterlimit="10" stroke-width="2.5" x1="29.677" x2="26.616" y1="16.254" y2="12.462"/></g><g><line fill="none" stroke="#394553" stroke-linecap="round" stroke-miterlimit="10" stroke-width="2.5" x1="58.386" x2="55.325" y1="12.461" y2="16.254"/></g></g></g></svg>