<?xml version="1.0" ?><!DOCTYPE svg  PUBLIC '-//W3C//DTD SVG 1.1//EN'  'http://www.w3.org/Graphics/SVG/1.1/DTD/svg11.dtd'><svg enable-background="new 0 0 85 85" height="85px" id="Layer_1" version="1.1" viewBox="0 0 85 85" width="85px" xml:space="preserve" xmlns="http://www.w3.org/2000/svg" xmlns:xlink="http://www.w3.org/1999/xlink"><g><g><path d="M19.111,32.024h-1.402    c-1.65,0-3-1.351-3-3v-7.27c0-1.65,1.35-3,3-3h49.582c1.65,0,3,1.35,3,3v7.27c0,1.649-1.35,3-3,3h-3.322" fill="none" stroke="#394553" stroke-linejoin="round" stroke-miterlimit="10" stroke-width="2.5"/><polyline fill="none" points="56.73,18.687 44.057,60.518     15.377,60.518 28.049,18.687   " stroke="#394553" stroke-miterlimit="10" stroke-width="2.5"/><polyline fill="none" points="62.887,18.958 48.561,66.312     18.879,66.312   " stroke="#394553" stroke-miterlimit="10" stroke-width="2.5"/></g><g><path d="M33.527,45.975c-0.927,0-1.801,0.655-2.079,1.56c-0.173,0.567-0.083,1.149,0.25,1.599    c0.326,0.441,0.842,0.694,1.416,0.694c0.928,0,1.802-0.656,2.08-1.561c0.173-0.567,0.083-1.149-0.249-1.598    C34.617,46.228,34.101,45.975,33.527,45.975z" fill="#394553"/><path d="M42.189,23.016c-0.326-0.44-0.842-0.693-1.416-0.693c-0.926,0-1.801,0.654-2.081,1.562    c-0.172,0.567-0.08,1.149,0.252,1.597c0.327,0.44,0.842,0.693,1.415,0.693c0.93,0,1.804-0.658,2.079-1.561    C42.611,24.046,42.521,23.464,42.189,23.016z" fill="#394553"/></g><line fill="none" stroke="#394553" stroke-linecap="round" stroke-miterlimit="10" stroke-width="2.5" x1="47.592" x2="51.086" y1="30.289" y2="18.942"/><path d="M26.64,41.194   l-3.314,10.602c1.958,0,3.06,1.588,2.459,3.545H36.34c0.601-1.957,2.675-3.545,4.633-3.545l2.569-8.346" fill="none" stroke="#394553" stroke-linecap="round" stroke-miterlimit="10" stroke-width="2.5"/><line fill="none" stroke="#394553" stroke-linecap="round" stroke-miterlimit="10" stroke-width="2.5" x1="33.439" x2="30.916" y1="18.942" y2="27.317"/><ellipse cx="36.955" cy="35.689" fill="none" rx="5" ry="6.999" stroke="#394553" stroke-miterlimit="10" stroke-width="2.5" transform="matrix(-0.0501 -0.9987 0.9987 -0.0501 3.1627 74.3854)"/></g></svg>