<?xml version="1.0" ?><!DOCTYPE svg  PUBLIC '-//W3C//DTD SVG 1.1//EN'  'http://www.w3.org/Graphics/SVG/1.1/DTD/svg11.dtd'><svg enable-background="new 0 0 85 85" height="85px" id="Layer_1" version="1.1" viewBox="0 0 85 85" width="85px" xml:space="preserve" xmlns="http://www.w3.org/2000/svg" xmlns:xlink="http://www.w3.org/1999/xlink"><g><g><path d="    M49.039,69.326L36.33,56.592c-1.221-1.236-1.211-3.246,0.025-4.469l0.346-0.342c1.234-1.223,3.246-1.213,4.469,0.023l5.77,5.762    v-7.527V34.503c0-1.736,1.422-3.159,3.158-3.159h0.264c1.738,0,3.16,1.423,3.16,3.159v11.866l12.113,2.002    c0,0,3.947,0.791,3.947,5.969l-1.154,14.48" fill="none" stroke="#394553" stroke-linecap="round" stroke-linejoin="round" stroke-miterlimit="10" stroke-width="2.5"/></g><rect fill="none" height="7.844" stroke="#394553" stroke-miterlimit="10" stroke-width="2.5" width="7.844" x="45.707" y="15.674"/><rect fill="none" height="7.844" stroke="#394553" stroke-miterlimit="10" stroke-width="2.5" width="7.844" x="30.562" y="15.674"/><rect fill="none" height="7.845" stroke="#394553" stroke-miterlimit="10" stroke-width="2.5" width="7.844" x="30.562" y="30.81"/><polyline fill="none" points="30.562,53.836 30.562,45.992    38.406,45.992  " stroke="#394553" stroke-miterlimit="10" stroke-width="2.5"/><rect fill="none" height="7.844" stroke="#394553" stroke-miterlimit="10" stroke-width="2.5" width="7.844" x="15.418" y="15.674"/><rect fill="none" height="7.845" stroke="#394553" stroke-miterlimit="10" stroke-width="2.5" width="7.844" x="15.418" y="30.897"/><rect fill="none" height="7.846" stroke="#394553" stroke-miterlimit="10" stroke-width="2.5" width="7.844" x="15.418" y="46.078"/></g></svg>