<?xml version="1.0" ?><!DOCTYPE svg  PUBLIC '-//W3C//DTD SVG 1.1//EN'  'http://www.w3.org/Graphics/SVG/1.1/DTD/svg11.dtd'><svg enable-background="new 0 0 85 85" height="85px" id="Layer_1" version="1.1" viewBox="0 0 85 85" width="85px" xml:space="preserve" xmlns="http://www.w3.org/2000/svg" xmlns:xlink="http://www.w3.org/1999/xlink"><g><g><g><g><path d="M54.977,66.787      c0,1.762,1.537,3.188,3.428,3.188c1.898,0,3.432-1.427,3.432-3.188s-1.83-2.533-3.438-3.349s-3.438-1.586-3.438-3.348      c0-1.761,1.535-3.188,3.43-3.188c1.896,0,3.432,1.428,3.432,3.188" fill="none" stroke="#394553" stroke-linecap="round" stroke-miterlimit="10" stroke-width="2.5"/><line fill="none" stroke="#394553" stroke-linecap="round" stroke-miterlimit="10" stroke-width="2.5" x1="58.391" x2="58.391" y1="56.886" y2="54.548"/><line fill="none" stroke="#394553" stroke-linecap="round" stroke-miterlimit="10" stroke-width="2.5" x1="58.391" x2="58.391" y1="72.333" y2="69.993"/></g></g></g><g><path d="    M49.781,52.704c1.393-1.121,3.025-1.989,4.852-2.51c7.295-2.085,14.9,2.139,16.98,9.432c2.084,7.297-2.143,14.898-9.436,16.981    c-7.293,2.085-14.896-2.142-16.979-9.435c-1.016-3.558-0.531-7.186,1.076-10.215" fill="none" stroke="#394553" stroke-linecap="round" stroke-linejoin="round" stroke-miterlimit="10" stroke-width="2.5"/></g><g><g><path d="M29.765,15.984v-4.149     c0-2.187,1.787-3.975,3.975-3.975h7.674c2.188,0,3.976,1.788,3.976,3.975v4.149" fill="none" stroke="#394553" stroke-miterlimit="10" stroke-width="2.5"/><path d="M54.434,18.501     c2.834,1.846,5.348,4.142,7.439,6.787" fill="none" stroke="#394553" stroke-miterlimit="10" stroke-width="2.5"/><line fill="none" stroke="#394553" stroke-miterlimit="10" stroke-width="2.5" x1="37.577" x2="37.577" y1="13.368" y2="19.995"/><path d="M41.073,61.45     c-1.129,0.231-2.299,0.353-3.496,0.353c-9.547,0-17.283-7.737-17.283-17.282" fill="none" stroke="#394553" stroke-miterlimit="10" stroke-width="2.5"/><path d="M37.577,27.237     c9.542,0,17.282,7.736,17.282,17.283c0,0.252-0.006,0.502-0.016,0.751" fill="none" stroke="#394553" stroke-miterlimit="10" stroke-width="2.5"/><path d="M41.565,68.923     c-1.299,0.21-2.631,0.319-3.988,0.319c-13.656,0-24.723-11.068-24.723-24.721c0-13.656,11.066-24.725,24.723-24.725     c13.651,0,24.722,11.068,24.722,24.725c0,0.413-0.01,0.824-0.031,1.232" fill="none" stroke="#394553" stroke-miterlimit="10" stroke-width="2.5"/><circle cx="37.577" cy="44.52" fill="none" r="4.562" stroke="#394553" stroke-miterlimit="10" stroke-width="2.5"/><line fill="none" stroke="#394553" stroke-miterlimit="10" stroke-width="2.5" x1="41.896" x2="46.48" y1="46.159" y2="47.868"/><line fill="none" stroke="#394553" stroke-miterlimit="10" stroke-width="2.5" x1="21.882" x2="33.251" y1="38.703" y2="42.938"/></g></g></g></svg>