<?xml version="1.0" ?><!DOCTYPE svg  PUBLIC '-//W3C//DTD SVG 1.1//EN'  'http://www.w3.org/Graphics/SVG/1.1/DTD/svg11.dtd'><svg enable-background="new 0 0 85 85" height="85px" id="Layer_1" version="1.1" viewBox="0 0 85 85" width="85px" xml:space="preserve" xmlns="http://www.w3.org/2000/svg" xmlns:xlink="http://www.w3.org/1999/xlink"><g><g><g><path d="M48.228,54.729     c0,2.043,2.15,3.699,4.804,3.699c2.654,0,4.804-1.656,4.804-3.699s-2.562-2.936-4.813-3.881c-2.251-0.946-4.815-1.84-4.815-3.882     c0-2.043,2.15-3.698,4.805-3.698c2.653,0,4.804,1.655,4.804,3.698" fill="none" stroke="#394553" stroke-linecap="round" stroke-miterlimit="10" stroke-width="2.5"/><line fill="none" stroke="#394553" stroke-miterlimit="10" stroke-width="2.5" x1="53.011" x2="53.011" y1="43.251" y2="39.809"/><line fill="none" stroke="#394553" stroke-miterlimit="10" stroke-width="2.5" x1="53.011" x2="53.011" y1="62.064" y2="58.448"/></g><polyline fill="none" points="    20.173,68.04 20.163,9.875 24.601,13.037 29.091,9.873 33.537,13.038 38.024,9.875 42.466,13.04 46.949,9.875 51.393,13.039     55.907,9.875 60.347,13.038 64.826,9.865 64.838,75.128 20.174,75.136   " stroke="#394553" stroke-linecap="square" stroke-linejoin="round" stroke-miterlimit="10" stroke-width="2.5"/><line fill="none" stroke="#394553" stroke-miterlimit="10" stroke-width="2.5" x1="29.085" x2="55.913" y1="22.324" y2="22.324"/><line fill="none" stroke="#394553" stroke-miterlimit="10" stroke-width="2.5" x1="33.392" x2="51.606" y1="28.271" y2="28.271"/><g><g><g><rect fill="#394553" height="0.855" stroke="#394553" stroke-miterlimit="10" stroke-width="2.5" width="0.855" x="27.97" y="42.518"/></g><line fill="none" stroke="#394553" stroke-miterlimit="10" stroke-width="2.5" x1="33.644" x2="42.646" y1="42.945" y2="42.945"/></g><g><g><rect fill="#394553" height="0.855" stroke="#394553" stroke-miterlimit="10" stroke-width="2.5" width="0.855" x="27.97" y="50.509"/></g><line fill="none" stroke="#394553" stroke-miterlimit="10" stroke-width="2.5" x1="33.644" x2="42.979" y1="50.937" y2="50.937"/></g><g><g><rect fill="#394553" height="0.855" stroke="#394553" stroke-miterlimit="10" stroke-width="2.5" width="0.855" x="27.97" y="58.5"/></g><line fill="none" stroke="#394553" stroke-miterlimit="10" stroke-width="2.5" x1="33.644" x2="42.646" y1="58.928" y2="58.928"/></g></g></g></g></svg>