<?xml version="1.0" ?><!DOCTYPE svg  PUBLIC '-//W3C//DTD SVG 1.1//EN'  'http://www.w3.org/Graphics/SVG/1.1/DTD/svg11.dtd'><svg enable-background="new 0 0 85 85" height="85px" id="Layer_1" version="1.1" viewBox="0 0 85 85" width="85px" xml:space="preserve" xmlns="http://www.w3.org/2000/svg" xmlns:xlink="http://www.w3.org/1999/xlink"><g><g><g><circle cx="37.073" cy="42.5" fill="none" r="4.173" stroke="#394553" stroke-linejoin="round" stroke-miterlimit="10" stroke-width="2.5"/></g><path d="    M41.453,30.059c-1.373-0.479-2.846-0.741-4.38-0.741c-4.45,0-8.41,2.203-10.798,5.575l-7.559-5.531" fill="none" stroke="#394553" stroke-linecap="round" stroke-linejoin="round" stroke-miterlimit="10" stroke-width="2.5"/><path d="    M55.432,29.362l-7.561,5.531c-0.574-0.812-1.24-1.557-1.982-2.22" fill="none" stroke="#394553" stroke-linecap="round" stroke-linejoin="round" stroke-miterlimit="10" stroke-width="2.5"/><line fill="none" stroke="#394553" stroke-linecap="round" stroke-linejoin="round" stroke-miterlimit="10" stroke-width="2.5" x1="37.073" x2="37.073" y1="29.155" y2="19.895"/><line fill="none" stroke="#394553" stroke-linecap="round" stroke-linejoin="round" stroke-miterlimit="10" stroke-width="2.5" x1="30.957" x2="28.116" y1="30.645" y2="25.239"/><line fill="none" stroke="#394553" stroke-linecap="round" stroke-linejoin="round" stroke-miterlimit="10" stroke-width="2.5" x1="38.611" x2="43.826" y1="38.344" y2="24.262"/></g><line fill="none" stroke="#394553" stroke-linecap="round" stroke-linejoin="round" stroke-miterlimit="10" stroke-width="2.5" x1="42.257" x2="31.889" y1="58.516" y2="58.516"/><g><g><g><path d="M58.225,58.658      c0,1.908,1.67,3.453,3.723,3.453c2.059,0,3.725-1.545,3.725-3.453c0-1.906-1.986-2.744-3.732-3.627      c-1.742-0.883-3.729-1.713-3.729-3.623c0-1.908,1.664-3.455,3.721-3.455s3.725,1.547,3.725,3.455" fill="none" stroke="#394553" stroke-linecap="round" stroke-miterlimit="10" stroke-width="2.5"/><line fill="none" stroke="#394553" stroke-linecap="round" stroke-miterlimit="10" stroke-width="2.5" x1="61.932" x2="61.932" y1="47.934" y2="45.404"/><line fill="none" stroke="#394553" stroke-linecap="round" stroke-miterlimit="10" stroke-width="2.5" x1="61.932" x2="61.932" y1="64.666" y2="62.131"/></g></g></g><g><path d="    M52.578,43.449c1.512-1.215,3.283-2.154,5.268-2.716c7.918-2.259,16.174,2.314,18.432,10.214    c2.262,7.902-2.326,16.135-10.242,18.391c-7.918,2.258-16.168-2.32-18.428-10.217c-1.102-3.852-0.578-7.783,1.168-11.064" fill="none" stroke="#394553" stroke-linecap="round" stroke-linejoin="round" stroke-miterlimit="10" stroke-width="2.5"/></g><path d="M47.949,69.312   c-3.357,1.361-7.029,2.113-10.876,2.113c-15.975,0-28.926-12.951-28.926-28.926c0-15.976,12.951-28.926,28.926-28.926   c13.619,0,25.04,9.411,28.112,22.087" fill="none" stroke="#394553" stroke-linejoin="round" stroke-miterlimit="10" stroke-width="2.5"/></g></svg>