<?xml version="1.0" ?><!DOCTYPE svg  PUBLIC '-//W3C//DTD SVG 1.1//EN'  'http://www.w3.org/Graphics/SVG/1.1/DTD/svg11.dtd'><svg enable-background="new 0 0 85 85" height="85px" id="Layer_1" version="1.1" viewBox="0 0 85 85" width="85px" xml:space="preserve" xmlns="http://www.w3.org/2000/svg" xmlns:xlink="http://www.w3.org/1999/xlink"><g><g><g><path d="M55.445,21.543     c9.383,9.381,9.383,24.593,0,33.974c-9.382,9.385-24.59,9.381-33.974,0c-9.381-9.381-9.383-24.591,0-33.974     C30.855,12.162,46.065,12.162,55.445,21.543z" fill="none" stroke="#394553" stroke-miterlimit="10" stroke-width="2.5"/><path d="M21.561,32.907     c0.861-2.597,2.321-4.976,4.312-6.965c0.621-0.621,1.28-1.19,1.973-1.705" fill="none" stroke="#394553" stroke-linecap="round" stroke-miterlimit="10" stroke-width="2.5"/></g></g><g><g><path d="M32.336,44.523     c0,3.154,2.749,5.707,6.137,5.707c3.392,0,6.141-2.553,6.141-5.707c0-3.153-3.277-4.534-6.154-5.995     c-2.876-1.458-6.15-2.837-6.15-5.99s2.744-5.707,6.139-5.707c3.392,0,6.139,2.554,6.139,5.707" fill="none" stroke="#394553" stroke-linecap="round" stroke-miterlimit="10" stroke-width="2.5"/><line fill="none" stroke="#394553" stroke-linecap="round" stroke-miterlimit="10" stroke-width="2.5" x1="38.447" x2="38.447" y1="26.803" y2="22.975"/><line fill="none" stroke="#394553" stroke-linecap="round" stroke-miterlimit="10" stroke-width="2.5" x1="38.447" x2="38.447" y1="54.088" y2="50.26"/></g></g><path d="M57.678,52.934l12.05,12.049   c1.184,1.188,1.104,3.207-0.18,4.492c-1.285,1.285-3.307,1.365-4.49,0.18l-8.621-8.619" fill="none" stroke="#394553" stroke-miterlimit="10" stroke-width="2.5"/></g></svg>