<?xml version="1.0" ?><!DOCTYPE svg  PUBLIC '-//W3C//DTD SVG 1.1//EN'  'http://www.w3.org/Graphics/SVG/1.1/DTD/svg11.dtd'><svg enable-background="new 0 0 85 85" height="85px" id="Layer_1" version="1.1" viewBox="0 0 85 85" width="85px" xml:space="preserve" xmlns="http://www.w3.org/2000/svg" xmlns:xlink="http://www.w3.org/1999/xlink"><g><g><line fill="none" stroke="#394553" stroke-linecap="round" stroke-miterlimit="10" stroke-width="2.5" x1="34.354" x2="32.374" y1="43.682" y2="42.135"/><line fill="none" stroke="#394553" stroke-linecap="round" stroke-miterlimit="10" stroke-width="2.5" x1="50.646" x2="52.344" y1="43.682" y2="42.418"/></g><g><path d="    M60.244,41.509c3.953-1.651,10.008,1.777,10.008,1.777l-1.119-3.384c-1.596-6.379-9.342-6.379-9.342-6.379    c-4.102-0.684-5.467-5.24-5.467-5.24c-1.145-4.328-5.701-5.256-5.701-5.256H36.374c0,0-4.557,0.928-5.697,5.256    c0,0-1.365,4.557-5.467,5.24c0,0-7.746,0-9.342,6.379l-1.119,3.384c0,0,6.338-3.562,10.213-1.812" fill="none" stroke="#394553" stroke-linecap="round" stroke-linejoin="round" stroke-miterlimit="10" stroke-width="2.5"/></g><path d="M52.299,66.115c0,0.523,0,3.275,0,3.275   c0,2.199-1.801,4-4,4H36.704c-2.201,0-4-1.801-4-4c0,0,0-2.485,0-3.275c0-0.789,0.477-1.866,0.477-1.866   c1.453-2.344,5.137-3.327,9.321-3.327c4.182,0,8.016,1.067,9.318,3.327C51.82,64.249,52.299,65.593,52.299,66.115z" fill="none" stroke="#394553" stroke-miterlimit="10" stroke-width="2.5"/><g><path d="M22.962,29.122    c-9.068-7.08-3.352-17.515-3.352-17.515c-1.464,10.373,11.047,12.866,11.536,13.11l1.279,0.388" fill="none" stroke="#394553" stroke-linejoin="round" stroke-miterlimit="10" stroke-width="2.5"/><path d="M62.039,29.122    c9.068-7.08,3.352-17.515,3.352-17.515c1.465,10.373-11.047,12.865-11.535,13.109l-1.278,0.388" fill="none" stroke="#394553" stroke-linejoin="round" stroke-miterlimit="10" stroke-width="2.5"/></g><g><circle cx="38.742" cy="67.253" fill="#394553" r="1.95"/><circle cx="46.102" cy="67.253" fill="#394553" r="1.949"/></g><g><path d="M25.536,39.446    c0,0-2.541,8.119,3.645,12.305c0,0,2.684,2.08,4.393,5.255" fill="none" stroke="#394553" stroke-linecap="round" stroke-miterlimit="10" stroke-width="2.5"/><path d="M59.467,39.446    c0,0,2.539,8.119-3.646,12.305c0,0-2.684,2.08-4.393,5.255" fill="none" stroke="#394553" stroke-linecap="round" stroke-miterlimit="10" stroke-width="2.5"/></g></g></svg>