<?xml version="1.0" ?><!DOCTYPE svg  PUBLIC '-//W3C//DTD SVG 1.1//EN'  'http://www.w3.org/Graphics/SVG/1.1/DTD/svg11.dtd'><svg enable-background="new 0 0 85 85" height="85px" id="Layer_1" version="1.1" viewBox="0 0 85 85" width="85px" xml:space="preserve" xmlns="http://www.w3.org/2000/svg" xmlns:xlink="http://www.w3.org/1999/xlink"><g><g><g><path d="M32.069,47.543     c-2.407,0-4.378-2.035-4.378-4.443V26.183c0-2.407,1.971-4.378,4.378-4.378h32.828c2.409,0,4.379,1.971,4.379,4.378V43.1     c0,2.408-1.97,4.443-4.379,4.443H32.069z" fill="none" stroke="#394553" stroke-miterlimit="10" stroke-width="2.5"/><line fill="none" stroke="#394553" stroke-linejoin="round" stroke-miterlimit="10" stroke-width="2.5" x1="32.998" x2="53.976" y1="41.05" y2="41.05"/><line fill="none" stroke="#394553" stroke-linejoin="round" stroke-miterlimit="10" stroke-width="2.5" x1="32.998" x2="46.855" y1="35.453" y2="35.453"/></g><circle cx="58.645" cy="31.344" fill="none" r="4.221" stroke="#394553" stroke-linecap="round" stroke-linejoin="round" stroke-miterlimit="10" stroke-width="2.5"/></g><g><g><g><g><path d="M50.135,52.295       v18.412c0,1.551-1.268,2.906-2.816,2.906H18.541c-1.549,0-2.815-1.355-2.815-2.906V14.202c0-1.55,1.267-2.815,2.815-2.815       h28.777c1.549,0,2.816,1.266,2.816,2.815v2.849" fill="none" stroke="#394553" stroke-linejoin="round" stroke-miterlimit="10" stroke-width="2.5"/><line fill="none" stroke="#394553" stroke-linejoin="round" stroke-miterlimit="10" stroke-width="2.5" x1="19.908" x2="45.943" y1="61.332" y2="61.332"/><line fill="none" stroke="#394553" stroke-linecap="round" stroke-linejoin="round" stroke-miterlimit="10" stroke-width="2.5" x1="30.591" x2="35.27" y1="67.297" y2="67.297"/></g></g></g></g></g></svg>