<?xml version="1.0" ?><!DOCTYPE svg  PUBLIC '-//W3C//DTD SVG 1.1//EN'  'http://www.w3.org/Graphics/SVG/1.1/DTD/svg11.dtd'><svg enable-background="new 0 0 85 85" height="85px" id="Layer_1" version="1.1" viewBox="0 0 85 85" width="85px" xml:space="preserve" xmlns="http://www.w3.org/2000/svg" xmlns:xlink="http://www.w3.org/1999/xlink"><g><g><g><path d="M35.633,25.33     c-2.768,3.902-5.441,10.289-6.006,20.606" fill="none" stroke="#394553" stroke-linecap="round" stroke-miterlimit="10" stroke-width="2.5"/><path d="M42.5,19.513c0,0,11.621,3.549,12.871,26.422" fill="none" stroke="#394553" stroke-miterlimit="10" stroke-width="2.5"/></g><path d="M33.423,65.799v1.334    c0,2.199,1.8,4,4,4h1c2.2,0,3.999-1.801,3.999-4V47.734" fill="none" stroke="#394553" stroke-linecap="round" stroke-miterlimit="10" stroke-width="2.5"/><line fill="none" stroke="#394553" stroke-linecap="round" stroke-miterlimit="10" stroke-width="2.5" x1="42.5" x2="42.5" y1="18.617" y2="13.867"/></g><path d="   M29.679,46.115c12.042-8.374,25.641,0.025,25.641,0.025s6.576-6.59,17.451-0.592C70.545,30.804,57.867,19.513,42.5,19.513   c-15.367,0-28.045,11.291-30.272,26.036c4.784-2.64,8.737-2.847,11.663-2.252" fill="none" stroke="#394553" stroke-linecap="round" stroke-linejoin="round" stroke-miterlimit="10" stroke-width="2.5"/></g></svg>