<?xml version="1.0" ?><!DOCTYPE svg  PUBLIC '-//W3C//DTD SVG 1.1//EN'  'http://www.w3.org/Graphics/SVG/1.1/DTD/svg11.dtd'><svg enable-background="new 0 0 85 85" height="85px" id="Layer_1" version="1.1" viewBox="0 0 85 85" width="85px" xml:space="preserve" xmlns="http://www.w3.org/2000/svg" xmlns:xlink="http://www.w3.org/1999/xlink"><g><g><path d="M39.464,59.254    c-0.676,0.105-1.371,0.158-2.078,0.158c-7.422,0-13.434-6.016-13.434-13.438c0-7.417,6.012-13.435,13.434-13.435    c6.61,0,12.108,4.779,13.227,11.065" fill="none" stroke="#394553" stroke-linejoin="round" stroke-miterlimit="10" stroke-width="2.5"/><line fill="none" stroke="#394553" stroke-linecap="round" stroke-miterlimit="10" stroke-width="2.5" x1="21.099" x2="28.511" y1="16.991" y2="16.991"/><path d="M61.42,42.627v-28.52    c0-2.158-1.764-3.924-3.922-3.924H17.276c-2.16,0-3.924,1.766-3.924,3.924v9.999h47.457" fill="none" stroke="#394553" stroke-linejoin="round" stroke-miterlimit="10" stroke-width="2.5"/><path d="M13.353,29.096v35.203    c0,2.156,1.764,3.908,3.924,3.908h23.768" fill="none" stroke="#394553" stroke-linejoin="round" stroke-miterlimit="10" stroke-width="2.5"/><g><circle cx="51.916" cy="16.963" fill="#394553" r="2"/><circle cx="44.801" cy="16.963" fill="#394553" r="2"/></g><path d="M28.079,46.299c0,0,4.816-3.959,10.332-0.43    c0,0,2.689,1.845,6.089,2.021" fill="none" stroke="#394553" stroke-miterlimit="10" stroke-width="2.5"/></g><g><g><path d="M54.066,64.172     c0,1.807,1.576,3.268,3.514,3.268c1.943,0,3.518-1.461,3.518-3.268c0-1.805-1.877-2.595-3.524-3.431     c-1.646-0.835-3.521-1.624-3.521-3.431c0-1.805,1.572-3.269,3.514-3.269c1.942,0,3.515,1.464,3.515,3.269" fill="none" stroke="#394553" stroke-linecap="round" stroke-miterlimit="10" stroke-width="2.5"/><line fill="none" stroke="#394553" stroke-linecap="round" stroke-miterlimit="10" stroke-width="2.5" x1="57.566" x2="57.566" y1="54.027" y2="51.633"/><line fill="none" stroke="#394553" stroke-linecap="round" stroke-miterlimit="10" stroke-width="2.5" x1="57.566" x2="57.566" y1="69.855" y2="67.456"/></g></g><circle cx="57.572" cy="60.741" fill="none" r="14.076" stroke="#394553" stroke-linecap="round" stroke-linejoin="round" stroke-miterlimit="10" stroke-width="2.5"/></g></svg>