<?xml version="1.0" ?><!DOCTYPE svg  PUBLIC '-//W3C//DTD SVG 1.1//EN'  'http://www.w3.org/Graphics/SVG/1.1/DTD/svg11.dtd'><svg enable-background="new 0 0 85 85" height="85px" id="Layer_1" version="1.1" viewBox="0 0 85 85" width="85px" xml:space="preserve" xmlns="http://www.w3.org/2000/svg" xmlns:xlink="http://www.w3.org/1999/xlink"><g><polyline fill="none" points="   26.854,28.785 5.582,40.459 29.271,57.139 50.633,44.453  " stroke="#394553" stroke-linecap="round" stroke-linejoin="round" stroke-miterlimit="10" stroke-width="2.5"/><polyline fill="none" points="   60.877,38.371 79.559,27.277 54.514,13.605 42.338,20.287  " stroke="#394553" stroke-linecap="round" stroke-linejoin="round" stroke-miterlimit="10" stroke-width="2.5"/><line fill="none" stroke="#394553" stroke-linecap="round" stroke-linejoin="round" stroke-miterlimit="10" stroke-width="2.5" x1="60.887" x2="79.475" y1="45.291" y2="34.254"/><polyline fill="none" points="   5.496,47.438 29.186,64.117 50.625,51.385  " stroke="#394553" stroke-linecap="round" stroke-linejoin="round" stroke-miterlimit="10" stroke-width="2.5"/><line fill="none" stroke="#394553" stroke-linecap="round" stroke-linejoin="round" stroke-miterlimit="10" stroke-width="2.5" x1="60.84" x2="79.588" y1="52.664" y2="41.533"/><polyline fill="none" points="   5.609,54.715 29.299,71.395 50.656,58.713  " stroke="#394553" stroke-linecap="round" stroke-linejoin="round" stroke-miterlimit="10" stroke-width="2.5"/><polygon fill="none" points="   60.764,55.613 60.789,38.303 34.877,21.998 25.074,27.463 50.732,44.307 50.732,61.844  " stroke="#394553" stroke-linecap="round" stroke-linejoin="round" stroke-miterlimit="10" stroke-width="2.5"/><line fill="none" stroke="#394553" stroke-linecap="round" stroke-linejoin="round" stroke-miterlimit="10" stroke-width="2.5" x1="48.371" x2="50.514" y1="60.334" y2="61.795"/><line fill="none" stroke="#394553" stroke-linecap="round" stroke-linejoin="round" stroke-miterlimit="10" stroke-width="2.5" x1="25.074" x2="25.074" y1="27.543" y2="29.674"/><line fill="none" stroke="#394553" stroke-miterlimit="10" stroke-width="2.5" x1="5.529" x2="10.66" y1="47.418" y2="44.498"/><line fill="none" stroke="#394553" stroke-miterlimit="10" stroke-width="2.5" x1="5.412" x2="10.545" y1="54.852" y2="51.934"/></g></svg>