<?xml version="1.0" ?><!DOCTYPE svg  PUBLIC '-//W3C//DTD SVG 1.1//EN'  'http://www.w3.org/Graphics/SVG/1.1/DTD/svg11.dtd'><svg enable-background="new 0 0 85 85" height="85px" id="Layer_1" version="1.1" viewBox="0 0 85 85" width="85px" xml:space="preserve" xmlns="http://www.w3.org/2000/svg" xmlns:xlink="http://www.w3.org/1999/xlink"><g><g><g><g><g><g><g><g><line fill="none" stroke="#394553" stroke-miterlimit="10" stroke-width="2.5" x1="22.816" x2="42.05" y1="42.096" y2="42.096"/></g><g><line fill="none" stroke="#394553" stroke-miterlimit="10" stroke-width="2.5" x1="22.816" x2="37.149" y1="50.086" y2="50.086"/></g><g><line fill="none" stroke="#394553" stroke-miterlimit="10" stroke-width="2.5" x1="22.816" x2="36.074" y1="58.076" y2="58.076"/></g></g></g></g><g><polyline fill="none" points="26.819,19.773 26.819,27.234        19.35,27.234      " stroke="#394553" stroke-miterlimit="10" stroke-width="2.5"/><g><polyline fill="none" points="        56.254,36.237 56.254,14.351 24.897,14.351 13.972,25.273 13.972,70.648 42.317,70.648       " stroke="#394553" stroke-linejoin="round" stroke-miterlimit="10" stroke-width="2.5"/></g></g></g></g><g><g><path d="M52.344,59.75      c0,2.027,1.768,3.67,3.945,3.67c2.184,0,3.949-1.643,3.949-3.67s-2.107-2.914-3.957-3.854c-1.85-0.938-3.955-1.824-3.955-3.852      s1.766-3.67,3.947-3.67c2.18,0,3.947,1.643,3.947,3.67" fill="none" stroke="#394553" stroke-linecap="round" stroke-miterlimit="10" stroke-width="2.5"/><line fill="none" stroke="#394553" stroke-linecap="round" stroke-miterlimit="10" stroke-width="2.5" x1="56.273" x2="56.273" y1="48.355" y2="45.895"/><line fill="none" stroke="#394553" stroke-linecap="round" stroke-miterlimit="10" stroke-width="2.5" x1="56.273" x2="56.273" y1="65.9" y2="63.439"/></g></g></g><g><path d="    M47.035,44.381c1.494-1.203,3.246-2.135,5.207-2.693c7.824-2.236,15.982,2.295,18.217,10.119    c2.234,7.828-2.299,15.982-10.123,18.217c-7.824,2.236-15.98-2.297-18.215-10.121c-1.089-3.816-0.57-7.707,1.154-10.957" fill="none" stroke="#394553" stroke-linecap="round" stroke-linejoin="round" stroke-miterlimit="10" stroke-width="2.5"/></g></g></svg>