<?xml version="1.0" ?><!DOCTYPE svg  PUBLIC '-//W3C//DTD SVG 1.1//EN'  'http://www.w3.org/Graphics/SVG/1.1/DTD/svg11.dtd'><svg enable-background="new 0 0 85 85" height="85px" id="Layer_1" version="1.1" viewBox="0 0 85 85" width="85px" xml:space="preserve" xmlns="http://www.w3.org/2000/svg" xmlns:xlink="http://www.w3.org/1999/xlink"><g><g><g><path d="M45.807,26.916     c0,2.107,1.838,3.812,4.101,3.812c2.266,0,4.101-1.704,4.101-3.812c0-2.104-2.188-3.027-4.109-4.002     c-1.92-0.974-4.106-1.896-4.106-4.002c0-2.105,1.833-3.812,4.099-3.812c2.264,0,4.101,1.706,4.101,3.812" fill="none" stroke="#394553" stroke-linecap="round" stroke-miterlimit="10" stroke-width="2.5"/><line fill="none" stroke="#394553" stroke-linecap="round" stroke-miterlimit="10" stroke-width="2.5" x1="49.889" x2="49.889" y1="15.082" y2="12.475"/><line fill="none" stroke="#394553" stroke-linecap="round" stroke-miterlimit="10" stroke-width="2.5" x1="49.889" x2="49.889" y1="33.357" y2="30.75"/></g></g><g><g><g><g><path d="       M36.257,33.752c-2.041-2.768-3.248-6.189-3.248-9.893c0-4.703,1.946-8.951,5.076-11.984" fill="none" stroke="#394553" stroke-linecap="round" stroke-linejoin="round" stroke-miterlimit="10" stroke-width="2.5"/></g><g><path d="       M42.768,8.674c2.111-0.965,4.457-1.502,6.929-1.502c9.216,0,16.688,7.472,16.688,16.688c0,3.932-1.359,7.546-3.636,10.398" fill="none" stroke="#394553" stroke-linecap="round" stroke-linejoin="round" stroke-miterlimit="10" stroke-width="2.5"/></g></g></g><g><g><path d="M65.189,66.445v6.449      c0,2.713-2.222,4.934-4.937,4.934H20.59c-2.714,0-4.935-2.221-4.935-4.934V35.477" fill="none" stroke="#394553" stroke-linejoin="round" stroke-miterlimit="10" stroke-width="2.5"/></g><circle cx="49.996" cy="58.172" fill="#394553" r="2.02"/><g><path d="      M47.568,66.232c-2.715,0-4.935-2.222-4.935-4.937v-6.25c0-2.715,2.22-4.935,4.935-4.935h21.774V66.23H47.568V66.232z" fill="none" stroke="#394553" stroke-linecap="round" stroke-linejoin="round" stroke-miterlimit="10" stroke-width="2.5"/></g><path d="M30.532,32.328H18.557     c-1.629,0-2.901,1.455-2.901,3.148c0,1.697,1.272,3.02,2.901,3.02h41.697c2.715,0,4.936,2.24,4.936,4.953v2.793" fill="none" stroke="#394553" stroke-linejoin="round" stroke-miterlimit="10" stroke-width="2.5"/></g></g></g></svg>