<?xml version="1.0" ?><!DOCTYPE svg  PUBLIC '-//W3C//DTD SVG 1.1//EN'  'http://www.w3.org/Graphics/SVG/1.1/DTD/svg11.dtd'><svg enable-background="new 0 0 85 85" height="85px" id="Layer_1" version="1.1" viewBox="0 0 85 85" width="85px" xml:space="preserve" xmlns="http://www.w3.org/2000/svg" xmlns:xlink="http://www.w3.org/1999/xlink"><g><path d="   M49.28,43.23c-4.939-2.995-8.641-8.823-8.641-15.021c0-9.439,7.651-17.09,17.09-17.09s17.09,7.65,17.09,17.09   c0,5.874-2.964,11.057-7.478,14.132L54.232,52.33v-7.344" fill="none" stroke="#394553" stroke-linecap="round" stroke-linejoin="round" stroke-miterlimit="10" stroke-width="2.5"/><g><g><path d="M53.282,32.482     c0,2.29,1.996,4.144,4.455,4.144c2.464,0,4.458-1.854,4.458-4.144c0-2.288-2.379-3.29-4.467-4.35     c-2.088-1.059-4.465-2.061-4.465-4.349c0-2.289,1.992-4.145,4.456-4.145c2.462,0,4.456,1.855,4.456,4.145" fill="none" stroke="#394553" stroke-linecap="round" stroke-miterlimit="10" stroke-width="2.5"/><line fill="none" stroke="#394553" stroke-linecap="round" stroke-miterlimit="10" stroke-width="2.5" x1="57.72" x2="57.72" y1="19.62" y2="16.841"/><line fill="none" stroke="#394553" stroke-linecap="round" stroke-miterlimit="10" stroke-width="2.5" x1="57.72" x2="57.72" y1="39.427" y2="36.647"/></g></g><g><line fill="none" stroke="#394553" stroke-miterlimit="10" stroke-width="2.5" x1="50.632" x2="41.199" y1="71.721" y2="62.516"/><path d="M19.174,30.762l-5.168-12.057    c-0.545,0.334-0.889,0.554-0.889,0.554c-3.128,1.896-2.917,4.097-2.917,4.097C9.652,36.481,20.839,51.287,21.669,52.551    c1.152,1.545,10.74,16.953,23.198,21.117c0,0,1.982,0.98,4.87-1.268l0.895-0.68c1.145-1.047,5.058-4.549,5.212-5.225    c0,0,0.548-1.287-0.817-2.699l-8.256-8.006c0,0-1.368-1.799-3.917-0.955l-6.257,2.094c0,0-4.859-5.57-7.384-9.578    c-2.844-3.783-6.319-10.309-6.319-10.309l4.184-5.099c1.695-2.082,0.505-4,0.505-4l-4.544-10.567    c-0.831-1.774-2.23-1.723-2.23-1.723c-0.699-0.098-2.088,0.473-3.495,1.186" fill="none" stroke="#394553" stroke-miterlimit="10" stroke-width="2.5"/></g></g></svg>