<?xml version="1.0" ?><!DOCTYPE svg  PUBLIC '-//W3C//DTD SVG 1.1//EN'  'http://www.w3.org/Graphics/SVG/1.1/DTD/svg11.dtd'><svg enable-background="new 0 0 85 85" height="85px" id="Layer_1" version="1.1" viewBox="0 0 85 85" width="85px" xml:space="preserve" xmlns="http://www.w3.org/2000/svg" xmlns:xlink="http://www.w3.org/1999/xlink"><g><line fill="none" stroke="#394553" stroke-linecap="round" stroke-linejoin="round" stroke-miterlimit="10" stroke-width="2.5" x1="34.664" x2="14.164" y1="60.332" y2="60.332"/><polyline fill="none" points="11.832,73.02    11.834,66.287 36.996,66.289 36.996,73.02  " stroke="#394553" stroke-linejoin="round" stroke-miterlimit="10" stroke-width="2.5"/><g><path d="M48.498,37.954    l22.975,20.228c2.166,1.912,2.271,5.146,0.227,7.191l-0.877,0.875c-2.043,2.045-5.281,1.943-7.193-0.227L43.396,43.057" fill="none" stroke="#394553" stroke-linejoin="round" stroke-miterlimit="10" stroke-width="2.5"/><g><rect fill="none" height="17.472" stroke="#394553" stroke-linecap="round" stroke-linejoin="round" stroke-miterlimit="10" stroke-width="2.5" transform="matrix(0.7071 -0.7072 0.7072 0.7071 -11.3917 35.2143)" width="15.695" x="28.96" y="22.621"/><g><path d="      M40.916,17.184c-1.186-1.188-1.188-3.128,0-4.314l0,0c1.186-1.187,3.127-1.186,4.312,0l10.064,10.065      c1.186,1.185,1.188,3.126,0,4.312l0,0c-1.186,1.187-3.127,1.186-4.312,0l-5.871-5.87" fill="none" stroke="#394553" stroke-linecap="round" stroke-linejoin="round" stroke-miterlimit="10" stroke-width="2.5"/><g><line fill="none" stroke="#394553" stroke-linecap="round" stroke-linejoin="round" stroke-miterlimit="10" stroke-width="2.5" x1="50.861" x2="47.674" y1="27.128" y2="30.315"/><line fill="none" stroke="#394553" stroke-linecap="round" stroke-linejoin="round" stroke-miterlimit="10" stroke-width="2.5" x1="41.035" x2="37.85" y1="17.303" y2="20.491"/></g></g><g><path d="      M22.633,35.466c-1.186-1.187-3.127-1.188-4.312-0.001l0,0c-1.188,1.187-1.186,3.129,0,4.314l10.064,10.064      c1.186,1.186,3.127,1.186,4.312,0l0,0c1.188-1.188,1.186-3.127,0-4.314l-5.871-5.869" fill="none" stroke="#394553" stroke-linecap="round" stroke-linejoin="round" stroke-miterlimit="10" stroke-width="2.5"/><g><line fill="none" stroke="#394553" stroke-linecap="round" stroke-linejoin="round" stroke-miterlimit="10" stroke-width="2.5" x1="32.578" x2="35.764" y1="45.41" y2="42.223"/><line fill="none" stroke="#394553" stroke-linecap="round" stroke-linejoin="round" stroke-miterlimit="10" stroke-width="2.5" x1="22.754" x2="25.939" y1="35.585" y2="32.399"/></g></g></g></g></g></svg>