<?xml version="1.0" ?><!DOCTYPE svg  PUBLIC '-//W3C//DTD SVG 1.1//EN'  'http://www.w3.org/Graphics/SVG/1.1/DTD/svg11.dtd'><svg enable-background="new 0 0 85 85" height="85px" id="Layer_1" version="1.1" viewBox="0 0 85 85" width="85px" xml:space="preserve" xmlns="http://www.w3.org/2000/svg" xmlns:xlink="http://www.w3.org/1999/xlink"><g><g><path d="    M34.521,18.548c-2.887,0.525-5.969,1.577-9.162,3.389c0,0-8.833,3.822-6.965,16.051c0,0,0.378,3.42-0.704,5.018l-5.851,6.877    c0,0-0.777,2.045,1.56,2.239l3.565,0.735c0,0,1.49,2.908,1.639,5.145c0.15,2.237-0.372,4.996-0.372,4.996    s-1.267,3.355,0.723,4.829c0.392,0.098,1.853,1.756,12.269-0.483c0,0,1.193,1.095,1.831,6.537" fill="none" stroke="#394553" stroke-linecap="round" stroke-linejoin="round" stroke-miterlimit="10" stroke-width="2.5"/><path d="    M55.543,73.964c-0.463-2.698-1.318-7.703-1.057-11.977c0,0,1.285-5.787,3.857-10.203" fill="none" stroke="#394553" stroke-linecap="round" stroke-linejoin="round" stroke-miterlimit="10" stroke-width="2.5"/><line fill="none" stroke="#394553" stroke-linecap="round" stroke-linejoin="round" stroke-miterlimit="10" stroke-width="2.5" x1="19.052" x2="23.526" y1="58.15" y2="58.226"/></g><g><g><path d="M50.441,33.806     c0,2.535,2.211,4.587,4.932,4.587c2.729,0,4.936-2.052,4.936-4.587c0-2.533-2.633-3.643-4.945-4.816     c-2.311-1.172-4.943-2.281-4.943-4.814c0-2.534,2.207-4.588,4.934-4.588s4.934,2.054,4.934,4.588" fill="none" stroke="#394553" stroke-linecap="round" stroke-miterlimit="10" stroke-width="2.5"/><line fill="none" stroke="#394553" stroke-linecap="round" stroke-miterlimit="10" stroke-width="2.5" x1="55.354" x2="55.354" y1="19.564" y2="16.488"/><line fill="none" stroke="#394553" stroke-linecap="round" stroke-miterlimit="10" stroke-width="2.5" x1="55.354" x2="55.354" y1="41.493" y2="38.417"/></g></g><g><path d="    M47.9,12.649c2.268-1.037,4.789-1.614,7.447-1.614c9.906,0,17.938,8.031,17.938,17.938c0,9.907-8.031,17.937-17.938,17.938    c-9.906,0-17.938-8.031-17.938-17.938c0-5.055,2.092-9.622,5.456-12.882" fill="none" stroke="#394553" stroke-linecap="round" stroke-linejoin="round" stroke-miterlimit="10" stroke-width="2.5"/></g></g></svg>