<?xml version="1.0" ?><!DOCTYPE svg  PUBLIC '-//W3C//DTD SVG 1.1//EN'  'http://www.w3.org/Graphics/SVG/1.1/DTD/svg11.dtd'><svg enable-background="new 0 0 85 85" height="85px" id="Layer_1" version="1.1" viewBox="0 0 85 85" width="85px" xml:space="preserve" xmlns="http://www.w3.org/2000/svg" xmlns:xlink="http://www.w3.org/1999/xlink"><g><path d="M23.106,76.002   c-6.789,0-12.347-5.557-12.347-12.346V50.25c0-6.791,5.558-12.347,12.347-12.347l0.17,0.001c6.789,0,12.347,5.557,12.347,12.346   v13.406c0,6.789-5.558,12.348-12.349,12.348L23.106,76.002z" fill="none" stroke="#394553" stroke-linejoin="round" stroke-miterlimit="10" stroke-width="2.5"/><line fill="none" stroke="#394553" stroke-miterlimit="10" stroke-width="2.5" x1="23.192" x2="23.19" y1="41.908" y2="51.943"/><path d="M60.967,36.03v8.464   c0,5.375-4.271,9.773-9.491,9.773c-5.221,0-9.492-4.398-9.492-9.773V29.678c0-5.375-4.271-9.773-9.491-9.773   c-5.22,0-9.491,4.398-9.491,9.773v4.396" fill="none" stroke="#394553" stroke-miterlimit="10" stroke-width="2.5"/><g><g><g><g><path d="M57.345,25.811       c0,1.73,1.514,3.131,3.374,3.131c1.866,0,3.378-1.4,3.378-3.131c0-1.729-1.802-2.488-3.386-3.287       c-1.579-0.801-3.379-1.556-3.379-3.287c0-1.729,1.509-3.131,3.374-3.131c1.863,0,3.375,1.401,3.375,3.131" fill="none" stroke="#394553" stroke-linecap="round" stroke-miterlimit="10" stroke-width="2.5"/><line fill="none" stroke="#394553" stroke-linecap="round" stroke-miterlimit="10" stroke-width="2.5" x1="60.706" x2="60.706" y1="16.089" y2="13.794"/><line fill="none" stroke="#394553" stroke-linecap="round" stroke-miterlimit="10" stroke-width="2.5" x1="60.706" x2="60.706" y1="31.258" y2="28.959"/></g></g></g><g><path d="     M52.232,11.983c1.369-1.102,2.977-1.953,4.775-2.463c7.177-2.048,14.661,2.099,16.71,9.26c2.049,7.166-2.109,14.629-9.287,16.674     c-7.178,2.049-14.658-2.102-16.707-9.263c-0.998-3.494-0.522-7.057,1.061-10.029" fill="none" stroke="#394553" stroke-linecap="round" stroke-linejoin="round" stroke-miterlimit="10" stroke-width="2.5"/></g></g><line fill="none" stroke="#394553" stroke-linejoin="round" stroke-miterlimit="10" stroke-width="2.5" x1="14.914" x2="35.238" y1="52.309" y2="52.309"/></g></svg>