<?xml version="1.0" ?><!DOCTYPE svg  PUBLIC '-//W3C//DTD SVG 1.1//EN'  'http://www.w3.org/Graphics/SVG/1.1/DTD/svg11.dtd'><svg enable-background="new 0 0 85 85" height="85px" id="Layer_1" version="1.1" viewBox="0 0 85 85" width="85px" xml:space="preserve" xmlns="http://www.w3.org/2000/svg" xmlns:xlink="http://www.w3.org/1999/xlink"><g><g><g><g><g><line fill="none" stroke="#394553" stroke-linecap="round" stroke-linejoin="round" stroke-miterlimit="10" stroke-width="2.5" x1="75.107" x2="56.648" y1="37.884" y2="37.883"/></g><polyline fill="none" points="      70.68,42.357 75.176,37.862 70.699,33.385     " stroke="#394553" stroke-linecap="round" stroke-linejoin="round" stroke-miterlimit="10" stroke-width="2.5"/></g><g><g><line fill="none" stroke="#394553" stroke-linecap="round" stroke-linejoin="round" stroke-miterlimit="10" stroke-width="2.5" x1="69.844" x2="56.135" y1="20.961" y2="28.861"/></g><polyline fill="none" points="      68.508,26.881 70.174,20.744 64.064,19.086     " stroke="#394553" stroke-linecap="round" stroke-linejoin="round" stroke-miterlimit="10" stroke-width="2.5"/></g><g><g><line fill="none" stroke="#394553" stroke-linecap="round" stroke-linejoin="round" stroke-miterlimit="10" stroke-width="2.5" x1="69.844" x2="56.135" y1="54.782" y2="46.882"/></g><polyline fill="none" points="      68.508,48.862 70.174,54.999 64.064,56.657     " stroke="#394553" stroke-linecap="round" stroke-linejoin="round" stroke-miterlimit="10" stroke-width="2.5"/></g></g><g><g><g><line fill="none" stroke="#394553" stroke-linecap="round" stroke-linejoin="round" stroke-miterlimit="10" stroke-width="2.5" x1="9.893" x2="28.351" y1="37.884" y2="37.883"/></g><polyline fill="none" points="      14.321,42.357 9.824,37.862 14.301,33.385     " stroke="#394553" stroke-linecap="round" stroke-linejoin="round" stroke-miterlimit="10" stroke-width="2.5"/></g><g><g><line fill="none" stroke="#394553" stroke-linecap="round" stroke-linejoin="round" stroke-miterlimit="10" stroke-width="2.5" x1="15.155" x2="28.865" y1="20.961" y2="28.861"/></g><polyline fill="none" points="      16.491,26.881 14.826,20.744 20.936,19.086     " stroke="#394553" stroke-linecap="round" stroke-linejoin="round" stroke-miterlimit="10" stroke-width="2.5"/></g><g><g><line fill="none" stroke="#394553" stroke-linecap="round" stroke-linejoin="round" stroke-miterlimit="10" stroke-width="2.5" x1="15.155" x2="28.865" y1="54.782" y2="46.882"/></g><polyline fill="none" points="      16.491,48.862 14.826,54.999 20.936,56.657     " stroke="#394553" stroke-linecap="round" stroke-linejoin="round" stroke-miterlimit="10" stroke-width="2.5"/></g></g></g><g><g><g><path d="M25.572,21.586v-6.93      c0-1.525,1.247-2.771,2.771-2.771h28.314c1.523,0,2.771,1.245,2.771,2.771v6.93" fill="none" stroke="#394553" stroke-linejoin="round" stroke-miterlimit="10" stroke-width="2.5"/><path d="M59.428,54.589      v15.666c0,1.524-1.248,2.859-2.771,2.859H28.342c-1.524,0-2.771-1.335-2.771-2.859V54.589" fill="none" stroke="#394553" stroke-linejoin="round" stroke-miterlimit="10" stroke-width="2.5"/><line fill="none" stroke="#394553" stroke-linejoin="round" stroke-miterlimit="10" stroke-width="2.5" x1="29.688" x2="55.303" y1="61.03" y2="61.03"/><line fill="none" stroke="#394553" stroke-linecap="round" stroke-linejoin="round" stroke-miterlimit="10" stroke-width="2.5" x1="40.198" x2="44.801" y1="66.899" y2="66.899"/></g></g></g><g><g><path d="M37.1,43.151     c0,2.78,2.425,5.03,5.412,5.03s5.411-2.25,5.411-5.03c0-2.779-2.891-3.995-5.423-5.283c-2.534-1.285-5.421-2.503-5.421-5.281     s2.419-5.029,5.407-5.029c2.99,0,5.412,2.251,5.412,5.029" fill="none" stroke="#394553" stroke-linecap="round" stroke-miterlimit="10" stroke-width="2.5"/><line fill="none" stroke="#394553" stroke-linecap="round" stroke-miterlimit="10" stroke-width="2.5" x1="42.485" x2="42.485" y1="27.531" y2="24.09"/><line fill="none" stroke="#394553" stroke-linecap="round" stroke-miterlimit="10" stroke-width="2.5" x1="42.485" x2="42.485" y1="51.652" y2="48.21"/></g></g></g></svg>