<?xml version="1.0" ?><!DOCTYPE svg  PUBLIC '-//W3C//DTD SVG 1.1//EN'  'http://www.w3.org/Graphics/SVG/1.1/DTD/svg11.dtd'><svg enable-background="new 0 0 85 85" height="85px" id="Layer_1" version="1.1" viewBox="0 0 85 85" width="85px" xml:space="preserve" xmlns="http://www.w3.org/2000/svg" xmlns:xlink="http://www.w3.org/1999/xlink"><g><g><circle cx="64.639" cy="52.811" fill="#394553" r="2.009"/><polyline fill="none" points="37.979,37.034 78.549,37.034     78.549,68.588 47.005,68.588   " stroke="#394553" stroke-miterlimit="10" stroke-width="2.5"/><path d="M47.005,62.721h21.722    c0-2.199,1.782-3.984,3.981-3.984V46.885c-2.199,0-3.981-1.785-3.981-3.984H39.279" fill="none" stroke="#394553" stroke-miterlimit="10" stroke-width="2.5"/><ellipse cx="50.742" cy="52.811" fill="none" rx="4.886" ry="5.258" stroke="#394553" stroke-miterlimit="10" stroke-width="2.5"/></g><g><g><g><path d="M38.694,61.67v-3.73      c0-0.752-0.764-1.424-1.497-1.424H24.532" fill="none" stroke="#394553" stroke-linecap="round" stroke-miterlimit="10" stroke-width="2.5"/></g><g><path d="      M22.905,62.043H40.6c0.732,0,1.498,0.676,1.498,1.424v5.121H6.452v-5.121c0-0.748,0.765-1.424,1.5-1.424h1.902v-4.104      c0-0.752,0.764-1.424,1.5-1.424h5.436" fill="none" stroke="#394553" stroke-linecap="round" stroke-linejoin="round" stroke-miterlimit="10" stroke-width="2.5"/></g></g><g><polyline fill="none" points="     21.614,21.589 21.614,16.413 26.936,16.413 26.936,21.589 32.32,21.589 32.32,16.413 37.589,16.413 37.589,26.152 32.449,29.029      35.682,56.066    " stroke="#394553" stroke-linecap="square" stroke-miterlimit="10" stroke-width="2.5"/><polyline fill="none" points="     12.87,56.066 16.102,29.029 10.96,26.152 10.96,16.413 16.23,16.413 16.23,21.589    " stroke="#394553" stroke-linecap="square" stroke-miterlimit="10" stroke-width="2.5"/></g><line fill="none" stroke="#394553" stroke-miterlimit="10" stroke-width="2.5" x1="31.798" x2="20.973" y1="29.623" y2="29.623"/></g></g></svg>