<?xml version="1.0" ?><!DOCTYPE svg  PUBLIC '-//W3C//DTD SVG 1.1//EN'  'http://www.w3.org/Graphics/SVG/1.1/DTD/svg11.dtd'><svg enable-background="new 0 0 85 85" height="85px" id="Layer_1" version="1.1" viewBox="0 0 85 85" width="85px" xml:space="preserve" xmlns="http://www.w3.org/2000/svg" xmlns:xlink="http://www.w3.org/1999/xlink"><g><g><g><path d="M50.479,21.219c-1.108,0-2.01,0.902-2.01,2.011c0,1.106,0.901,2.007,2.01,2.007     c1.104,0,2.005-0.897,2.01-2.007C52.488,22.121,51.587,21.219,50.479,21.219z" fill="#394553"/><polyline fill="none" points="34.702,47.593 34.702,9.319      66.256,9.319 66.256,64.932 45.537,64.932    " stroke="#394553" stroke-miterlimit="10" stroke-width="2.5"/><path d="M49.337,59.091h7.067     c0-2.2,1.783-3.981,3.982-3.981V19.142c-2.199,0-3.982-1.783-3.982-3.982H44.552c0,2.199-1.783,3.982-3.982,3.982v23.426" fill="none" stroke="#394553" stroke-miterlimit="10" stroke-width="2.5"/><ellipse cx="50.479" cy="37.125" fill="none" rx="5.258" ry="4.886" stroke="#394553" stroke-miterlimit="10" stroke-width="2.5"/></g><g><g><path d="M28.507,60.163      l11.709-12.562c2-2.066,5.125-2.476,6.945-0.908c1.819,1.566,1.989,4.799,0.379,7.182L32.831,75.682" fill="none" stroke="#394553" stroke-linejoin="round" stroke-miterlimit="10" stroke-width="2.5"/></g><path d="M34.339,38.188c0,0-15.172,12.9-15.517,14.916     c-0.283,1.639,0.274,16.685,0.491,22.531" fill="none" stroke="#394553" stroke-miterlimit="10" stroke-width="2.5"/></g></g></g></svg>