<?xml version="1.0" ?><!DOCTYPE svg  PUBLIC '-//W3C//DTD SVG 1.1//EN'  'http://www.w3.org/Graphics/SVG/1.1/DTD/svg11.dtd'><svg enable-background="new 0 0 85 85" height="85px" id="Layer_1" version="1.1" viewBox="0 0 85 85" width="85px" xml:space="preserve" xmlns="http://www.w3.org/2000/svg" xmlns:xlink="http://www.w3.org/1999/xlink"><g><g><g><g><circle cx="30.07" cy="42.499" fill="#394553" r="2.007"/><circle cx="54.93" cy="42.499" fill="#394553" r="2.007"/></g><g><rect fill="none" height="27.257" stroke="#394553" stroke-miterlimit="10" stroke-width="2.5" width="48.038" x="18.48" y="28.871"/><path d="M49.354,50.777h7.625      c0-2.189,1.777-3.969,3.971-3.969v-8.622c-2.192,0-3.971-1.776-3.971-3.969h-7.625" fill="none" stroke="#394553" stroke-miterlimit="10" stroke-width="2.5"/></g><ellipse cx="42.5" cy="42.498" fill="none" rx="5.334" ry="7.453" stroke="#394553" stroke-miterlimit="10" stroke-width="2.5"/></g><g><g><g><g><g><g><line fill="none" stroke="#394553" stroke-linecap="round" stroke-linejoin="round" stroke-miterlimit="10" stroke-width="2.5" x1="42.518" x2="42.516" y1="5.441" y2="19.751"/></g></g><polyline fill="none" points="        47.064,9.939 42.496,5.371 37.946,9.921       " stroke="#394553" stroke-linecap="round" stroke-linejoin="round" stroke-miterlimit="10" stroke-width="2.5"/></g></g><g><g><g><line fill="none" stroke="#394553" stroke-linecap="round" stroke-linejoin="round" stroke-miterlimit="10" stroke-width="2.5" x1="67.934" x2="57.814" y1="13.177" y2="23.294"/></g></g><polyline fill="none" points="       67.969,19.572 67.969,13.111 61.533,13.111      " stroke="#394553" stroke-linecap="round" stroke-linejoin="round" stroke-miterlimit="10" stroke-width="2.5"/></g><g><g><g><line fill="none" stroke="#394553" stroke-linecap="round" stroke-linejoin="round" stroke-miterlimit="10" stroke-width="2.5" x1="17.095" x2="27.212" y1="13.159" y2="23.278"/></g></g><polyline fill="none" points="       23.491,13.124 17.03,13.125 17.03,19.56      " stroke="#394553" stroke-linecap="round" stroke-linejoin="round" stroke-miterlimit="10" stroke-width="2.5"/></g></g><g><g><g><g><g><line fill="none" stroke="#394553" stroke-linecap="round" stroke-linejoin="round" stroke-miterlimit="10" stroke-width="2.5" x1="42.48" x2="42.482" y1="79.559" y2="65.249"/></g></g><polyline fill="none" points="        37.935,75.061 42.502,79.629 47.053,75.079       " stroke="#394553" stroke-linecap="round" stroke-linejoin="round" stroke-miterlimit="10" stroke-width="2.5"/></g></g><g><g><g><line fill="none" stroke="#394553" stroke-linecap="round" stroke-linejoin="round" stroke-miterlimit="10" stroke-width="2.5" x1="17.065" x2="27.185" y1="71.823" y2="61.706"/></g></g><polyline fill="none" points="       17.03,65.428 17.031,71.889 23.466,71.889      " stroke="#394553" stroke-linecap="round" stroke-linejoin="round" stroke-miterlimit="10" stroke-width="2.5"/></g><g><g><g><line fill="none" stroke="#394553" stroke-linecap="round" stroke-linejoin="round" stroke-miterlimit="10" stroke-width="2.5" x1="67.904" x2="57.787" y1="71.841" y2="61.723"/></g></g><polyline fill="none" points="       61.508,71.876 67.969,71.875 67.969,65.439      " stroke="#394553" stroke-linecap="round" stroke-linejoin="round" stroke-miterlimit="10" stroke-width="2.5"/></g></g></g></g><path d="M35.799,34.219h-7.778   c0,2.192-1.778,3.969-3.97,3.969v8.623c2.191,0,3.97,1.777,3.97,3.969h7.778" fill="none" stroke="#394553" stroke-miterlimit="10" stroke-width="2.5"/></g></svg>