<?xml version="1.0" ?><!DOCTYPE svg  PUBLIC '-//W3C//DTD SVG 1.1//EN'  'http://www.w3.org/Graphics/SVG/1.1/DTD/svg11.dtd'><svg enable-background="new 0 0 85 85" height="85px" id="Layer_1" version="1.1" viewBox="0 0 85 85" width="85px" xml:space="preserve" xmlns="http://www.w3.org/2000/svg" xmlns:xlink="http://www.w3.org/1999/xlink"><g><path d="M69.541,24.036   c0.135-0.317-1.273,4.55-8.229,2.075l-1.031-0.348c-4.719-1.938-10.078-3.178-17.75-3.178h-0.064c-7.672,0-13.031,1.24-17.75,3.178   l-1.031,0.348c-6.955,2.475-8.363-2.393-8.229-2.075" fill="none" stroke="#394553" stroke-linecap="round" stroke-miterlimit="10" stroke-width="2.5"/><path d="M42.5,66.779" fill="#FFFFFF" stroke="#394553" stroke-miterlimit="10" stroke-width="2.5"/><line fill="none" stroke="#394553" stroke-linejoin="round" stroke-miterlimit="10" stroke-width="2.5" x1="42.5" x2="42.5" y1="56.572" y2="22.585"/><g><path d="    M71.963,44.834c0,3.465-3.908,6.271-8.729,6.271c-4.822,0-8.729-2.808-8.729-6.271c0-3.463,8.729-17.813,8.729-17.813    S71.963,41.371,71.963,44.834z" fill="none" stroke="#394553" stroke-linecap="round" stroke-linejoin="round" stroke-miterlimit="10" stroke-width="2.5"/><line fill="none" stroke="#394553" stroke-miterlimit="10" stroke-width="2.5" x1="59.537" x2="71.133" y1="43.379" y2="43.379"/></g><g><path d="    M30.494,44.834c0,3.465-3.908,6.271-8.729,6.271c-4.822,0-8.729-2.808-8.729-6.271c0-3.463,8.729-17.813,8.729-17.813    S30.494,41.371,30.494,44.834z" fill="none" stroke="#394553" stroke-linecap="round" stroke-linejoin="round" stroke-miterlimit="10" stroke-width="2.5"/><line fill="none" stroke="#394553" stroke-miterlimit="10" stroke-width="2.5" x1="17.937" x2="29.664" y1="43.379" y2="43.379"/></g><circle cx="42.499" cy="15.602" fill="#394553" r="2.091"/><path d="M42.518,61.318   c-6.795,0-12.758,3.562-16.121,8.922h32.205C55.232,64.912,49.287,61.318,42.518,61.318z" fill="none" stroke="#394553" stroke-miterlimit="10" stroke-width="2.5"/></g></svg>