<?xml version="1.0" ?><!DOCTYPE svg  PUBLIC '-//W3C//DTD SVG 1.1//EN'  'http://www.w3.org/Graphics/SVG/1.1/DTD/svg11.dtd'><svg enable-background="new 0 0 85 85" height="85px" id="Layer_1" version="1.1" viewBox="0 0 85 85" width="85px" xml:space="preserve" xmlns="http://www.w3.org/2000/svg" xmlns:xlink="http://www.w3.org/1999/xlink"><g><g><g><g><g><path d="M38.925,43.427       c0,1.837,1.602,3.324,3.574,3.324c1.978,0,3.578-1.487,3.578-3.324c0-1.836-1.909-2.64-3.587-3.49       c-1.673-0.85-3.58-1.652-3.58-3.489s1.599-3.324,3.574-3.324s3.576,1.487,3.576,3.324" fill="none" stroke="#394553" stroke-linecap="round" stroke-miterlimit="10" stroke-width="2.5"/><line fill="none" stroke="#394553" stroke-linecap="round" stroke-miterlimit="10" stroke-width="2.5" x1="42.484" x2="42.484" y1="33.105" y2="30.668"/><line fill="none" stroke="#394553" stroke-linecap="round" stroke-miterlimit="10" stroke-width="2.5" x1="42.484" x2="42.484" y1="49.21" y2="46.77"/></g></g></g><g><path d="     M33.508,28.746c1.451-1.169,3.153-2.073,5.059-2.615c7.604-2.175,15.533,2.229,17.704,9.831     c2.17,7.607-2.235,15.531-9.839,17.702c-7.604,2.175-15.529-2.231-17.701-9.834c-1.057-3.709-0.553-7.491,1.124-10.648" fill="none" stroke="#394553" stroke-linecap="round" stroke-linejoin="round" stroke-miterlimit="10" stroke-width="2.5"/></g></g><g><path d="M12.94,55.36V23.491    c0-2.373,1.942-4.314,4.313-4.314h50.487c2.375,0,4.317,1.941,4.317,4.314V55.36" fill="none" stroke="#394553" stroke-linejoin="round" stroke-miterlimit="10" stroke-width="2.5"/><path d="M6.056,60.114    c0,0,1.258,5.709,5.434,5.709h62.021c4.177,0,5.435-5.709,5.435-5.709H6.056z" fill="none" stroke="#394553" stroke-linejoin="round" stroke-miterlimit="10" stroke-width="2.5"/></g></g></svg>