<?xml version="1.0" ?><!DOCTYPE svg  PUBLIC '-//W3C//DTD SVG 1.1//EN'  'http://www.w3.org/Graphics/SVG/1.1/DTD/svg11.dtd'><svg enable-background="new 0 0 85 85" height="85px" id="Layer_1" version="1.1" viewBox="0 0 85 85" width="85px" xml:space="preserve" xmlns="http://www.w3.org/2000/svg" xmlns:xlink="http://www.w3.org/1999/xlink"><g><g><path d="M19.189,49.199h-2.271    c-2.875,0-5.227-2.354-5.227-5.229V23.769c0-2.877,2.352-5.229,5.227-5.229h39.205c2.877,0,5.23,2.352,5.23,5.229v7.716" fill="none" stroke="#394553" stroke-linejoin="round" stroke-miterlimit="10" stroke-width="2.5"/><line fill="none" stroke="#394553" stroke-linejoin="round" stroke-miterlimit="10" stroke-width="2.5" x1="12.043" x2="61" y1="26.441" y2="26.441"/><path d="M28.875,66.459c-2.875,0-5.229-2.43-5.229-5.307    V40.95c0-2.875,2.354-5.228,5.229-5.228H68.08c2.877,0,5.229,2.354,5.229,5.228v20.202c0,2.877-2.352,5.307-5.229,5.307H28.875z" fill="none" stroke="#394553" stroke-miterlimit="10" stroke-width="2.5"/><line fill="none" stroke="#394553" stroke-linejoin="round" stroke-miterlimit="10" stroke-width="2.5" x1="29.984" x2="55.037" y1="58.703" y2="58.703"/><line fill="none" stroke="#394553" stroke-linejoin="round" stroke-miterlimit="10" stroke-width="2.5" x1="29.984" x2="46.533" y1="52.977" y2="52.977"/></g><circle cx="60.613" cy="47.113" fill="none" r="5.041" stroke="#394553" stroke-linecap="round" stroke-linejoin="round" stroke-miterlimit="10" stroke-width="2.5"/></g></svg>