<?xml version="1.0" ?><!DOCTYPE svg  PUBLIC '-//W3C//DTD SVG 1.1//EN'  'http://www.w3.org/Graphics/SVG/1.1/DTD/svg11.dtd'><svg enable-background="new 0 0 85 85" height="85px" id="Layer_1" version="1.1" viewBox="0 0 85 85" width="85px" xml:space="preserve" xmlns="http://www.w3.org/2000/svg" xmlns:xlink="http://www.w3.org/1999/xlink"><g><g><circle cx="42.502" cy="65.599" fill="#394553" r="1.958"/><g><polyline fill="none" points="55.262,49.708 55.262,76.648      29.741,76.648 29.741,49.708    " stroke="#394553" stroke-miterlimit="10" stroke-width="2.5"/><path d="M34.929,60.704v6.974     c2.004,0,3.63,1.625,3.63,3.631h7.886c0-2.006,1.625-3.631,3.632-3.631v-6.974" fill="none" stroke="#394553" stroke-miterlimit="10" stroke-width="2.5"/></g><ellipse cx="42.503" cy="54.162" fill="none" rx="6.979" ry="4.995" stroke="#394553" stroke-miterlimit="10" stroke-width="2.5"/></g><path d="M25.411,61.186H19.84   c-3.85,0-7-3.15-7-7V15.351c0-3.85,3.149-7,7-7h5.257l40.065,0.002c3.85,0,7,3.15,6.999,7L72.16,54.184c0,3.85-3.15,7-7,7h-5.729" fill="none" stroke="#394553" stroke-linejoin="round" stroke-miterlimit="10" stroke-width="2.5"/><path d="   M38.726,15.926h15.958c2.199,0,4,1.8,3.998,4v13.281c0,2.2-1.801,4-4,4l-24.363,0.002c-2.2,0-4-1.8-4-4V19.927c0-2.2,1.8-4,4-4   l2.911-0.001" fill="none" stroke="#394553" stroke-linecap="round" stroke-linejoin="round" stroke-miterlimit="10" stroke-width="2.5"/><path d="M25.411,54.066h-2.222   c-1.492,0-2.715-1.224-2.715-2.715v-4.476c0-1.492,1.223-2.714,2.715-2.714h38.622c1.492,0,2.715,1.222,2.715,2.714v4.476   c0,1.491-1.223,2.715-2.715,2.715H59.43" fill="none" stroke="#394553" stroke-miterlimit="10" stroke-width="2.5"/><line fill="none" stroke="#394553" stroke-linecap="round" stroke-miterlimit="10" stroke-width="2.5" x1="25.351" x2="59.65" y1="49.115" y2="49.115"/><g><g><rect fill="#394553" height="0.855" stroke="#394553" stroke-miterlimit="10" stroke-width="2.5" width="0.855" x="64.957" y="19.276"/></g><g><rect fill="#394553" height="0.855" stroke="#394553" stroke-miterlimit="10" stroke-width="2.5" width="0.855" x="64.957" y="26.148"/></g><g><rect fill="#394553" height="0.855" stroke="#394553" stroke-miterlimit="10" stroke-width="2.5" width="0.855" x="64.957" y="33.02"/></g></g><g><g><rect fill="#394553" height="0.855" stroke="#394553" stroke-miterlimit="10" stroke-width="2.5" width="0.855" x="19.188" y="19.276"/></g><g><rect fill="#394553" height="0.855" stroke="#394553" stroke-miterlimit="10" stroke-width="2.5" width="0.855" x="19.188" y="26.148"/></g><g><rect fill="#394553" height="0.855" stroke="#394553" stroke-miterlimit="10" stroke-width="2.5" width="0.855" x="19.188" y="33.02"/></g></g></g></svg>