<?xml version="1.0" ?><!DOCTYPE svg  PUBLIC '-//W3C//DTD SVG 1.1//EN'  'http://www.w3.org/Graphics/SVG/1.1/DTD/svg11.dtd'><svg enable-background="new 0 0 85 85" height="85px" id="Layer_1" version="1.1" viewBox="0 0 85 85" width="85px" xml:space="preserve" xmlns="http://www.w3.org/2000/svg" xmlns:xlink="http://www.w3.org/1999/xlink"><g><g><g><path d="M38.07,46.834     c0,2.281,1.988,4.127,4.438,4.127c2.455,0,4.443-1.846,4.443-4.127c0-2.279-2.371-3.279-4.451-4.333     c-2.081-1.055-4.45-2.055-4.45-4.334c0-2.281,1.984-4.129,4.44-4.129c2.453,0,4.441,1.848,4.441,4.129" fill="none" stroke="#394553" stroke-linecap="round" stroke-miterlimit="10" stroke-width="2.5"/><line fill="none" stroke="#394553" stroke-linecap="round" stroke-miterlimit="10" stroke-width="2.5" x1="42.49" x2="42.49" y1="34.018" y2="31.248"/><line fill="none" stroke="#394553" stroke-linecap="round" stroke-miterlimit="10" stroke-width="2.5" x1="42.49" x2="42.49" y1="53.752" y2="50.984"/></g></g><g><g><g><line fill="none" stroke="#394553" stroke-miterlimit="10" stroke-width="2.5" x1="50.496" x2="60.5" y1="17.047" y2="22.833"/><line fill="none" stroke="#394553" stroke-miterlimit="10" stroke-width="2.5" x1="34.505" x2="24.501" y1="17.047" y2="22.833"/></g><g><line fill="none" stroke="#394553" stroke-miterlimit="10" stroke-width="2.5" x1="50.496" x2="60.5" y1="67.953" y2="62.166"/><line fill="none" stroke="#394553" stroke-miterlimit="10" stroke-width="2.5" x1="34.505" x2="24.501" y1="67.953" y2="62.166"/></g></g><g><g><circle cx="42.501" cy="12.363" fill="none" r="4.431" stroke="#394553" stroke-linejoin="round" stroke-miterlimit="10" stroke-width="2.5"/><line fill="none" stroke="#394553" stroke-linejoin="round" stroke-miterlimit="10" stroke-width="2.5" x1="42.5" x2="42.5" y1="17.287" y2="24.052"/></g><g><circle cx="42.501" cy="72.635" fill="none" r="4.431" stroke="#394553" stroke-linejoin="round" stroke-miterlimit="10" stroke-width="2.5"/><line fill="none" stroke="#394553" stroke-linejoin="round" stroke-miterlimit="10" stroke-width="2.5" x1="42.5" x2="42.5" y1="67.711" y2="60.947"/></g></g><g><g><g><circle cx="68.569" cy="27.38" fill="none" r="4.429" stroke="#394553" stroke-linejoin="round" stroke-miterlimit="10" stroke-width="2.5"/><line fill="none" stroke="#394553" stroke-linejoin="round" stroke-miterlimit="10" stroke-width="2.5" x1="64.311" x2="58.459" y1="29.85" y2="33.243"/></g><g><circle cx="16.431" cy="27.38" fill="none" r="4.43" stroke="#394553" stroke-linejoin="round" stroke-miterlimit="10" stroke-width="2.5"/><line fill="none" stroke="#394553" stroke-linejoin="round" stroke-miterlimit="10" stroke-width="2.5" x1="20.689" x2="26.542" y1="29.85" y2="33.243"/></g></g><g><g><path d="M14.208,53.785       c2.117-1.227,4.828-0.506,6.057,1.609c1.227,2.119,0.504,4.828-1.611,6.055c-2.117,1.229-4.826,0.508-6.055-1.607       C11.371,57.725,12.093,55.012,14.208,53.785z" fill="none" stroke="#394553" stroke-linejoin="round" stroke-miterlimit="10" stroke-width="2.5"/><line fill="none" stroke="#394553" stroke-linejoin="round" stroke-miterlimit="10" stroke-width="2.5" x1="20.689" x2="26.542" y1="55.148" y2="51.756"/></g><g><path d="M70.791,53.785       c-2.115-1.227-4.826-0.506-6.055,1.609c-1.227,2.119-0.506,4.828,1.611,6.055c2.117,1.229,4.826,0.508,6.055-1.607       C73.629,57.725,72.908,55.012,70.791,53.785z" fill="none" stroke="#394553" stroke-linejoin="round" stroke-miterlimit="10" stroke-width="2.5"/><line fill="none" stroke="#394553" stroke-linejoin="round" stroke-miterlimit="10" stroke-width="2.5" x1="64.311" x2="58.459" y1="55.148" y2="51.756"/></g></g></g><circle cx="42.501" cy="42.5" fill="none" r="18.302" stroke="#394553" stroke-linejoin="round" stroke-miterlimit="10" stroke-width="2.5"/><g><line fill="none" stroke="#394553" stroke-miterlimit="10" stroke-width="2.5" x1="16.482" x2="16.482" y1="36.714" y2="48.285"/><line fill="none" stroke="#394553" stroke-miterlimit="10" stroke-width="2.5" x1="68.52" x2="68.52" y1="36.714" y2="48.285"/></g></g></g></svg>