<?xml version="1.0" ?><!DOCTYPE svg  PUBLIC '-//W3C//DTD SVG 1.1//EN'  'http://www.w3.org/Graphics/SVG/1.1/DTD/svg11.dtd'><svg enable-background="new 0 0 85 85" height="85px" id="Layer_1" version="1.1" viewBox="0 0 85 85" width="85px" xml:space="preserve" xmlns="http://www.w3.org/2000/svg" xmlns:xlink="http://www.w3.org/1999/xlink"><g><g><g><g><path d="      M64.516,29.659" fill="none" stroke="#394553" stroke-linecap="round" stroke-linejoin="round" stroke-miterlimit="10" stroke-width="2.5"/><path d="      M70.578,23.594" fill="none" stroke="#394553" stroke-linecap="round" stroke-linejoin="round" stroke-miterlimit="10" stroke-width="2.5"/><line fill="none" stroke="#394553" stroke-linecap="round" stroke-linejoin="round" stroke-miterlimit="10" stroke-width="2.5" x1="70.549" x2="64.486" y1="22.673" y2="28.734"/><line fill="none" stroke="#394553" stroke-linecap="round" stroke-linejoin="round" stroke-miterlimit="10" stroke-width="2.5" x1="64.437" x2="58.375" y1="28.74" y2="22.679"/></g><g><path d="      M56.051,11.557c7.874,3.171,8.524,9.304,8.524,16.245" fill="none" stroke="#394553" stroke-linecap="round" stroke-linejoin="round" stroke-miterlimit="10" stroke-width="2.5"/></g></g><g><g><path d="      M20.485,55.406" fill="none" stroke="#394553" stroke-linecap="round" stroke-linejoin="round" stroke-miterlimit="10" stroke-width="2.5"/><path d="      M14.422,61.471" fill="none" stroke="#394553" stroke-linecap="round" stroke-linejoin="round" stroke-miterlimit="10" stroke-width="2.5"/><line fill="none" stroke="#394553" stroke-linecap="round" stroke-linejoin="round" stroke-miterlimit="10" stroke-width="2.5" x1="14.451" x2="20.515" y1="62.391" y2="56.33"/><line fill="none" stroke="#394553" stroke-linecap="round" stroke-linejoin="round" stroke-miterlimit="10" stroke-width="2.5" x1="20.563" x2="26.626" y1="56.324" y2="62.385"/></g><g><path d="      M28.95,73.508c-7.874-3.172-8.525-9.305-8.525-16.246" fill="none" stroke="#394553" stroke-linecap="round" stroke-linejoin="round" stroke-miterlimit="10" stroke-width="2.5"/></g></g></g><g><circle cx="53.589" cy="53.623" fill="none" r="20.215" stroke="#394553" stroke-miterlimit="10" stroke-width="2.5"/><path d="M28.654,51.473    c-9.859-1.346-17.457-9.8-17.457-20.028c0-11.164,9.051-20.217,20.214-20.217c10.405,0,18.977,7.865,20.092,17.974" fill="none" stroke="#394553" stroke-miterlimit="10" stroke-width="2.5"/><g><g><g><line fill="none" stroke="#394553" stroke-linecap="round" stroke-linejoin="round" stroke-miterlimit="10" stroke-width="2.5" x1="21.978" x2="31.645" y1="28.9" y2="28.9"/><line fill="none" stroke="#394553" stroke-linecap="round" stroke-linejoin="round" stroke-miterlimit="10" stroke-width="2.5" x1="21.978" x2="31.645" y1="33.519" y2="33.519"/></g></g><path d="     M31,41.364c-3.446-0.645-6.112-4.384-6.112-8.865V29.92c0-4.933,3.228-8.966,7.171-8.966c2.169,0,4.121,1.221,5.438,3.139" fill="none" stroke="#394553" stroke-linecap="round" stroke-linejoin="round" stroke-miterlimit="10" stroke-width="2.5"/></g><g><path d="M48.152,58.211     c0,2.389,2.422,4.324,5.405,4.324c2.984,0,5.402-1.936,5.402-4.324c0-2.387-2.883-3.434-5.416-4.537     c-2.531-1.107-5.416-2.152-5.416-4.539c0-2.391,2.422-4.326,5.403-4.326c2.985,0,5.405,1.936,5.405,4.326" fill="none" stroke="#394553" stroke-linecap="round" stroke-miterlimit="10" stroke-width="2.5"/><line fill="none" stroke="#394553" stroke-linecap="round" stroke-miterlimit="10" stroke-width="2.5" x1="53.531" x2="53.531" y1="44.789" y2="41.927"/><line fill="none" stroke="#394553" stroke-linecap="round" stroke-miterlimit="10" stroke-width="2.5" x1="53.531" x2="53.531" y1="65.42" y2="62.559"/></g></g><path d="M33.205,74.586   c0,0,1.79,0.502,3.625,0.375" fill="none" stroke="#394553" stroke-linecap="round" stroke-miterlimit="10" stroke-width="2.5"/><path d="M51.663,10.415   c0,0-1.79-0.501-3.625-0.375" fill="none" stroke="#394553" stroke-linecap="round" stroke-miterlimit="10" stroke-width="2.5"/></g></svg>