<?xml version="1.0" ?><!DOCTYPE svg  PUBLIC '-//W3C//DTD SVG 1.1//EN'  'http://www.w3.org/Graphics/SVG/1.1/DTD/svg11.dtd'><svg enable-background="new 0 0 85 85" height="85px" id="Layer_1" version="1.1" viewBox="0 0 85 85" width="85px" xml:space="preserve" xmlns="http://www.w3.org/2000/svg" xmlns:xlink="http://www.w3.org/1999/xlink"><g><path d="M27.663,60.922   l12.323-13.225c2.106-2.174,5.395-2.607,7.312-0.955c1.916,1.648,2.094,5.051,0.4,7.559L32.215,77.258" fill="none" stroke="#394553" stroke-linejoin="round" stroke-miterlimit="10" stroke-width="2.5"/><path d="M34.106,37.506c0,0-16.277,13.865-16.641,15.986   c-0.297,1.725,0.289,17.562,0.519,23.719" fill="none" stroke="#394553" stroke-miterlimit="10" stroke-width="2.5"/><g><g><g><path d="M47.264,36.787      c0,1.772,1.545,3.208,3.449,3.208c1.908,0,3.451-1.436,3.451-3.208s-1.842-2.549-3.461-3.368      c-1.613-0.82-3.453-1.595-3.453-3.367s1.541-3.208,3.449-3.208c1.904,0,3.449,1.436,3.449,3.208" fill="none" stroke="#394553" stroke-linecap="round" stroke-miterlimit="10" stroke-width="2.5"/><line fill="none" stroke="#394553" stroke-linecap="round" stroke-miterlimit="10" stroke-width="2.5" x1="50.699" x2="50.699" y1="26.827" y2="24.273"/><line fill="none" stroke="#394553" stroke-linecap="round" stroke-miterlimit="10" stroke-width="2.5" x1="50.699" x2="50.699" y1="42.569" y2="40.012"/></g></g></g><g><path d="M34.059,46.555V10.488    c0-1.511,1.234-2.747,2.746-2.747h28.066c1.51,0,2.746,1.236,2.746,2.747V65.6c0,1.512-1.236,2.828-2.746,2.828H43.459" fill="none" stroke="#394553" stroke-linejoin="round" stroke-miterlimit="10" stroke-width="2.5"/><line fill="none" stroke="#394553" stroke-linejoin="round" stroke-miterlimit="10" stroke-width="2.5" x1="46.156" x2="63.385" y1="56.482" y2="56.482"/><line fill="none" stroke="#394553" stroke-linecap="round" stroke-linejoin="round" stroke-miterlimit="10" stroke-width="2.5" x1="48.557" x2="53.119" y1="62.373" y2="62.373"/></g><path d="M43.07,16.073   c2.123-1.742,4.84-2.787,7.803-2.787c2.973,0,5.699,1.055,7.828,2.811" fill="none" stroke="#394553" stroke-linecap="round" stroke-miterlimit="10" stroke-width="2.5"/><path d="M46.26,20.001   c1.254-1.034,2.861-1.655,4.613-1.655c1.75,0,3.357,0.62,4.609,1.653" fill="none" stroke="#394553" stroke-linecap="round" stroke-miterlimit="10" stroke-width="2.5"/></g></svg>